<svg id="Group_2418" data-name="Group 2418" xmlns="http://www.w3.org/2000/svg" viewBox="0 0 42.906 42.906">
  <defs>
    <style>
      .cls-1, .cls-4 {
        fill: none;
      }

      .cls-1 {
        stroke: #3d3d3d;
        stroke-width: 3px;
      }

      .cls-2 {
        fill: #3d3d3d;
      }

      .cls-3 {
        stroke: none;
      }
    </style>
  </defs>
  <g id="Rectangle_2370" data-name="Rectangle 2370" class="cls-1" transform="translate(0)">
    <rect class="cls-3" width="42.906" height="42.906" rx="10"/>
    <rect class="cls-4" x="1.5" y="1.5" width="39.906" height="39.906" rx="8.5"/>
  </g>
  <g id="Group_2417" data-name="Group 2417" transform="translate(7.821 11.732)">
    <path id="Path_4916" data-name="Path 4916" class="cls-2" d="M780.407,215.288c-.28.552-.552,1.1-.832,1.624-1.3,2.5-2.612,5.006-3.9,7.509a.568.568,0,0,0,0,.451q2.344,4.582,4.7,9.149c.381.746.389.738-.451.738-.816,0-1.632-.008-2.448.008a.541.541,0,0,1-.568-.358q-1.644-3.475-3.311-6.933c-.054-.117-.117-.225-.2-.4-.42.917-.8,1.78-1.2,2.635-.715,1.547-1.446,3.094-2.161,4.648-.179.381-.435.459-.956.373a6.462,6.462,0,0,0-1.936,0,3.451,3.451,0,0,1-.746-.008c.257-.505.482-.956.715-1.391q2.087-4.011,4.182-8.022a.639.639,0,0,0,.008-.684q-2.273-4.465-4.532-8.931c-.225-.443-.187-.5.319-.5.878,0,1.764.008,2.643-.008a.522.522,0,0,1,.56.35q1.574,3.381,3.163,6.747c.047.093.1.179.179.326.311-.676.591-1.3.886-1.928.8-1.726,1.6-3.451,2.417-5.169a.552.552,0,0,1,.389-.311c.948-.023,1.889-.016,2.837-.008C780.243,215.195,780.3,215.241,780.407,215.288Z" transform="translate(-766.4 -215.194)"/>
    <path id="Path_4917" data-name="Path 4917" class="cls-2" d="M971.364,220.269v-2.511c0-.661.008-1.321-.008-1.982-.008-.319.124-.412.552-.358a8.161,8.161,0,0,0,2.176,0c.435-.054.552.031.552.35-.008,1.1-.008,2.2-.008,3.3q0,7,.008,13.983a3.14,3.14,0,0,0,.023.381c.07.63.171.56-.482.824a10.081,10.081,0,0,1-5.511.754,5.856,5.856,0,0,1-5.107-4.617,8.893,8.893,0,0,1,.427-6.187,6.6,6.6,0,0,1,6.187-3.941C970.556,220.262,970.929,220.269,971.364,220.269Zm-.023,7.345c0-1.384-.008-2.767.008-4.158,0-.272-.086-.381-.358-.435a3.537,3.537,0,0,0-3.871,1.8,6.693,6.693,0,0,0-.4,4.765,3.365,3.365,0,0,0,4.159,2.651c.334-.062.474-.187.466-.552C971.333,230.335,971.341,228.975,971.341,227.615Z" transform="translate(-947.906 -215.388)"/>
  </g>
</svg>
