<svg xmlns="http://www.w3.org/2000/svg" viewBox="0 0 29.763 18.85">
  <defs>
    <style>
      .cls-1 {
        fill: #3d3d3d;
      }
    </style>
  </defs>
  <g id="Group_2163" data-name="Group 2163" transform="translate(29.763 18.85) rotate(180)">
    <path id="Path_4710" data-name="Path 4710" class="cls-1" d="M49.763,992.785a1.153,1.153,0,0,0-.28-.682l-7.937-8.433a.994.994,0,0,0-1.4-.039,1.022,1.022,0,0,0-.039,1.4l6.371,6.759H20.992a.992.992,0,0,0,0,1.984H46.476l-6.371,6.759a1.039,1.039,0,0,0,.039,1.4.993.993,0,0,0,1.4-.039l7.937-8.433a.882.882,0,0,0,.28-.682Z" transform="translate(-20 -983.36)"/>
  </g>
</svg>
