<svg xmlns="http://www.w3.org/2000/svg" viewBox="0 0 108.451 99.182">
  <defs>
    <style>
      .cls-1 {
        fill: #015151;
      }

      .cls-2, .cls-4 {
        fill: none;
      }

      .cls-2 {
        stroke: #f98e6d;
        stroke-width: 2px;
        opacity: 0.71;
      }

      .cls-3 {
        stroke: none;
      }
    </style>
  </defs>
  <g id="Group_2698" data-name="Group 2698" transform="translate(8565.729 -7289.12)">
    <g id="Group_2152" data-name="Group 2152" transform="translate(-8649.396 7319.226)">
      <path id="Path_4041" data-name="Path 4041" class="cls-1" d="M507,0a3.037,3.037,0,0,0-3,3.08,3,3,0,1,0,6,0A3.037,3.037,0,0,0,507,0Z" transform="translate(-343.757)"/>
      <path id="Path_4042" data-name="Path 4042" class="cls-1" d="M507,30.161a3.081,3.081,0,1,0-3-3.08A3.037,3.037,0,0,0,507,30.161Z" transform="translate(-343.757 -8.271)"/>
      <path id="Path_4043" data-name="Path 4043" class="cls-1" d="M507,54.161a3.081,3.081,0,1,0-3-3.08A3.037,3.037,0,0,0,507,54.161Z" transform="translate(-343.757 -16.542)"/>
      <path id="Path_4044" data-name="Path 4044" class="cls-1" d="M507,78.161a3.081,3.081,0,1,0-3-3.08A3.037,3.037,0,0,0,507,78.161Z" transform="translate(-343.757 -24.813)"/>
      <path id="Path_4045" data-name="Path 4045" class="cls-1" d="M507,102.161a3.081,3.081,0,1,0-3-3.08A3.037,3.037,0,0,0,507,102.161Z" transform="translate(-343.757 -33.084)"/>
      <path id="Path_4051" data-name="Path 4051" class="cls-1" d="M483,6.16a3.037,3.037,0,0,0,3-3.08,3,3,0,1,0-6,0A3.037,3.037,0,0,0,483,6.16Z" transform="translate(-335.072)"/>
      <path id="Path_4052" data-name="Path 4052" class="cls-1" d="M483,30.161a3.081,3.081,0,1,0-3-3.08A3.037,3.037,0,0,0,483,30.161Z" transform="translate(-335.072 -8.271)"/>
      <path id="Path_4053" data-name="Path 4053" class="cls-1" d="M483,54.161a3.081,3.081,0,1,0-3-3.08A3.037,3.037,0,0,0,483,54.161Z" transform="translate(-335.072 -16.542)"/>
      <path id="Path_4054" data-name="Path 4054" class="cls-1" d="M483,78.161a3.081,3.081,0,1,0-3-3.08A3.037,3.037,0,0,0,483,78.161Z" transform="translate(-335.072 -24.813)"/>
      <path id="Path_4055" data-name="Path 4055" class="cls-1" d="M483,102.161a3.081,3.081,0,1,0-3-3.08A3.037,3.037,0,0,0,483,102.161Z" transform="translate(-335.072 -33.084)"/>
      <path id="Path_4061" data-name="Path 4061" class="cls-1" d="M459,6.16a3.037,3.037,0,0,0,3-3.08,3,3,0,1,0-6,0A3.037,3.037,0,0,0,459,6.16Z" transform="translate(-326.388)"/>
      <path id="Path_4062" data-name="Path 4062" class="cls-1" d="M459,30.161a3.081,3.081,0,1,0-3-3.08A3.037,3.037,0,0,0,459,30.161Z" transform="translate(-326.388 -8.271)"/>
      <path id="Path_4063" data-name="Path 4063" class="cls-1" d="M459,54.161a3.081,3.081,0,1,0-3-3.08A3.037,3.037,0,0,0,459,54.161Z" transform="translate(-326.388 -16.542)"/>
      <path id="Path_4064" data-name="Path 4064" class="cls-1" d="M459,78.161a3.081,3.081,0,1,0-3-3.08A3.037,3.037,0,0,0,459,78.161Z" transform="translate(-326.388 -24.813)"/>
      <path id="Path_4065" data-name="Path 4065" class="cls-1" d="M459,102.161a3.081,3.081,0,1,0-3-3.08A3.037,3.037,0,0,0,459,102.161Z" transform="translate(-326.388 -33.084)"/>
      <path id="Path_4071" data-name="Path 4071" class="cls-1" d="M435,6.16a3.037,3.037,0,0,0,3-3.08,3,3,0,1,0-6,0A3.037,3.037,0,0,0,435,6.16Z" transform="translate(-317.703)"/>
      <path id="Path_4072" data-name="Path 4072" class="cls-1" d="M435,30.161a3.081,3.081,0,1,0-3-3.08A3.037,3.037,0,0,0,435,30.161Z" transform="translate(-317.703 -8.271)"/>
      <path id="Path_4073" data-name="Path 4073" class="cls-1" d="M435,54.161a3.081,3.081,0,1,0-3-3.08A3.037,3.037,0,0,0,435,54.161Z" transform="translate(-317.703 -16.542)"/>
      <path id="Path_4074" data-name="Path 4074" class="cls-1" d="M435,78.161a3.081,3.081,0,1,0-3-3.08A3.037,3.037,0,0,0,435,78.161Z" transform="translate(-317.703 -24.813)"/>
      <path id="Path_4075" data-name="Path 4075" class="cls-1" d="M435,102.161a3.081,3.081,0,1,0-3-3.08A3.037,3.037,0,0,0,435,102.161Z" transform="translate(-317.703 -33.084)"/>
      <path id="Path_4081" data-name="Path 4081" class="cls-1" d="M411,6.16a3.037,3.037,0,0,0,3-3.08,3,3,0,1,0-6,0A3.037,3.037,0,0,0,411,6.16Z" transform="translate(-309.019)"/>
      <path id="Path_4082" data-name="Path 4082" class="cls-1" d="M411,30.161a3.081,3.081,0,1,0-3-3.08A3.037,3.037,0,0,0,411,30.161Z" transform="translate(-309.019 -8.271)"/>
      <path id="Path_4083" data-name="Path 4083" class="cls-1" d="M411,54.161a3.081,3.081,0,1,0-3-3.08A3.037,3.037,0,0,0,411,54.161Z" transform="translate(-309.019 -16.542)"/>
      <path id="Path_4084" data-name="Path 4084" class="cls-1" d="M411,78.161a3.081,3.081,0,1,0-3-3.08A3.037,3.037,0,0,0,411,78.161Z" transform="translate(-309.019 -24.813)"/>
      <path id="Path_4085" data-name="Path 4085" class="cls-1" d="M411,102.161a3.081,3.081,0,1,0-3-3.08A3.037,3.037,0,0,0,411,102.161Z" transform="translate(-309.019 -33.084)"/>
      <path id="Path_4091" data-name="Path 4091" class="cls-1" d="M387,6.16a3.037,3.037,0,0,0,3-3.08,3,3,0,1,0-6,0A3.037,3.037,0,0,0,387,6.16Z" transform="translate(-300.334)"/>
      <path id="Path_4092" data-name="Path 4092" class="cls-1" d="M387,30.161a3.081,3.081,0,1,0-3-3.08A3.037,3.037,0,0,0,387,30.161Z" transform="translate(-300.334 -8.271)"/>
      <path id="Path_4093" data-name="Path 4093" class="cls-1" d="M387,54.161a3.081,3.081,0,1,0-3-3.08A3.037,3.037,0,0,0,387,54.161Z" transform="translate(-300.334 -16.542)"/>
      <path id="Path_4094" data-name="Path 4094" class="cls-1" d="M387,78.161a3.081,3.081,0,1,0-3-3.08A3.037,3.037,0,0,0,387,78.161Z" transform="translate(-300.334 -24.813)"/>
      <path id="Path_4095" data-name="Path 4095" class="cls-1" d="M387,102.161a3.081,3.081,0,1,0-3-3.08A3.037,3.037,0,0,0,387,102.161Z" transform="translate(-300.334 -33.084)"/>
    </g>
    <g id="Ellipse_57" data-name="Ellipse 57" class="cls-2" transform="translate(-8475.764 7289.12)">
      <ellipse class="cls-3" cx="9.243" cy="9.492" rx="9.243" ry="9.492"/>
      <ellipse class="cls-4" cx="9.243" cy="9.492" rx="8.243" ry="8.492"/>
    </g>
  </g>
</svg>
