<svg xmlns="http://www.w3.org/2000/svg" viewBox="0 0 272 7.81">
  <defs>
    <style>
      .cls-1 {
        fill: #fff;
        stroke: #fff;
        stroke-width: 2px;
      }
    </style>
  </defs>
  <g id="Group_2156" data-name="Group 2156" transform="translate(-542 -475.99)">
    <path id="Union_1" data-name="Union 1" class="cls-1" d="M6557.872-2594.453l-.071-.046a9.915,9.915,0,0,0-6.4-2.1,10.015,10.015,0,0,0-6.326,2.054l-.074.048a11.625,11.625,0,0,1-7.1,2.3,11.322,11.322,0,0,1-7.029-2.253l-.071-.046-.078-.05a10,10,0,0,0-6.323-2.052,10.024,10.024,0,0,0-6.328,2.054l-.072.048a11.631,11.631,0,0,1-7.1,2.3,13.012,13.012,0,0,1-7.5-2.3l-.076-.05a9.982,9.982,0,0,0-6.123-2.051h0a10.136,10.136,0,0,0-6.4,2.1,10.373,10.373,0,0,1-6.9,2.3,11.453,11.453,0,0,1-7.1-2.3,9.916,9.916,0,0,0-6.4-2.1,10.138,10.138,0,0,0-6.4,2.1,11.691,11.691,0,0,1-7.1,2.3,11.694,11.694,0,0,1-7.1-2.3,9.918,9.918,0,0,0-6.4-2.1,10.134,10.134,0,0,0-6.4,2.1,11.694,11.694,0,0,1-7.1,2.3,11.452,11.452,0,0,1-7.1-2.3,10.134,10.134,0,0,0-6.4-2.1,10.135,10.135,0,0,0-6.4,2.1,11.692,11.692,0,0,1-7.1,2.3,11.453,11.453,0,0,1-7.1-2.3,10.136,10.136,0,0,0-6.4-2.1,10.133,10.133,0,0,0-6.4,2.1,11.691,11.691,0,0,1-7.1,2.3,11.454,11.454,0,0,1-7.1-2.3,9.918,9.918,0,0,0-6.4-2.1,10.141,10.141,0,0,0-6.4,2.1,11.683,11.683,0,0,1-7.1,2.3,11.452,11.452,0,0,1-7.1-2.3,10.138,10.138,0,0,0-6.4-2.1,10.139,10.139,0,0,0-6.4,2.1,11.689,11.689,0,0,1-7.1,2.3,13.069,13.069,0,0,1-7.5-2.3,10.133,10.133,0,0,0-6.4-2.1v-1.4a11.446,11.446,0,0,1,7.1,2.3,10.143,10.143,0,0,0,6.4,2.1,10.146,10.146,0,0,0,6.4-2.1,12.018,12.018,0,0,1,7.2-2.3,11.443,11.443,0,0,1,7.1,2.3,10.15,10.15,0,0,0,6.4,2.1,10.15,10.15,0,0,0,6.4-2.1,11.442,11.442,0,0,1,7.1-2.3,11.438,11.438,0,0,1,7.1,2.3,9.93,9.93,0,0,0,6.4,2.1,10.152,10.152,0,0,0,6.4-2.1,12.012,12.012,0,0,1,7.2-2.3,11.441,11.441,0,0,1,7.1,2.3,10.148,10.148,0,0,0,6.4,2.1,10.149,10.149,0,0,0,6.4-2.1,11.673,11.673,0,0,1,7.1-2.3,11.442,11.442,0,0,1,7.1,2.3,10.147,10.147,0,0,0,6.4,2.1,10.15,10.15,0,0,0,6.4-2.1,11.675,11.675,0,0,1,7.1-2.3,11.442,11.442,0,0,1,7.1,2.3,9.93,9.93,0,0,0,6.4,2.1,10.152,10.152,0,0,0,6.4-2.1,11.678,11.678,0,0,1,7.1-2.3,11.436,11.436,0,0,1,7.1,2.3,9.933,9.933,0,0,0,6.4,2.1,10.149,10.149,0,0,0,6.4-2.1,11.68,11.68,0,0,1,6.9-2.3h.2a11.3,11.3,0,0,1,6.828,2.252l.072.046.071.046a10.006,10.006,0,0,0,6.329,2.054,10.009,10.009,0,0,0,6.323-2.05l.076-.05.223-.135A11.726,11.726,0,0,1,6524.1-2598a11.32,11.32,0,0,1,7.029,2.253l.073.046.071.046a10,10,0,0,0,6.328,2.054,10.011,10.011,0,0,0,6.324-2.05l.076-.05.067-.043A11.309,11.309,0,0,1,6551.1-2598a11.32,11.32,0,0,1,7.031,2.255l.069.045a9.911,9.911,0,0,0,6.4,2.1,10.008,10.008,0,0,0,6.328-2.054l.071-.046.221-.135A11.742,11.742,0,0,1,6578-2598v1.4a10.106,10.106,0,0,0-5.927,2.045l-.074.05a11.624,11.624,0,0,1-7.1,2.3A11.319,11.319,0,0,1,6557.872-2594.453Z" transform="translate(-5765 3075)"/>
  </g>
</svg>
