<svg id="Group_2416" data-name="Group 2416" xmlns="http://www.w3.org/2000/svg" viewBox="0 0 42.28 29.739">
  <defs>
    <style>
      .cls-1 {
        fill: #3d3d3d;
      }
    </style>
  </defs>
  <path id="Path_4915" data-name="Path 4915" class="cls-1" d="M14.891,14.072c-.142.142-.276.293-.418.427-.213.2-.418.4-.622.6-.409.409-.8.827-1.182,1.262-.667.747-1.307,1.52-1.938,2.294a33.1,33.1,0,0,0-4.988,8.393,5.408,5.408,0,0,1-1.351,2.063A2.665,2.665,0,0,1,.24,28,6,6,0,0,1,.1,24.812,54.424,54.424,0,0,1,4.027,13.13,54.467,54.467,0,0,1,9.717,2.879,10.726,10.726,0,0,1,11.744.6a2.567,2.567,0,0,1,3.965.685,2.942,2.942,0,0,1,.053,2.374,15.079,15.079,0,0,1-1.618,3.094c-.453.782-.907,1.565-1.342,2.347-.187.329-.365.658-.542,1-.124.24-.267.462-.409.693a2.466,2.466,0,0,0-.2.329c-.018.053-.027.116-.044.169-.009.027,0,.178-.018.187a3.593,3.593,0,0,0,.685-.738c.213-.284.436-.56.667-.836.284-.338.569-.676.862-1.014.578-.676,1.156-1.351,1.751-2.009.569-.622,1.138-1.245,1.734-1.84a14.074,14.074,0,0,1,3.236-2.6,3.363,3.363,0,0,1,3.094-.391,2.639,2.639,0,0,1,1.44,3.218,12.176,12.176,0,0,1-1.351,3.076c-.436.809-.88,1.618-1.325,2.418-.169.3-.347.6-.507.916-.036.08-.089.151-.116.231a.225.225,0,0,0-.018.107c0,.009.027.116.027.116a10.341,10.341,0,0,0,1.138-1.2C24.52,9.28,26.067,7.573,27.8,6.053A24.641,24.641,0,0,1,31.623,3.03,3.487,3.487,0,0,1,36.54,4.053a3.265,3.265,0,0,1,0,3.494,25.946,25.946,0,0,1-2.525,3.681,55.019,55.019,0,0,0-4.2,6.366A8.92,8.92,0,0,0,28.8,20.136c-.187,1,.382,1.547,1.378,1.289a5.214,5.214,0,0,0,2.232-1.467,49.879,49.879,0,0,0,5.672-7.139,4.726,4.726,0,0,1,1.12-1.182,1.96,1.96,0,0,1,2.854.729,2.721,2.721,0,0,1,.071,1.743A14.979,14.979,0,0,1,39.776,19a33.157,33.157,0,0,1-5.05,6.037,15.631,15.631,0,0,1-5.521,3.538,5.59,5.59,0,0,1-5-.267,4.677,4.677,0,0,1-2.276-4.027,14.241,14.241,0,0,1,2.276-8.064c.2-.329.4-.658.6-.987a9.079,9.079,0,0,1,.587-.934c-.2-.071-.284,0-.427.133a31.864,31.864,0,0,0-2.32,2.329,27.577,27.577,0,0,0-1.983,2.552c-.613.889-1.191,1.8-1.725,2.747h0A38.65,38.65,0,0,1,16.1,26.644a2.763,2.763,0,0,1-3.032,1.014,3,3,0,0,1-1.983-2.445,8.8,8.8,0,0,1,.756-4.045,42.315,42.315,0,0,1,3.174-6.428c.187-.329.418-.613.587-.951.071-.142.124-.3.2-.436-.018.044-.187.107-.231.133A3.916,3.916,0,0,0,14.891,14.072Z" transform="translate(0.049 0.04)"/>
</svg>
