<svg xmlns="http://www.w3.org/2000/svg" viewBox="0 0 94.414 162.916">
  <defs>
    <style>
      .cls-1 {
        fill: #fff;
      }

      .cls-2 {
        fill: #001d00;
      }
    </style>
  </defs>
  <g id="Group_2284" data-name="Group 2284" transform="translate(-12 -997.132)">
    <g id="Group_2225" data-name="Group 2225" transform="translate(-276 911.138)">
      <path id="Path_4095" data-name="Path 4095" class="cls-1" d="M388.21,104.42a4.21,4.21,0,1,0-4.21-4.21A4.205,4.205,0,0,0,388.21,104.42Z" transform="translate(-10.006 -10.006)"/>
      <path id="Path_4096" data-name="Path 4096" class="cls-1" d="M388.21,128.42a4.21,4.21,0,1,0-4.21-4.21A4.205,4.205,0,0,0,388.21,128.42Z" transform="translate(-10.006 -12.507)"/>
      <path id="Path_4097" data-name="Path 4097" class="cls-1" d="M388.21,152.42a4.21,4.21,0,1,0-4.21-4.21A4.205,4.205,0,0,0,388.21,152.42Z" transform="translate(-10.006 -15.009)"/>
      <path id="Path_4098" data-name="Path 4098" class="cls-1" d="M388.21,176.42a4.21,4.21,0,1,0-4.21-4.21A4.205,4.205,0,0,0,388.21,176.42Z" transform="translate(-10.006 -17.51)"/>
      <path id="Path_4105" data-name="Path 4105" class="cls-1" d="M364.21,104.42a4.21,4.21,0,1,0-4.21-4.21A4.205,4.205,0,0,0,364.21,104.42Z" transform="translate(-7.504 -10.006)"/>
      <path id="Path_4106" data-name="Path 4106" class="cls-1" d="M364.21,128.42a4.21,4.21,0,1,0-4.21-4.21A4.205,4.205,0,0,0,364.21,128.42Z" transform="translate(-7.504 -12.507)"/>
      <path id="Path_4107" data-name="Path 4107" class="cls-1" d="M364.21,152.42a4.21,4.21,0,1,0-4.21-4.21A4.205,4.205,0,0,0,364.21,152.42Z" transform="translate(-7.504 -15.009)"/>
      <path id="Path_4108" data-name="Path 4108" class="cls-1" d="M364.21,176.42a4.21,4.21,0,1,0-4.21-4.21A4.205,4.205,0,0,0,364.21,176.42Z" transform="translate(-7.504 -17.51)"/>
      <path id="Path_4115" data-name="Path 4115" class="cls-1" d="M340.21,104.42a4.21,4.21,0,1,0-4.21-4.21A4.205,4.205,0,0,0,340.21,104.42Z" transform="translate(-5.003 -10.006)"/>
      <path id="Path_4116" data-name="Path 4116" class="cls-1" d="M340.21,128.42a4.21,4.21,0,1,0-4.21-4.21A4.205,4.205,0,0,0,340.21,128.42Z" transform="translate(-5.003 -12.507)"/>
      <path id="Path_4117" data-name="Path 4117" class="cls-1" d="M340.21,152.42a4.21,4.21,0,1,0-4.21-4.21A4.205,4.205,0,0,0,340.21,152.42Z" transform="translate(-5.003 -15.009)"/>
      <path id="Path_4118" data-name="Path 4118" class="cls-1" d="M340.21,176.42a4.21,4.21,0,1,0-4.21-4.21A4.205,4.205,0,0,0,340.21,176.42Z" transform="translate(-5.003 -17.51)"/>
      <path id="Path_4125" data-name="Path 4125" class="cls-1" d="M316.21,104.42a4.21,4.21,0,1,0-4.21-4.21A4.205,4.205,0,0,0,316.21,104.42Z" transform="translate(-2.501 -10.006)"/>
      <path id="Path_4126" data-name="Path 4126" class="cls-1" d="M316.21,128.42a4.21,4.21,0,1,0-4.21-4.21A4.205,4.205,0,0,0,316.21,128.42Z" transform="translate(-2.501 -12.507)"/>
      <path id="Path_4127" data-name="Path 4127" class="cls-1" d="M316.21,152.42a4.21,4.21,0,1,0-4.21-4.21A4.205,4.205,0,0,0,316.21,152.42Z" transform="translate(-2.501 -15.009)"/>
      <path id="Path_4128" data-name="Path 4128" class="cls-1" d="M316.21,176.42a4.21,4.21,0,1,0-4.21-4.21A4.205,4.205,0,0,0,316.21,176.42Z" transform="translate(-2.501 -17.51)"/>
      <path id="Path_4135" data-name="Path 4135" class="cls-1" d="M292.21,104.42a4.21,4.21,0,1,0-4.21-4.21A4.205,4.205,0,0,0,292.21,104.42Z" transform="translate(0 -10.006)"/>
      <path id="Path_4136" data-name="Path 4136" class="cls-1" d="M292.21,128.42a4.21,4.21,0,1,0-4.21-4.21A4.205,4.205,0,0,0,292.21,128.42Z" transform="translate(0 -12.507)"/>
      <path id="Path_4137" data-name="Path 4137" class="cls-1" d="M292.21,152.42a4.21,4.21,0,1,0-4.21-4.21A4.205,4.205,0,0,0,292.21,152.42Z" transform="translate(0 -15.009)"/>
      <path id="Path_4138" data-name="Path 4138" class="cls-1" d="M292.21,176.42a4.21,4.21,0,1,0-4.21-4.21A4.205,4.205,0,0,0,292.21,176.42Z" transform="translate(0 -17.51)"/>
    </g>
    <g id="Group_2283" data-name="Group 2283" transform="translate(-276 1001.138)">
      <path id="Path_4095-2" data-name="Path 4095" class="cls-2" d="M388.21,104.42a4.21,4.21,0,1,0-4.21-4.21A4.205,4.205,0,0,0,388.21,104.42Z" transform="translate(-10.006 -10.006)"/>
      <path id="Path_4096-2" data-name="Path 4096" class="cls-2" d="M388.21,128.42a4.21,4.21,0,1,0-4.21-4.21A4.205,4.205,0,0,0,388.21,128.42Z" transform="translate(-10.006 -12.507)"/>
      <path id="Path_4097-2" data-name="Path 4097" class="cls-2" d="M388.21,152.42a4.21,4.21,0,1,0-4.21-4.21A4.205,4.205,0,0,0,388.21,152.42Z" transform="translate(-10.006 -15.009)"/>
      <path id="Path_4098-2" data-name="Path 4098" class="cls-2" d="M388.21,176.42a4.21,4.21,0,1,0-4.21-4.21A4.205,4.205,0,0,0,388.21,176.42Z" transform="translate(-10.006 -17.51)"/>
      <path id="Path_4105-2" data-name="Path 4105" class="cls-2" d="M364.21,104.42a4.21,4.21,0,1,0-4.21-4.21A4.205,4.205,0,0,0,364.21,104.42Z" transform="translate(-7.504 -10.006)"/>
      <path id="Path_4106-2" data-name="Path 4106" class="cls-2" d="M364.21,128.42a4.21,4.21,0,1,0-4.21-4.21A4.205,4.205,0,0,0,364.21,128.42Z" transform="translate(-7.504 -12.507)"/>
      <path id="Path_4107-2" data-name="Path 4107" class="cls-2" d="M364.21,152.42a4.21,4.21,0,1,0-4.21-4.21A4.205,4.205,0,0,0,364.21,152.42Z" transform="translate(-7.504 -15.009)"/>
      <path id="Path_4108-2" data-name="Path 4108" class="cls-2" d="M364.21,176.42a4.21,4.21,0,1,0-4.21-4.21A4.205,4.205,0,0,0,364.21,176.42Z" transform="translate(-7.504 -17.51)"/>
      <path id="Path_4115-2" data-name="Path 4115" class="cls-2" d="M340.21,104.42a4.21,4.21,0,1,0-4.21-4.21A4.205,4.205,0,0,0,340.21,104.42Z" transform="translate(-5.003 -10.006)"/>
      <path id="Path_4116-2" data-name="Path 4116" class="cls-2" d="M340.21,128.42a4.21,4.21,0,1,0-4.21-4.21A4.205,4.205,0,0,0,340.21,128.42Z" transform="translate(-5.003 -12.507)"/>
      <path id="Path_4117-2" data-name="Path 4117" class="cls-2" d="M340.21,152.42a4.21,4.21,0,1,0-4.21-4.21A4.205,4.205,0,0,0,340.21,152.42Z" transform="translate(-5.003 -15.009)"/>
      <path id="Path_4118-2" data-name="Path 4118" class="cls-2" d="M340.21,176.42a4.21,4.21,0,1,0-4.21-4.21A4.205,4.205,0,0,0,340.21,176.42Z" transform="translate(-5.003 -17.51)"/>
      <path id="Path_4125-2" data-name="Path 4125" class="cls-2" d="M316.21,104.42a4.21,4.21,0,1,0-4.21-4.21A4.205,4.205,0,0,0,316.21,104.42Z" transform="translate(-2.501 -10.006)"/>
      <path id="Path_4126-2" data-name="Path 4126" class="cls-2" d="M316.21,128.42a4.21,4.21,0,1,0-4.21-4.21A4.205,4.205,0,0,0,316.21,128.42Z" transform="translate(-2.501 -12.507)"/>
      <path id="Path_4127-2" data-name="Path 4127" class="cls-2" d="M316.21,152.42a4.21,4.21,0,1,0-4.21-4.21A4.205,4.205,0,0,0,316.21,152.42Z" transform="translate(-2.501 -15.009)"/>
      <path id="Path_4128-2" data-name="Path 4128" class="cls-2" d="M316.21,176.42a4.21,4.21,0,1,0-4.21-4.21A4.205,4.205,0,0,0,316.21,176.42Z" transform="translate(-2.501 -17.51)"/>
      <path id="Path_4135-2" data-name="Path 4135" class="cls-2" d="M292.21,104.42a4.21,4.21,0,1,0-4.21-4.21A4.205,4.205,0,0,0,292.21,104.42Z" transform="translate(0 -10.006)"/>
      <path id="Path_4136-2" data-name="Path 4136" class="cls-2" d="M292.21,128.42a4.21,4.21,0,1,0-4.21-4.21A4.205,4.205,0,0,0,292.21,128.42Z" transform="translate(0 -12.507)"/>
      <path id="Path_4137-2" data-name="Path 4137" class="cls-2" d="M292.21,152.42a4.21,4.21,0,1,0-4.21-4.21A4.205,4.205,0,0,0,292.21,152.42Z" transform="translate(0 -15.009)"/>
      <path id="Path_4138-2" data-name="Path 4138" class="cls-2" d="M292.21,176.42a4.21,4.21,0,1,0-4.21-4.21A4.205,4.205,0,0,0,292.21,176.42Z" transform="translate(0 -17.51)"/>
    </g>
  </g>
</svg>
