<svg xmlns="http://www.w3.org/2000/svg" viewBox="0 0 191.2 7.8">
  <defs>
    <style>
      .cls-1 {
        fill: #5415c2;
        stroke: #5415c2;
        stroke-width: 2px;
      }
    </style>
  </defs>
  <g id="XMLID_1_" transform="translate(1 1)">
    <path id="Path_4139" data-name="Path 4139" class="cls-1" d="M175.9,5.8a11.448,11.448,0,0,1-7.1-2.3,9.926,9.926,0,0,0-6.4-2.1A10.143,10.143,0,0,0,156,3.5a11.686,11.686,0,0,1-7.1,2.3,11.686,11.686,0,0,1-7.1-2.3,9.926,9.926,0,0,0-6.4-2.1A10.143,10.143,0,0,0,129,3.5a11.686,11.686,0,0,1-7.1,2.3,11.448,11.448,0,0,1-7.1-2.3,10.8,10.8,0,0,0-12.8,0,11.686,11.686,0,0,1-7.1,2.3,11.448,11.448,0,0,1-7.1-2.3A10.8,10.8,0,0,0,75,3.5a11.686,11.686,0,0,1-7.1,2.3,11.448,11.448,0,0,1-7.1-2.3,9.926,9.926,0,0,0-6.4-2.1A10.143,10.143,0,0,0,48,3.5a11.686,11.686,0,0,1-7.1,2.3,11.448,11.448,0,0,1-7.1-2.3,10.143,10.143,0,0,0-6.4-2.1A10.143,10.143,0,0,0,21,3.5a11.686,11.686,0,0,1-7.1,2.3A13.063,13.063,0,0,1,6.4,3.5,10.143,10.143,0,0,0,0,1.4V0A11.448,11.448,0,0,1,7.1,2.3a10.143,10.143,0,0,0,6.4,2.1,10.143,10.143,0,0,0,6.4-2.1A12.022,12.022,0,0,1,27.1,0a11.448,11.448,0,0,1,7.1,2.3,10.143,10.143,0,0,0,6.4,2.1A10.143,10.143,0,0,0,47,2.3a12.109,12.109,0,0,1,14.2,0,9.926,9.926,0,0,0,6.4,2.1A10.143,10.143,0,0,0,74,2.3,12.022,12.022,0,0,1,81.2,0a11.448,11.448,0,0,1,7.1,2.3,10.143,10.143,0,0,0,6.4,2.1,10.143,10.143,0,0,0,6.4-2.1A11.686,11.686,0,0,1,108.2,0a11.448,11.448,0,0,1,7.1,2.3,10.143,10.143,0,0,0,6.4,2.1,10.143,10.143,0,0,0,6.4-2.1A11.686,11.686,0,0,1,135.2,0a11.448,11.448,0,0,1,7.1,2.3,9.926,9.926,0,0,0,6.4,2.1,10.143,10.143,0,0,0,6.4-2.1A11.686,11.686,0,0,1,162.2,0a11.448,11.448,0,0,1,7.1,2.3,9.926,9.926,0,0,0,6.4,2.1,10.143,10.143,0,0,0,6.4-2.1A11.686,11.686,0,0,1,189.2,0V1.4a10.143,10.143,0,0,0-6.4,2.1A10.368,10.368,0,0,1,175.9,5.8Z"/>
  </g>
</svg>
