<svg xmlns="http://www.w3.org/2000/svg" viewBox="0 0 108.451 99.182"><defs><style>.cls-1{fill:#015151}.cls-2,.cls-4{fill:none}.cls-2{stroke:#f98e6d;stroke-width:2px;opacity:.71}.cls-3{stroke:none}</style></defs><g id="Group_2698" data-name="Group 2698" transform="translate(8565.729 -7289.12)"><g id="Group_2152" data-name="Group 2152" transform="translate(-8649.396 7319.226)"><path id="Path_4041" d="M507,0a3.037,3.037,0,0,0-3,3.08,3,3,0,1,0,6,0A3.037,3.037,0,0,0,507,0Z" class="cls-1" data-name="Path 4041" transform="translate(-343.757)"/><path id="Path_4042" d="M507,30.161a3.081,3.081,0,1,0-3-3.08A3.037,3.037,0,0,0,507,30.161Z" class="cls-1" data-name="Path 4042" transform="translate(-343.757 -8.271)"/><path id="Path_4043" d="M507,54.161a3.081,3.081,0,1,0-3-3.08A3.037,3.037,0,0,0,507,54.161Z" class="cls-1" data-name="Path 4043" transform="translate(-343.757 -16.542)"/><path id="Path_4044" d="M507,78.161a3.081,3.081,0,1,0-3-3.08A3.037,3.037,0,0,0,507,78.161Z" class="cls-1" data-name="Path 4044" transform="translate(-343.757 -24.813)"/><path id="Path_4045" d="M507,102.161a3.081,3.081,0,1,0-3-3.08A3.037,3.037,0,0,0,507,102.161Z" class="cls-1" data-name="Path 4045" transform="translate(-343.757 -33.084)"/><path id="Path_4051" d="M483,6.16a3.037,3.037,0,0,0,3-3.08,3,3,0,1,0-6,0A3.037,3.037,0,0,0,483,6.16Z" class="cls-1" data-name="Path 4051" transform="translate(-335.072)"/><path id="Path_4052" d="M483,30.161a3.081,3.081,0,1,0-3-3.08A3.037,3.037,0,0,0,483,30.161Z" class="cls-1" data-name="Path 4052" transform="translate(-335.072 -8.271)"/><path id="Path_4053" d="M483,54.161a3.081,3.081,0,1,0-3-3.08A3.037,3.037,0,0,0,483,54.161Z" class="cls-1" data-name="Path 4053" transform="translate(-335.072 -16.542)"/><path id="Path_4054" d="M483,78.161a3.081,3.081,0,1,0-3-3.08A3.037,3.037,0,0,0,483,78.161Z" class="cls-1" data-name="Path 4054" transform="translate(-335.072 -24.813)"/><path id="Path_4055" d="M483,102.161a3.081,3.081,0,1,0-3-3.08A3.037,3.037,0,0,0,483,102.161Z" class="cls-1" data-name="Path 4055" transform="translate(-335.072 -33.084)"/><path id="Path_4061" d="M459,6.16a3.037,3.037,0,0,0,3-3.08,3,3,0,1,0-6,0A3.037,3.037,0,0,0,459,6.16Z" class="cls-1" data-name="Path 4061" transform="translate(-326.388)"/><path id="Path_4062" d="M459,30.161a3.081,3.081,0,1,0-3-3.08A3.037,3.037,0,0,0,459,30.161Z" class="cls-1" data-name="Path 4062" transform="translate(-326.388 -8.271)"/><path id="Path_4063" d="M459,54.161a3.081,3.081,0,1,0-3-3.08A3.037,3.037,0,0,0,459,54.161Z" class="cls-1" data-name="Path 4063" transform="translate(-326.388 -16.542)"/><path id="Path_4064" d="M459,78.161a3.081,3.081,0,1,0-3-3.08A3.037,3.037,0,0,0,459,78.161Z" class="cls-1" data-name="Path 4064" transform="translate(-326.388 -24.813)"/><path id="Path_4065" d="M459,102.161a3.081,3.081,0,1,0-3-3.08A3.037,3.037,0,0,0,459,102.161Z" class="cls-1" data-name="Path 4065" transform="translate(-326.388 -33.084)"/><path id="Path_4071" d="M435,6.16a3.037,3.037,0,0,0,3-3.08,3,3,0,1,0-6,0A3.037,3.037,0,0,0,435,6.16Z" class="cls-1" data-name="Path 4071" transform="translate(-317.703)"/><path id="Path_4072" d="M435,30.161a3.081,3.081,0,1,0-3-3.08A3.037,3.037,0,0,0,435,30.161Z" class="cls-1" data-name="Path 4072" transform="translate(-317.703 -8.271)"/><path id="Path_4073" d="M435,54.161a3.081,3.081,0,1,0-3-3.08A3.037,3.037,0,0,0,435,54.161Z" class="cls-1" data-name="Path 4073" transform="translate(-317.703 -16.542)"/><path id="Path_4074" d="M435,78.161a3.081,3.081,0,1,0-3-3.08A3.037,3.037,0,0,0,435,78.161Z" class="cls-1" data-name="Path 4074" transform="translate(-317.703 -24.813)"/><path id="Path_4075" d="M435,102.161a3.081,3.081,0,1,0-3-3.08A3.037,3.037,0,0,0,435,102.161Z" class="cls-1" data-name="Path 4075" transform="translate(-317.703 -33.084)"/><path id="Path_4081" d="M411,6.16a3.037,3.037,0,0,0,3-3.08,3,3,0,1,0-6,0A3.037,3.037,0,0,0,411,6.16Z" class="cls-1" data-name="Path 4081" transform="translate(-309.019)"/><path id="Path_4082" d="M411,30.161a3.081,3.081,0,1,0-3-3.08A3.037,3.037,0,0,0,411,30.161Z" class="cls-1" data-name="Path 4082" transform="translate(-309.019 -8.271)"/><path id="Path_4083" d="M411,54.161a3.081,3.081,0,1,0-3-3.08A3.037,3.037,0,0,0,411,54.161Z" class="cls-1" data-name="Path 4083" transform="translate(-309.019 -16.542)"/><path id="Path_4084" d="M411,78.161a3.081,3.081,0,1,0-3-3.08A3.037,3.037,0,0,0,411,78.161Z" class="cls-1" data-name="Path 4084" transform="translate(-309.019 -24.813)"/><path id="Path_4085" d="M411,102.161a3.081,3.081,0,1,0-3-3.08A3.037,3.037,0,0,0,411,102.161Z" class="cls-1" data-name="Path 4085" transform="translate(-309.019 -33.084)"/><path id="Path_4091" d="M387,6.16a3.037,3.037,0,0,0,3-3.08,3,3,0,1,0-6,0A3.037,3.037,0,0,0,387,6.16Z" class="cls-1" data-name="Path 4091" transform="translate(-300.334)"/><path id="Path_4092" d="M387,30.161a3.081,3.081,0,1,0-3-3.08A3.037,3.037,0,0,0,387,30.161Z" class="cls-1" data-name="Path 4092" transform="translate(-300.334 -8.271)"/><path id="Path_4093" d="M387,54.161a3.081,3.081,0,1,0-3-3.08A3.037,3.037,0,0,0,387,54.161Z" class="cls-1" data-name="Path 4093" transform="translate(-300.334 -16.542)"/><path id="Path_4094" d="M387,78.161a3.081,3.081,0,1,0-3-3.08A3.037,3.037,0,0,0,387,78.161Z" class="cls-1" data-name="Path 4094" transform="translate(-300.334 -24.813)"/><path id="Path_4095" d="M387,102.161a3.081,3.081,0,1,0-3-3.08A3.037,3.037,0,0,0,387,102.161Z" class="cls-1" data-name="Path 4095" transform="translate(-300.334 -33.084)"/></g><g id="Ellipse_57" class="cls-2" data-name="Ellipse 57" transform="translate(-8475.764 7289.12)"><ellipse cx="9.243" cy="9.492" class="cls-3" rx="9.243" ry="9.492"/><ellipse cx="9.243" cy="9.492" class="cls-4" rx="8.243" ry="8.492"/></g></g></svg>