<?xml version="1.0" encoding="utf-8"?>
<!-- Generator: Adobe Illustrator 22.1.0, SVG Export Plug-In . SVG Version: 6.00 Build 0)  -->
<svg version="1.1" id="Capa_1" xmlns="http://www.w3.org/2000/svg" xmlns:xlink="http://www.w3.org/1999/xlink" x="0px" y="0px"
	 viewBox="0 0 49.5 88.4" style="enable-background:new 0 0 49.5 88.4;" xml:space="preserve">
<style type="text/css">
	.st0{fill:#008787;}
	.st1{fill:none;stroke:#008787;stroke-width:2;stroke-linecap:round;stroke-miterlimit:10;}
	.st2{fill:#00D2D2;}
</style>
<g>
	<path class="st0" d="M18.9,18.4L18.9,18.4c-1.5,0-2.7,1.3-2.7,2.8c0,0,0,0,0,0.1c0,0.4,0.3,0.7,0.7,0.7c0.4,0,0.7-0.3,0.7-0.7l0,0
		c0-0.7,0.6-1.3,1.3-1.3l0,0c0.4,0,0.7-0.3,0.7-0.7l0,0C19.6,18.7,19.3,18.4,18.9,18.4z"/>
	<path class="st0" d="M32.6,27C32.7,27,32.7,27,32.6,27C32.7,27,32.7,27,32.6,27c1.6,0,2.8-1.3,2.8-2.8c0,0,0,0,0-0.1
		c0-0.2-0.1-0.4-0.2-0.5c-0.1-0.1-0.3-0.2-0.5-0.2c-0.4,0-0.7,0.3-0.7,0.7c0,0.7-0.6,1.3-1.3,1.3l0,0l0,0c-0.4,0-0.7,0.3-0.7,0.7
		l0,0l0,0C32,26.6,32.3,27,32.6,27z"/>
	<path class="st0" d="M49.3,43c-1-5.7-5.5-10.2-11.2-11.2c-3.3-0.5-6.6,0.2-9.3,1.9v-7.3c0.7,2,2.6,3.2,4.7,3.1
		c2.5-0.2,4.4-2.2,4.5-4.7c0.1-1.3-0.4-2.6-1.3-3.6c-0.9-1-2.1-1.5-3.5-1.5h-4.4V4.2C28.9,2,27.1,0.1,24.9,0s-4.1,1.7-4.2,3.9
		c0,0.1,0,0.2,0,0.3v12.3c-0.7-0.4-1.4-0.6-2.2-0.6c-1.7,0-3.2,0.9-4.1,2.3c-1.4,2.3-0.7,5.3,1.7,6.8c0.8,0.5,1.6,0.7,2.5,0.7h2.1v8
		c-2.9-1.8-6.4-2.5-9.9-1.7C7,32.9,3.9,35.1,2,38.4c-2,3.5-2.5,7.5-1.3,11.5c1,3.2,2.6,6.2,4.6,8.9c3.8,4.9,8.2,9.2,13.3,12.7
		c1.1,0.8,2.3,1.4,3.4,2.1c0.3,0.2,0.7,0.4,1,0.6c0.5,0.3,1.2,0.5,1.8,0.5c0.6,0,1.1-0.1,1.6-0.4c0.2-0.1,0.5-0.3,0.8-0.4
		c0.5-0.3,1-0.5,1.5-0.8c4.9-3.1,9.3-6.8,13.1-11.2c2.6-2.8,4.7-6,6.2-9.4C49.3,49.5,49.8,46.3,49.3,43z M25.2,2.1
		c1,0.2,1.6,1.1,1.6,2.1V6l-4.1-2.3C23,2.5,24.1,1.8,25.2,2.1z M22.7,5.2l4.1,2.4v3.6l-4.1-2.3V5.2z M22.7,10.5l4.1,2.4v3.6
		l-4.1-2.4V10.5z M22.7,15.8l4.1,2.4v1.5h-3c-0.4,0-0.7-0.2-0.9-0.6c-0.1-0.2-0.2-0.5-0.3-0.7L22.7,15.8L22.7,15.8z M18.5,23.6
		c-1.6,0-2.9-1.3-2.9-2.9c0-0.5,0.1-1,0.4-1.5c0.5-0.8,1.4-1.4,2.4-1.3c1.2,0,2.2,0.8,2.6,1.9c0.4,1.2,1.5,2,2.7,2h9.4
		c0.8,0,1.5,0.3,2,0.9s0.8,1.3,0.8,2.1c-0.1,1.4-1.2,2.6-2.6,2.7h-0.1c-1.2,0-2.2-0.8-2.6-1.9c-0.4-1.2-1.5-2-2.8-2h-0.1
		C27.7,23.6,18.5,23.6,18.5,23.6z M22.7,25.7H24v5.1c0,0.4,0.3,0.7,0.7,0.7c0.4,0,0.7-0.3,0.7-0.7c0,0,0,0,0-0.1v-5.1h1.3v9.7
		c-0.5,0.4-0.9,0.9-1.3,1.4v-2.3c0,0,0,0,0-0.1c0-0.4-0.3-0.7-0.7-0.7c-0.4,0-0.7,0.3-0.7,0.7v2.3c-0.4-0.5-0.9-1.1-1.4-1.5v-9.4
		H22.7z M46.1,51.7c-1.5,3.3-3.4,6.3-5.9,8.9c-3.7,4.2-8,7.8-12.7,10.8c-0.4,0.3-0.9,0.5-1.3,0.7c-0.3,0.1-0.5,0.3-0.8,0.4
		c-0.4,0.2-0.9,0.2-1.4,0c-0.3-0.2-0.7-0.4-1-0.6c-1.1-0.6-2.2-1.3-3.2-2c-4.9-3.4-9.3-7.6-12.9-12.3c-1.9-2.5-3.4-5.2-4.3-8.2
		c-1-3.4-0.6-7,1.1-9.9c1.6-2.8,4.3-4.8,7.5-5.5c0.8-0.2,1.6-0.3,2.4-0.3c4.1,0,7.9,2.2,9.9,5.9l0.1,0.2c0.1,0.1,0.1,0.3,0.2,0.5
		l0.9,1.5l0.9-1.5c0.1-0.2,0.2-0.3,0.3-0.5c2.3-4.3,7.1-6.7,11.8-5.9c4.9,0.8,8.7,4.7,9.5,9.5C47.8,46.2,47.4,49.1,46.1,51.7z"/>
</g>
<g id="Group_2148" transform="translate(19.61 49.294)">
	<path id="Path_4707" class="st0" d="M7.1,11.2l-1.4-0.8V0H4.3v10.5L3,11.2V0H1v12.7c0,0.2,0.1,0.4,0.2,0.6l3.1,4.8
		c0.2,0.3,0.5,0.5,0.8,0.5s0.6-0.2,0.8-0.5L9,13.3c0.1-0.2,0.2-0.4,0.2-0.6V0h-2L7.1,11.2z"/>
</g>
<line id="Line_21" class="st1" x1="13.8" y1="49.3" x2="35.7" y2="49.3"/>
<path id="Path_4708" class="st2" d="M28.3,84.6c0,0.7-0.1,1.4-0.6,2.1c-0.7,1-1.8,1.5-3,1.5c-1.2,0-2.3-0.6-2.9-1.5
	c-0.8-1.2-0.7-2.6-0.2-3.9c0.5-1.3,1.3-2.6,2.2-3.6c0.2-0.3,0.8-1.2,1.1-0.8c0.2,0.2,0.3,0.3,0.5,0.5c0.7,0.9,1.3,1.8,1.8,2.7
	C27.7,82.5,28.2,83.5,28.3,84.6z"/>
</svg>
