<svg xmlns="http://www.w3.org/2000/svg" xmlns:xlink="http://www.w3.org/1999/xlink" viewBox="0 0 164.707 210.236">
  <defs>
    <style>
      .cls-1 {
        fill: url(#linear-gradient);
      }

      .cls-2 {
        fill: #fff;
      }

      .cls-3 {
        fill: url(#linear-gradient-2);
      }

      .cls-4 {
        fill: url(#linear-gradient-3);
      }

      .cls-5 {
        fill: #013a38;
      }

      .cls-6 {
        fill: #ffc8a9;
      }

      .cls-7 {
        fill: #00262a;
      }
    </style>
    <linearGradient id="linear-gradient" x1="0.548" y1="-0.051" x2="0.682" y2="0.854" gradientUnits="objectBoundingBox">
      <stop offset="0" stop-color="#008c9b"/>
      <stop offset="1" stop-color="#02233a"/>
    </linearGradient>
    <linearGradient id="linear-gradient-2" x1="-0.258" y1="0.331" x2="0.465" y2="0.102" gradientUnits="objectBoundingBox">
      <stop offset="0" stop-color="#2e8888"/>
      <stop offset="1" stop-color="#013449"/>
    </linearGradient>
    <linearGradient id="linear-gradient-3" x1="0.5" y1="-0.178" x2="0.874" y2="0.571" gradientUnits="objectBoundingBox">
      <stop offset="0" stop-color="#008392"/>
      <stop offset="1" stop-color="#012434"/>
    </linearGradient>
  </defs>
  <g id="Group_1013" data-name="Group 1013" transform="translate(-0.02 0.008)">
    <g id="Group_1010" data-name="Group 1010" transform="translate(64.961 13.168)">
      <path id="Path_4140" data-name="Path 4140" class="cls-1" d="M87.76,140.784c15.917-2.476,52.232-20.4,36.433-31.717s2.594-21.93,15.564-25.7,18.275-17.686,4.716-23.11-4.009-13.205,6.956-24.289c8.018-8.018,1.179-27.826-12.026-24.407C118.3,16.865,113.935,54.006,106.271,42.8c-4.952-7.192-17.8-10.258-18.629,3.537s-3.183,37.73-10.847,33.014-14.738-4.363-18.04,10.494-7.192,28.651,2.358,40.442C70.664,142.2,81.275,141.728,87.76,140.784Z" transform="translate(-55.098 -11.167)"/>
      <path id="Path_4141" data-name="Path 4141" class="cls-2" d="M67.672,140.33C77.1,112.976,99.742,75.364,135,28.555c1.061-1.415,2-2.594,2.594-3.419l-.354-.236c-.59.825-1.533,2-2.594,3.419-6.367,8.371-19.454,25.939-33.014,46.691-16.743,25.7-28.3,47.752-34.429,65.32Z" transform="translate(-52.931 -8.708)"/>
      <rect id="Rectangle_210" data-name="Rectangle 210" class="cls-2" width="11.673" height="0.472" transform="matrix(0.988, -0.154, 0.154, 0.988, 73.142, 31.122)"/>
      <rect id="Rectangle_211" data-name="Rectangle 211" class="cls-2" width="27.472" height="0.472" transform="translate(52.735 60.1) rotate(-4.611)"/>
      <rect id="Rectangle_212" data-name="Rectangle 212" class="cls-2" width="0.472" height="31.952" transform="translate(42.194 41.008) rotate(-3.891)"/>
      <rect id="Rectangle_213" data-name="Rectangle 213" class="cls-2" width="20.162" height="0.472" transform="translate(21.225 114.503) rotate(-13.94)"/>
      <rect id="Rectangle_214" data-name="Rectangle 214" class="cls-2" width="0.472" height="19.808" transform="translate(18.153 82.047) rotate(-35.435)"/>
    </g>
    <g id="Group_1011" data-name="Group 1011" transform="translate(0.02 39.032)">
      <path id="Path_4142" data-name="Path 4142" class="cls-3" d="M3.3,38.641a.921.921,0,0,0-.472.472v.118C-2.6,48.073.94,62.694,4.241,70.122c5.306,11.673,16.271,18.04,25.468,26.411A200.206,200.206,0,0,1,56.12,126.6,44.516,44.516,0,0,0,68.5,138.625c5.777,3.773,11.319,7.192,16.153,12.262,4.48,4.716,8.489,9.9,12.5,14.974,1.533,2,4.716,5.777,6.013,1.415,1.415-4.363-.472-10.14-2.122-14.149-2.476-5.777-6.131-10.965-9.315-16.389-7.31-12.616-10.376-26.765-16.271-39.852a199.377,199.377,0,0,0-20.28-33.839,152.258,152.258,0,0,0-14.267-17.1c-4.245-4.363-8.961-9.55-14.738-11.673C19.569,31.92,8.25,32.982,3.3,38.641Z" transform="translate(-0.02 -33.103)"/>
      <path id="Path_4143" data-name="Path 4143" class="cls-2" d="M96.957,158.962c-.236,0-.472-.118-.472-.354a104.622,104.622,0,0,0-20.4-26.057c-6.956-6.367-11.791-14.62-16.861-23.227-4.834-8.371-9.786-16.861-17.1-24.407-14.62-14.974-27.708-31.6-32.424-41.385a.782.782,0,0,1,.236-.825.729.729,0,0,1,.825.236c4.6,9.55,17.922,26.411,32.306,41.149,7.428,7.546,12.38,16.271,17.332,24.642,4.952,8.607,9.668,16.743,16.625,22.992a99.732,99.732,0,0,1,20.634,26.411.782.782,0,0,1-.236.825C97.193,158.844,97.075,158.962,96.957,158.962Z" transform="translate(1.706 -31.392)"/>
    </g>
    <g id="Group_1012" data-name="Group 1012" transform="translate(35.155 -0.008)">
      <path id="Path_4144" data-name="Path 4144" class="cls-4" d="M98.772,96.213c1.415-7.428,1.769-14.5-1.061-21.577-1.651-4.009-3.066-7.782-3.3-12.262-.236-4.009.118-8.018-.59-12.026C92.287,42.33,87.57,35.137,82.736,28.77A188.07,188.07,0,0,0,65.286,8.726C60.216,3.892,53.731-.234,46.421,0a14.731,14.731,0,0,0-9.079,3.537,15.539,15.539,0,0,0-7.428,15.092c.59,6.249,4.363,11.437,6.956,16.978a24.555,24.555,0,0,1,2.358,11.2c-.118,3.891-1.061,7.782-.707,11.673C39.7,73.339,56.8,79,62.1,91.732c1.769,4.127,1.179,8.018.825,12.262a19.208,19.208,0,0,0,1.415,9.668c2.83,7.31,7.9,13.441,10.729,20.751a36.786,36.786,0,0,1,2.83,11.673c.236,4.952-1.415,9.079-3.183,13.559-2.24,5.659-2.24,12.144,1.533,17.214,3.773,5.188,6.956-2.122,8.607-5.542,3.419-6.839,4.834-14.385,5.659-21.93.943-8.961,1.061-18.04,2.594-26.883C94.645,113.545,97.121,105.056,98.772,96.213Z" transform="translate(-29.819 0.008)"/>
      <path id="Path_4145" data-name="Path 4145" class="cls-2" d="M76.912,172.234h-.118a.525.525,0,0,1-.354-.707c3.066-10.258,11.319-59.307,5.9-79.7-2.948-11.2-6.249-18.393-9.786-26.057a177.253,177.253,0,0,1-8.371-21.223C59.108,28.389,42.837,8.463,42.72,8.345a.59.59,0,1,1,.943-.707c.118.236,16.507,20.28,21.695,36.551a167.311,167.311,0,0,0,8.371,21.105c3.537,7.782,6.839,15.092,9.786,26.293,5.424,20.516-2.83,70.036-5.9,80.294A1.019,1.019,0,0,1,76.912,172.234Z" transform="translate(-27.532 1.333)"/>
    </g>
    <g id="Group_1013-2" data-name="Group 1013" transform="translate(39.377 123.331)">
      <path id="Path_4146" data-name="Path 4146" class="cls-5" d="M37.291,112.9A71.18,71.18,0,0,0,33.4,136.481a72.4,72.4,0,0,0,18.983,48.931h62.962a72.178,72.178,0,0,0,18.983-48.931,74.347,74.347,0,0,0-3.891-23.581H37.291Z" transform="translate(-33.4 -103.114)"/>
      <path id="Path_4147" data-name="Path 4147" class="cls-6" d="M130.837,117.452H36.748A2.919,2.919,0,0,1,33.8,114.5v-6.956a2.919,2.919,0,0,1,2.948-2.948h94.089a2.919,2.919,0,0,1,2.948,2.948V114.5A3,3,0,0,1,130.837,117.452Z" transform="translate(-33.328 -104.6)"/>
      <path id="Path_4148" data-name="Path 4148" class="cls-7" d="M111.662,179.159H50.586a1.862,1.862,0,0,1-1.886-1.886v-1.887a1.862,1.862,0,0,1,1.886-1.887H111.78a1.862,1.862,0,0,1,1.886,1.887v1.887A1.965,1.965,0,0,1,111.662,179.159Z" transform="translate(-30.66 -92.263)"/>
    </g>
  </g>
</svg>
