<svg xmlns="http://www.w3.org/2000/svg" viewBox="0 0 94.415 162.916"><defs><style>.cls-1{fill:#fff}.cls-2{fill:#f58602}</style></defs><g id="Group_2284" data-name="Group 2284" transform="translate(-12 -997.132)"><g id="Group_2225" data-name="Group 2225" transform="translate(-276 911.138)"><path id="Path_4095" d="M388.21,104.42a4.21,4.21,0,1,0-4.21-4.21A4.205,4.205,0,0,0,388.21,104.42Z" class="cls-1" data-name="Path 4095" transform="translate(-10.006 -10.006)"/><path id="Path_4096" d="M388.21,128.42a4.21,4.21,0,1,0-4.21-4.21A4.205,4.205,0,0,0,388.21,128.42Z" class="cls-1" data-name="Path 4096" transform="translate(-10.006 -12.507)"/><path id="Path_4097" d="M388.21,152.42a4.21,4.21,0,1,0-4.21-4.21A4.205,4.205,0,0,0,388.21,152.42Z" class="cls-1" data-name="Path 4097" transform="translate(-10.006 -15.009)"/><path id="Path_4098" d="M388.21,176.42a4.21,4.21,0,1,0-4.21-4.21A4.205,4.205,0,0,0,388.21,176.42Z" class="cls-1" data-name="Path 4098" transform="translate(-10.006 -17.51)"/><path id="Path_4105" d="M364.21,104.42a4.21,4.21,0,1,0-4.21-4.21A4.205,4.205,0,0,0,364.21,104.42Z" class="cls-1" data-name="Path 4105" transform="translate(-7.504 -10.006)"/><path id="Path_4106" d="M364.21,128.42a4.21,4.21,0,1,0-4.21-4.21A4.205,4.205,0,0,0,364.21,128.42Z" class="cls-1" data-name="Path 4106" transform="translate(-7.504 -12.507)"/><path id="Path_4107" d="M364.21,152.42a4.21,4.21,0,1,0-4.21-4.21A4.205,4.205,0,0,0,364.21,152.42Z" class="cls-1" data-name="Path 4107" transform="translate(-7.504 -15.009)"/><path id="Path_4108" d="M364.21,176.42a4.21,4.21,0,1,0-4.21-4.21A4.205,4.205,0,0,0,364.21,176.42Z" class="cls-1" data-name="Path 4108" transform="translate(-7.504 -17.51)"/><path id="Path_4115" d="M340.21,104.42a4.21,4.21,0,1,0-4.21-4.21A4.205,4.205,0,0,0,340.21,104.42Z" class="cls-1" data-name="Path 4115" transform="translate(-5.003 -10.006)"/><path id="Path_4116" d="M340.21,128.42a4.21,4.21,0,1,0-4.21-4.21A4.205,4.205,0,0,0,340.21,128.42Z" class="cls-1" data-name="Path 4116" transform="translate(-5.003 -12.507)"/><path id="Path_4117" d="M340.21,152.42a4.21,4.21,0,1,0-4.21-4.21A4.205,4.205,0,0,0,340.21,152.42Z" class="cls-1" data-name="Path 4117" transform="translate(-5.003 -15.009)"/><path id="Path_4118" d="M340.21,176.42a4.21,4.21,0,1,0-4.21-4.21A4.205,4.205,0,0,0,340.21,176.42Z" class="cls-1" data-name="Path 4118" transform="translate(-5.003 -17.51)"/><path id="Path_4125" d="M316.21,104.42a4.21,4.21,0,1,0-4.21-4.21A4.205,4.205,0,0,0,316.21,104.42Z" class="cls-1" data-name="Path 4125" transform="translate(-2.501 -10.006)"/><path id="Path_4126" d="M316.21,128.42a4.21,4.21,0,1,0-4.21-4.21A4.205,4.205,0,0,0,316.21,128.42Z" class="cls-1" data-name="Path 4126" transform="translate(-2.501 -12.507)"/><path id="Path_4127" d="M316.21,152.42a4.21,4.21,0,1,0-4.21-4.21A4.205,4.205,0,0,0,316.21,152.42Z" class="cls-1" data-name="Path 4127" transform="translate(-2.501 -15.009)"/><path id="Path_4128" d="M316.21,176.42a4.21,4.21,0,1,0-4.21-4.21A4.205,4.205,0,0,0,316.21,176.42Z" class="cls-1" data-name="Path 4128" transform="translate(-2.501 -17.51)"/><path id="Path_4135" d="M292.21,104.42a4.21,4.21,0,1,0-4.21-4.21A4.205,4.205,0,0,0,292.21,104.42Z" class="cls-1" data-name="Path 4135" transform="translate(0 -10.006)"/><path id="Path_4136" d="M292.21,128.42a4.21,4.21,0,1,0-4.21-4.21A4.205,4.205,0,0,0,292.21,128.42Z" class="cls-1" data-name="Path 4136" transform="translate(0 -12.507)"/><path id="Path_4137" d="M292.21,152.42a4.21,4.21,0,1,0-4.21-4.21A4.205,4.205,0,0,0,292.21,152.42Z" class="cls-1" data-name="Path 4137" transform="translate(0 -15.009)"/><path id="Path_4138" d="M292.21,176.42a4.21,4.21,0,1,0-4.21-4.21A4.205,4.205,0,0,0,292.21,176.42Z" class="cls-1" data-name="Path 4138" transform="translate(0 -17.51)"/></g><g id="Group_2283" data-name="Group 2283" transform="translate(-276 1001.138)"><path id="Path_4095-2" d="M388.21,104.42a4.21,4.21,0,1,0-4.21-4.21A4.205,4.205,0,0,0,388.21,104.42Z" class="cls-2" data-name="Path 4095" transform="translate(-10.006 -10.006)"/><path id="Path_4096-2" d="M388.21,128.42a4.21,4.21,0,1,0-4.21-4.21A4.205,4.205,0,0,0,388.21,128.42Z" class="cls-2" data-name="Path 4096" transform="translate(-10.006 -12.507)"/><path id="Path_4097-2" d="M388.21,152.42a4.21,4.21,0,1,0-4.21-4.21A4.205,4.205,0,0,0,388.21,152.42Z" class="cls-2" data-name="Path 4097" transform="translate(-10.006 -15.009)"/><path id="Path_4098-2" d="M388.21,176.42a4.21,4.21,0,1,0-4.21-4.21A4.205,4.205,0,0,0,388.21,176.42Z" class="cls-2" data-name="Path 4098" transform="translate(-10.006 -17.51)"/><path id="Path_4105-2" d="M364.21,104.42a4.21,4.21,0,1,0-4.21-4.21A4.205,4.205,0,0,0,364.21,104.42Z" class="cls-2" data-name="Path 4105" transform="translate(-7.504 -10.006)"/><path id="Path_4106-2" d="M364.21,128.42a4.21,4.21,0,1,0-4.21-4.21A4.205,4.205,0,0,0,364.21,128.42Z" class="cls-2" data-name="Path 4106" transform="translate(-7.504 -12.507)"/><path id="Path_4107-2" d="M364.21,152.42a4.21,4.21,0,1,0-4.21-4.21A4.205,4.205,0,0,0,364.21,152.42Z" class="cls-2" data-name="Path 4107" transform="translate(-7.504 -15.009)"/><path id="Path_4108-2" d="M364.21,176.42a4.21,4.21,0,1,0-4.21-4.21A4.205,4.205,0,0,0,364.21,176.42Z" class="cls-2" data-name="Path 4108" transform="translate(-7.504 -17.51)"/><path id="Path_4115-2" d="M340.21,104.42a4.21,4.21,0,1,0-4.21-4.21A4.205,4.205,0,0,0,340.21,104.42Z" class="cls-2" data-name="Path 4115" transform="translate(-5.003 -10.006)"/><path id="Path_4116-2" d="M340.21,128.42a4.21,4.21,0,1,0-4.21-4.21A4.205,4.205,0,0,0,340.21,128.42Z" class="cls-2" data-name="Path 4116" transform="translate(-5.003 -12.507)"/><path id="Path_4117-2" d="M340.21,152.42a4.21,4.21,0,1,0-4.21-4.21A4.205,4.205,0,0,0,340.21,152.42Z" class="cls-2" data-name="Path 4117" transform="translate(-5.003 -15.009)"/><path id="Path_4118-2" d="M340.21,176.42a4.21,4.21,0,1,0-4.21-4.21A4.205,4.205,0,0,0,340.21,176.42Z" class="cls-2" data-name="Path 4118" transform="translate(-5.003 -17.51)"/><path id="Path_4125-2" d="M316.21,104.42a4.21,4.21,0,1,0-4.21-4.21A4.205,4.205,0,0,0,316.21,104.42Z" class="cls-2" data-name="Path 4125" transform="translate(-2.501 -10.006)"/><path id="Path_4126-2" d="M316.21,128.42a4.21,4.21,0,1,0-4.21-4.21A4.205,4.205,0,0,0,316.21,128.42Z" class="cls-2" data-name="Path 4126" transform="translate(-2.501 -12.507)"/><path id="Path_4127-2" d="M316.21,152.42a4.21,4.21,0,1,0-4.21-4.21A4.205,4.205,0,0,0,316.21,152.42Z" class="cls-2" data-name="Path 4127" transform="translate(-2.501 -15.009)"/><path id="Path_4128-2" d="M316.21,176.42a4.21,4.21,0,1,0-4.21-4.21A4.205,4.205,0,0,0,316.21,176.42Z" class="cls-2" data-name="Path 4128" transform="translate(-2.501 -17.51)"/><path id="Path_4135-2" d="M292.21,104.42a4.21,4.21,0,1,0-4.21-4.21A4.205,4.205,0,0,0,292.21,104.42Z" class="cls-2" data-name="Path 4135" transform="translate(0 -10.006)"/><path id="Path_4136-2" d="M292.21,128.42a4.21,4.21,0,1,0-4.21-4.21A4.205,4.205,0,0,0,292.21,128.42Z" class="cls-2" data-name="Path 4136" transform="translate(0 -12.507)"/><path id="Path_4137-2" d="M292.21,152.42a4.21,4.21,0,1,0-4.21-4.21A4.205,4.205,0,0,0,292.21,152.42Z" class="cls-2" data-name="Path 4137" transform="translate(0 -15.009)"/><path id="Path_4138-2" d="M292.21,176.42a4.21,4.21,0,1,0-4.21-4.21A4.205,4.205,0,0,0,292.21,176.42Z" class="cls-2" data-name="Path 4138" transform="translate(0 -17.51)"/></g></g></svg>