<svg xmlns="http://www.w3.org/2000/svg" viewBox="0 0 164.753 171.026">
  <defs>
    <style>
      .cls-1 {
        fill: #fff;
      }
    </style>
  </defs>
  <g id="Group_2155" data-name="Group 2155" transform="translate(-1600.3 -765.9)">
    <path id="Path_1" data-name="Path 1" class="cls-1" d="M1902.6,841.7" transform="translate(-245.109 22.353)"/>
    <g id="Group_1" data-name="Group 1" transform="translate(1660.768 796.563)">
      <path id="Path_2" data-name="Path 2" class="cls-1" d="M1959.4,783.852a7.9,7.9,0,0,0-4.135-.468c.156-.234.313-.39.468-.624a6.494,6.494,0,0,0,.624-.936.59.59,0,0,0,.156-.312,3.4,3.4,0,0,1,.7-.858,9.451,9.451,0,0,0,1.248-1.248,17.44,17.44,0,0,0,2.575-4.915l.078-.156a19.643,19.643,0,0,1,.936-2.263l.078-.156a.237.237,0,0,0,0-.312.406.406,0,0,0-.312-.156h-.156a3.078,3.078,0,0,0-1.951.78,2.926,2.926,0,0,1-.936.546,3.922,3.922,0,0,1-.936.156h-.078a5.568,5.568,0,0,0-1.795.468c-.858.39-1.717.7-2.575,1.014l-.234.078c-.858.312-1.717.624-2.653,1.014l.234-.936a4.757,4.757,0,0,0,.234-1.014,6.01,6.01,0,0,0-.78-3.9,12.256,12.256,0,0,0-1.717-2.887,7.062,7.062,0,0,1-.7-.78,4.643,4.643,0,0,1-1.326-1.717l-.156-.39c-.078-.156-.156-.234-.312-.234s-.312.078-.312.234l-.156.39a1.921,1.921,0,0,0,.078,1.327,1.936,1.936,0,0,1,.078.624,3.778,3.778,0,0,1-.234-.546c-.39-.936-1.092-2.419-2.731-1.795-.156.078-.234.156-.312.156-1.092-.312-2.029.624-2.653,1.326l-.156.156c-.078.078-.156.234-.312.312a4.518,4.518,0,0,0-.624.78,1.363,1.363,0,0,1-.312.39c-.156.234-.234.234-.468.234a3.231,3.231,0,0,0-.78.078.273.273,0,0,0-.156.078c0-.078-.078-.156-.078-.234a3.639,3.639,0,0,0-.39-.78,1.8,1.8,0,0,0-.858-.624c-.078-.078-.234-.078-.39-.156a1.524,1.524,0,0,1-.858-1.561v-.156a.517.517,0,0,0-.312-.39h-.078c-1.482-.312-2.263,1.17-2.731,2.107-.156.234-.234.468-.39.7a4.332,4.332,0,0,0-.468.624,7.89,7.89,0,0,0-.7,1.014c-.234-.312-.546-.624-.78-.936a3.188,3.188,0,0,1-1.248-2.029v-.312c0-.156-.078-.234-.234-.312a.344.344,0,0,0-.391.078l-.234.234a14.263,14.263,0,0,1-1.249,1.014,10.262,10.262,0,0,0-1.951,1.716,7.373,7.373,0,0,0-1.17,2.185c-.078.156-.156.234-.156.39-.156.078-.234.078-.39.156a2.808,2.808,0,0,0-1.014,1.638,3.3,3.3,0,0,1-1.4-.468c-.078-.234-.156-.546-.234-.78l-.156-.546a.36.36,0,0,0-.39-.234.335.335,0,0,0-.312.312l-.078.546a1.469,1.469,0,0,0,.234,1.17,17.166,17.166,0,0,1-.312,5.618l.234.078h0l-.312.078c-.078.7-.234,1.4-.312,2.029a6.292,6.292,0,0,0,1.248,4.525,8.026,8.026,0,0,0,1.092,1.17l.156.234.312.312c.156.156.312.468.546.78.078.156.156.234.234.39-.312.078-.624.234-.858.312s-.546.234-.78.312c-.624.234-1.248.39-1.794.546h-.156l-1.638.468c-1.249.39-3.277,1.326-2.887,2.653.312,1.014,1.482,1.4,2.5,1.795a1.47,1.47,0,0,1,.7.312,13.737,13.737,0,0,1,1.794,1.092,7.73,7.73,0,0,0,1.326.858,8.467,8.467,0,0,0,2.185.624,5.459,5.459,0,0,1,1.092.234,4.513,4.513,0,0,1,1.092.39l.078.078a6.053,6.053,0,0,0,1.795.468c.234,0,.468.078.78.078h.468c.234,0,.39-.078.624-.078h.156a5.05,5.05,0,0,1,1.482-.156,3,3,0,0,0-.156,2.107,2.785,2.785,0,0,0,1.4,1.872,3.647,3.647,0,0,0,.78.39,2.627,2.627,0,0,0,.312,1.716c.234.624.39,1.014.156,1.4l-.156.312a.349.349,0,0,0,0,.39c.078.078.156.078.234.156h.156l.312-.156c.39-.156.78-.234,1.17-.39a11.972,11.972,0,0,0,2.341-.858,7.358,7.358,0,0,0,1.638-1.4,6.21,6.21,0,0,1,1.327-1.17,9.572,9.572,0,0,0,4.993-4.369l.39.156a17.343,17.343,0,0,0,3.043.78,6.317,6.317,0,0,0,1.249.078h.546a7.963,7.963,0,0,0,2.965-.546,7.066,7.066,0,0,0,1.248-.858,5.442,5.442,0,0,1,.78-.624c.312-.156.624-.312,1.014-.468a3.844,3.844,0,0,0,2.185-1.56,5.622,5.622,0,0,0,.39-3.2,7.867,7.867,0,0,1,1.716-.39.47.47,0,0,0,.312-.078,4.2,4.2,0,0,1,.624-.078h.078c1.56-.234,2.341-.312,2.575-.624a1.316,1.316,0,0,0,.39-1.326A9.563,9.563,0,0,0,1959.4,783.852Zm-15.37,12.172a1.309,1.309,0,0,0-.858-.936.8.8,0,0,1-.468-.39,7.521,7.521,0,0,1-1.326-2.029l-.156-.234c-.468-.936-1.561-3.355-.936-4.213l.234-.234c1.17,1.716,3.355,2.107,5.306,2.5l.234.078c.312.078.624.078.936.156a8.778,8.778,0,0,1,1.717.624,6.478,6.478,0,0,0,3.043.7h.078a15.927,15.927,0,0,0,2.653-.234l.936-.234h.078a7.269,7.269,0,0,1,1.014-.312,4.423,4.423,0,0,1-.234,2.263,2.487,2.487,0,0,1-1.639,1.092,7.911,7.911,0,0,0-1.17.546,5.976,5.976,0,0,0-.858.624l-.078.078a3.965,3.965,0,0,1-1.014.7,8.875,8.875,0,0,1-2.574.468h-.234a12.261,12.261,0,0,1-4.213-.78A1.267,1.267,0,0,0,1944.027,796.023Zm-11.157,7.959h0a3.742,3.742,0,0,0-.39-1.326c-.156-.468-.312-.7-.234-1.014l1.17.234a4.805,4.805,0,0,0,1.014.078h1.014c.468,0,.936-.078,1.4-.078h0a4.031,4.031,0,0,1-1.4,1.17,14.23,14.23,0,0,1-2.185.78Zm5.7-3.511h-.078a5.343,5.343,0,0,0-.624.234c-1.717.468-5.149.468-6.788-.624a2.219,2.219,0,0,1-1.014-1.248c-.312-1.56.234-1.794,1.248-2.263a5.512,5.512,0,0,0,1.638-1.014,28.835,28.835,0,0,0,2.575-2.809l.156-.156a30.085,30.085,0,0,1,2.106-2.341,11.476,11.476,0,0,1,1.014-.7h0c.156-.078.234-.156.39-.234a9.758,9.758,0,0,0,1.249,3.589l.156.234a6.4,6.4,0,0,0,1.482,2.185,2.744,2.744,0,0,0,.78.624l.156-.234h0l-.156.234h0c.312.156.39.234.39.312A10.318,10.318,0,0,1,1938.565,800.471Zm-16.073-13.342a2.7,2.7,0,0,1-.624-.858,6.511,6.511,0,0,0-.624-.936c-.156-.156-.234-.312-.39-.468l-.078-.078a6.286,6.286,0,0,1-.936-1.092,4.882,4.882,0,0,1-1.014-3.823c.078-.7.156-1.326.312-2.185s.234-1.638.312-2.5c.078.078.156.156.234.156a4.427,4.427,0,0,0,.624,1.014c.078.078.156.234.312.39a11.242,11.242,0,0,1,1.326,3.433l.078.234c.156.546.312,1.092.468,1.56.078.312.156.7.234,1.092a4.729,4.729,0,0,0,.39,1.4,6.111,6.111,0,0,0,1.248,1.561,9.4,9.4,0,0,1,.859.936,1.645,1.645,0,0,1,.312.468,3.005,3.005,0,0,0,1.093,1.17,4.786,4.786,0,0,0,.936.39c-1.248.312-2.028-.234-3.121-1.014-.312-.234-.624-.39-.936-.624-.468-.078-.78-.234-1.014-.234Zm3.511-20.52a4.265,4.265,0,0,0,.7-.546,5.918,5.918,0,0,0,1.327,1.717c.7.78,1.4,1.482,1.4,2.419a4.727,4.727,0,0,0-1.482,1.56,5.978,5.978,0,0,1-1.326-.39,8.059,8.059,0,0,1-.781-.312,1.941,1.941,0,0,0-.7-.078,1.862,1.862,0,0,1-.7-.156,1.631,1.631,0,0,1-.468-.312,3.15,3.15,0,0,0-.7-.39h-.078v-.078a14.332,14.332,0,0,1,1.014-1.873,12.267,12.267,0,0,1,1.794-1.56Zm7.256-1.951a2.489,2.489,0,0,0,1.248,1.873c.234.156.468.234.546.312.156.078.312.078.468.312a4.467,4.467,0,0,0,.312.546,1.953,1.953,0,0,0,.312.546,10.029,10.029,0,0,0-1.17,4.213,12.589,12.589,0,0,0-2.731-1.248,4.388,4.388,0,0,1-1.014-.546,5.245,5.245,0,0,0-.936-.468,4.588,4.588,0,0,0-.156-1.092h0c-.078-.312.546-1.092.937-1.482.156-.234.39-.468.468-.624a6.853,6.853,0,0,0,.468-.78C1932.4,765.36,1932.792,764.736,1933.26,764.658Zm9.753.156c.546-.234.858,0,1.4,1.248a4.032,4.032,0,0,0,.936,1.483h.078a.272.272,0,0,0,.156.078h.078c1.17.078,1.716,1.717,2.106,2.965l.078.156c.156.39.234.78.39,1.092a5.8,5.8,0,0,1,.624,2.185v.7a2.2,2.2,0,0,0,.156,1.4,7.631,7.631,0,0,0-2.965,3.355l-.078.078c-.156.312-.39.624-.546.936a8.513,8.513,0,0,0-.468.858l-.078.156a7.988,7.988,0,0,1-1.092,1.716,7.519,7.519,0,0,0-1.717-5.54,13.57,13.57,0,0,0-1.717-1.4,5.817,5.817,0,0,1-1.326-1.092c-.39-.39-.858-.78-1.326-1.17a8.042,8.042,0,0,1,1.014-3.277,7.46,7.46,0,0,1,1.795-2.029c.312-.312.7-.624,1.014-.936a7.419,7.419,0,0,0,1.17-1.56,2.281,2.281,0,0,0,.156-.7C1942.7,765.126,1942.779,764.97,1943.013,764.814Zm-23.563,7.88a4.111,4.111,0,0,0,.936.234c-.078.078-.156.156-.156.234a6.776,6.776,0,0,0-.546.78.076.076,0,0,0-.078-.078c-.078-.078-.078-.156-.156-.312Zm10.377-1.56c.234.078.546.312.858.468a6.225,6.225,0,0,0,1.248.624,9.733,9.733,0,0,1,2.731,1.248l.624.39a.8.8,0,0,0,.624.39c.234.156.39.312.624.468a1.075,1.075,0,0,0,.312.234,6.209,6.209,0,0,1,1.326,1.17,12.188,12.188,0,0,0,1.561,1.248,5.459,5.459,0,0,1,1.482,1.17,6.026,6.026,0,0,1,1.092,6.242,7.345,7.345,0,0,1-1.4,1.95,3.3,3.3,0,0,1-.546.39,4.083,4.083,0,0,0-.858.78,5.88,5.88,0,0,1-1.093.858c-.39.156-.78.312-1.248.546l-.156.078a6.394,6.394,0,0,1-3.823-.078,3.8,3.8,0,0,1-.858-.312l-.156-.078a7.032,7.032,0,0,0-1.717-.468,3.7,3.7,0,0,0-1.326.078c-.312-.234-.7-.468-1.093-.7a3.67,3.67,0,0,1-1.638-1.4,13.37,13.37,0,0,1-.546-1.4c-.078-.312-.234-.624-.312-.936a12.056,12.056,0,0,1-.546-1.795c-.078-.156-.078-.39-.156-.624l-.078-.234c-.469-1.873.078-3.043,1.014-4.915.156-.312.312-.7.468-1.014.468-1.092.936-2.185,2.028-2.5.078,0,.156-.078.234-.156v-.078A4.706,4.706,0,0,1,1929.827,771.134Zm22.783,13.654a9.555,9.555,0,0,1-6.32,2.263c-.936,0-1.872,0-2.809-.078h-.234c-.468,0-.936-.078-1.482-.078a7.937,7.937,0,0,0,1.17-1.794c0-.078.078-.078.078-.156a6.58,6.58,0,0,0,2.419-2.965l.078-.156a6.859,6.859,0,0,1,.468-.78,7.8,7.8,0,0,0,.624-1.092,6.706,6.706,0,0,1,2.653-3.043,36.711,36.711,0,0,1,4.057-1.638c.936-.312,1.873-.7,2.809-1.092a5.726,5.726,0,0,1,1.56-.39c.312-.078.7-.156,1.092-.234a6.22,6.22,0,0,0,1.249-.624l.078-.078c.156-.078.312-.234.468-.312-.234.546-.39,1.014-.624,1.56v.078a15.587,15.587,0,0,1-2.341,4.525,7.241,7.241,0,0,1-1.093,1.092,2.809,2.809,0,0,0-.858,1.092c-.078.078-.078.156-.156.312a4.356,4.356,0,0,0-.39.624l-.234.312a15.381,15.381,0,0,0-1.092,1.716A12.306,12.306,0,0,0,1952.61,784.788Zm-2.731-11.391a1.99,1.99,0,0,1-.156.546,6.22,6.22,0,0,0-.7-2.419c-.156-.312-.234-.7-.39-1.092-.39-1.248-.936-2.965-2.263-3.511a1.71,1.71,0,0,0,.078-.624l.468.468a4.72,4.72,0,0,1,.625.624,11.29,11.29,0,0,1,1.56,2.653A4.88,4.88,0,0,1,1949.879,773.4Zm-8.193-7.958a1.126,1.126,0,0,1-.156.546,4.756,4.756,0,0,1-.936,1.248c-.234.234-.546.468-.78.7l-.156.156a8.451,8.451,0,0,0-2.028,2.341,9.787,9.787,0,0,0-1.014,3.121,3.291,3.291,0,0,0-.546-.39c0-.078-.078-.156-.078-.234-.234-1.483.7-4.369,1.326-4.6a1.157,1.157,0,0,1,.546-.078,1.324,1.324,0,0,0,1.17-.546,2.751,2.751,0,0,0,.39-.624c.078-.156.234-.312.39-.546l.468-.468a3.8,3.8,0,0,1,1.4-1.092C1941.686,765.2,1941.686,765.283,1941.686,765.439Zm-19.584,5.7a.73.73,0,0,1,.7,0,1.634,1.634,0,0,1,.468.312,1.7,1.7,0,0,0,.624.39,4.775,4.775,0,0,0,1.015.234,1.156,1.156,0,0,1,.546.078,3.626,3.626,0,0,0,.7.234c.234.078.39.156.624.234a5.912,5.912,0,0,0-1.56,2.5l-.468.936c-1.015,1.951-1.639,3.433-1.093,5.618.078.234.156.468.234.78.156.546.312,1.326.546,1.951.078.234.234.546.313.858a.273.273,0,0,0,.078.156h0a3.773,3.773,0,0,1-1.014-1.248,4.469,4.469,0,0,1-.312-1.092v-.078a6.472,6.472,0,0,0-.312-1.17c-.156-.468-.312-1.014-.468-1.56l-.078-.156a11.734,11.734,0,0,0-1.482-3.745,1.7,1.7,0,0,0-.312-.39c-.39-.546-.624-.858-.468-1.4a2.726,2.726,0,0,1,.39-.624,2.688,2.688,0,0,0,.624-1.248A3.186,3.186,0,0,1,1922.1,771.134Zm.7,17.165a4.346,4.346,0,0,1,.624.468l.234.156c1.249.858,2.419,1.716,4.292,1.092a2.763,2.763,0,0,0,.7-.312,3.553,3.553,0,0,1,1.561-.39,4.708,4.708,0,0,1,1.482.468c.312.156.7.234,1.092.39a10.186,10.186,0,0,0,3.433.312c-.39.468-.858.936-1.248,1.483l-.156.156a21.987,21.987,0,0,1-2.575,2.809,6.117,6.117,0,0,1-1.4.858c-.312.156-.546.234-.858.39a4.805,4.805,0,0,0-2.575,0c-.234.078-.468.078-.7.156a5.62,5.62,0,0,1-2.574-.468,5.834,5.834,0,0,0-1.249-.39l-1.17-.234h-.078a4.7,4.7,0,0,1-1.794-.468c-.312-.234-.7-.468-1.092-.7l-.234-.156a9.951,9.951,0,0,0-1.951-1.17,8.072,8.072,0,0,0-.78-.312c-.7-.234-1.717-.624-1.873-1.092-.078-.312.7-.936,2.263-1.482.546-.156,1.17-.312,1.716-.468s1.248-.312,1.951-.546c.312-.156.624-.234.936-.39C1921.635,787.987,1922.025,787.831,1922.8,788.3Zm33.862,1.95a5.605,5.605,0,0,0-1.482.312,2.982,2.982,0,0,1-.781.234,14.162,14.162,0,0,1-2.5.234h-.078a6.092,6.092,0,0,1-2.653-.7,10.545,10.545,0,0,0-1.873-.624c-.39-.078-.78-.156-1.249-.234-1.638-.312-3.355-.624-4.369-1.638a10.457,10.457,0,0,1,1.56.078h.156c1.092.078,2.029.078,3.043.078a10.435,10.435,0,0,0,6.944-2.5c1.483-1.327,3.433-1.561,5.774-.7.7.234,2.965,2.419,3.2,3.667.078.312-.078.39-.078.468a12.776,12.776,0,0,1-2.106.39,4.374,4.374,0,0,0-.78.156l-.312.078A4.036,4.036,0,0,0,1956.667,790.25Z" transform="translate(-1908.214 -757.012)"/>
      <path id="Path_3" data-name="Path 3" class="cls-1" d="M1983.738,783.3a1.638,1.638,0,1,0,1.638,1.638A1.6,1.6,0,0,0,1983.738,783.3Z" transform="translate(-1923.349 -761.376)"/>
      <path id="Path_4" data-name="Path 4" class="cls-1" d="M1944.448,757.7a1.248,1.248,0,1,0-1.248-1.248A1.232,1.232,0,0,0,1944.448,757.7Z" transform="translate(-1914.799 -755.2)"/>
      <path id="Path_5" data-name="Path 5" class="cls-1" d="M1907.892,788.4a1.115,1.115,0,0,0-1.092,1.092,1.066,1.066,0,0,0,1.092,1.092,1.116,1.116,0,0,0,1.093-1.092A1.173,1.173,0,0,0,1907.892,788.4Z" transform="translate(-1906.8 -762.496)"/>
    </g>
    <g id="Group_5" data-name="Group 5" transform="translate(1600.3 765.9)">
      <g id="Group_2" data-name="Group 2" transform="translate(2.097 104.082)">
        <path id="Path_6" data-name="Path 6" class="cls-1" d="M1836.6,856.01l3.823-1.092.312.936-3.823,1.092c-2.029.624-4.057.156-4.759-2.185-.7-2.419.936-3.823,2.887-4.369l3.823-1.092.312.936-3.823,1.092c-1.482.468-2.809,1.4-2.262,3.121C1833.48,856.322,1835.118,856.4,1836.6,856.01Z" transform="translate(-1831.988 -849.3)"/>
        <path id="Path_7" data-name="Path 7" class="cls-1" d="M1842.146,860.314l-2.185,3.511,3.979,1.014.39,1.014-4.837-1.248-2.5,4.135-.39-1.014,2.107-3.355-3.823-.936-.39-1.014,4.681,1.17,2.575-4.291Z" transform="translate(-1832.54 -851.498)"/>
        <path id="Path_8" data-name="Path 8" class="cls-1" d="M1847.747,880.044l3.433-2.029.546.858-3.433,2.029c-1.872,1.092-3.9,1.248-5.149-.858-1.327-2.185-.078-3.9,1.716-4.915l3.433-2.029.546.858-3.433,2.029c-1.326.78-2.341,2.029-1.4,3.589C1844.782,881.136,1846.421,880.824,1847.747,880.044Z" transform="translate(-1834.318 -854.53)"/>
        <path id="Path_9" data-name="Path 9" class="cls-1" d="M1847.7,887.4l6.476-4.6.546.78-6.476,4.6Z" transform="translate(-1835.44 -856.662)"/>
        <path id="Path_10" data-name="Path 10" class="cls-1" d="M1856.7,898.44l5.618-5.54,1.95,1.951a3.946,3.946,0,0,1-5.618,5.54Zm6.944-2.965-1.248-1.248-4.37,4.291,1.248,1.248c1.248,1.326,2.887,1.092,4.135-.156A2.706,2.706,0,0,0,1863.644,895.475Z" transform="translate(-1837.418 -858.882)"/>
        <path id="Path_11" data-name="Path 11" class="cls-1" d="M1869.981,909.317l-.546.7-4.135-3.433,5.072-6.086,4.057,3.355-.546.7-3.277-2.731-1.638,1.95,2.887,2.341-.546.624-2.887-2.341-1.717,2.107Z" transform="translate(-1839.309 -860.552)"/>
        <path id="Path_12" data-name="Path 12" class="cls-1" d="M1880.756,910.465a3.121,3.121,0,0,0-1.326-1.873c-1.014-.7-1.717-.624-2.185.078s-.078,1.248.936,2.341c1.17,1.248,1.716,2.185.937,3.355-.858,1.248-2.263,1.092-3.589.234a4.992,4.992,0,0,1-2.029-2.731l.858-.468a3.916,3.916,0,0,0,1.716,2.419c.936.624,1.717.624,2.185,0,.468-.7,0-1.4-1.014-2.575-1.092-1.248-1.561-2.028-.858-3.121.858-1.248,2.341-1.248,3.667-.312a4.282,4.282,0,0,1,1.638,2.185Z" transform="translate(-1841.111 -862.013)"/>
        <path id="Path_13" data-name="Path 13" class="cls-1" d="M1881.8,918.266l3.979-6.866.858.468-3.979,6.866Z" transform="translate(-1842.935 -862.948)"/>
        <path id="Path_14" data-name="Path 14" class="cls-1" d="M1892.092,922.566a3.148,3.148,0,0,1-2.653,0,4.047,4.047,0,0,1,3.511-7.256,3.017,3.017,0,0,1,1.951,2.887l-.937.156a2.389,2.389,0,0,0-1.482-2.185,3.115,3.115,0,0,0-2.575,5.618,2.934,2.934,0,0,0,2.653-.156l.468-1.014-1.561-.7.312-.7,2.341,1.092-1.716,3.589-.78-.39Z" transform="translate(-1844.176 -863.737)"/>
        <path id="Path_15" data-name="Path 15" class="cls-1" d="M1900.187,920.307l-1.951,5.7-.936-.312,2.574-7.49.7.234,2.653,7.412,2.029-5.852.936.312-2.575,7.49-.78-.312Z" transform="translate(-1846.342 -864.442)"/>
        <path id="Path_16" data-name="Path 16" class="cls-1" d="M1923.857,932.242l-.7-.936a3.128,3.128,0,0,1-2.5.624,2.3,2.3,0,0,1-2.263-2.5,2.974,2.974,0,0,1,1.873-2.107,2.747,2.747,0,0,1-.78-1.951,1.873,1.873,0,0,1,2.263-1.483,1.812,1.812,0,0,1,1.717,1.873c-.156.858-.937,1.4-1.873,1.873l1.716,2.341a4.128,4.128,0,0,0,.7-1.795l.78.078a4.309,4.309,0,0,1-1.014,2.341l1.326,1.795Zm-1.17-1.638-1.951-2.653c-.78.39-1.326.858-1.4,1.56-.156.858.624,1.482,1.482,1.638A2.34,2.34,0,0,0,1922.686,930.6Zm-1.638-3.745c.78-.39,1.4-.7,1.482-1.248s-.312-.936-.936-1.014a1.082,1.082,0,0,0-1.248.858C1920.346,925.766,1920.5,926.078,1921.048,926.858Z" transform="translate(-1850.974 -865.688)"/>
        <path id="Path_17" data-name="Path 17" class="cls-1" d="M1939.034,932.88,1938.8,925h1.015l.234,7.88Z" transform="translate(-1855.462 -865.937)"/>
        <path id="Path_18" data-name="Path 18" class="cls-1" d="M1944,932.658l-.7-7.88,1.015-.078.624,7.022,4.369-.39.078.858Z" transform="translate(-1856.451 -865.871)"/>
        <path id="Path_19" data-name="Path 19" class="cls-1" d="M1953.682,931.558l-1.482-7.8,1.014-.156,1.326,6.944,4.369-.78.156.858Z" transform="translate(-1858.407 -865.629)"/>
        <path id="Path_20" data-name="Path 20" class="cls-1" d="M1967.61,923.735l-1.17-3.823.936-.312,1.17,3.823c.624,2.029.234,4.057-2.106,4.76-2.419.7-3.823-.858-4.369-2.809l-1.17-3.823.936-.312,1.17,3.823c.468,1.483,1.4,2.809,3.121,2.263C1967.922,926.856,1968,925.217,1967.61,923.735Z" transform="translate(-1860.319 -864.75)"/>
        <path id="Path_21" data-name="Path 21" class="cls-1" d="M1977,917.991a3.051,3.051,0,0,0-2.341.078c-1.17.468-1.482,1.17-1.17,1.873.312.78,1.014.7,2.5.468,1.638-.312,2.809-.234,3.355,1.092.624,1.4-.312,2.5-1.795,3.121a5.216,5.216,0,0,1-3.433.234l.078-.936a3.909,3.909,0,0,0,2.965-.078c1.014-.468,1.483-1.092,1.17-1.794-.312-.858-1.17-.78-2.731-.546-1.638.234-2.575.156-3.043-1.014-.546-1.4.234-2.653,1.717-3.277a4.183,4.183,0,0,1,2.731-.156Z" transform="translate(-1862.841 -864.155)"/>
        <path id="Path_22" data-name="Path 22" class="cls-1" d="M1985.885,912.2l-2.419,1.326,3.355,6.164-.859.468L1982.609,914l-2.419,1.326-.39-.78,5.7-3.043Z" transform="translate(-1864.472 -862.97)"/>
        <path id="Path_23" data-name="Path 23" class="cls-1" d="M1993.147,916.222l-4.447-6.554,2.809-1.872a2.576,2.576,0,0,1,3.433.78,2.338,2.338,0,0,1-.078,2.887l3.277,1.482-.936.624-3.121-1.326-1.716,1.17,1.56,2.341Zm-1.249-3.667,2.029-1.326a1.481,1.481,0,0,0,.234-2.107,1.5,1.5,0,0,0-2.106-.546L1990.1,909.9Z" transform="translate(-1866.428 -862.074)"/>
        <path id="Path_24" data-name="Path 24" class="cls-1" d="M2002.074,910.539l-2.575-8.193.624-.546,7.568,3.979-.858.7-2.185-1.17-2.575,2.107.781,2.341Zm-1.483-7.568,1.171,3.745,2.262-1.873Z" transform="translate(-1868.802 -860.838)"/>
        <path id="Path_25" data-name="Path 25" class="cls-1" d="M2009.427,893.224l-1.951,1.951,4.993,4.915-.7.7-4.993-4.916-1.951,1.951-.624-.624,4.526-4.6Z" transform="translate(-1869.835 -858.816)"/>
        <path id="Path_26" data-name="Path 26" class="cls-1" d="M2017.407,895.83l-6.007-5.15.624-.78,6.008,5.149Z" transform="translate(-1871.418 -858.223)"/>
        <path id="Path_27" data-name="Path 27" class="cls-1" d="M2017.513,889.179a3.828,3.828,0,0,1-1.014-5.384,3.938,3.938,0,0,1,5.462-.624,3.828,3.828,0,0,1,1.014,5.384A3.867,3.867,0,0,1,2017.513,889.179Zm4.682-1.17c1.014-1.326.312-3.121-.936-4.057a2.948,2.948,0,0,0-4.135.39c-1.014,1.326-.312,3.121.937,4.057A2.939,2.939,0,0,0,2022.194,888.008Z" transform="translate(-1872.381 -856.565)"/>
        <path id="Path_28" data-name="Path 28" class="cls-1" d="M2022.929,876.73l5.305,2.965-.468.858-6.866-3.9.39-.7,7.8-1.248-5.384-3.043.468-.858,6.866,3.9-.39.7Z" transform="translate(-1873.505 -854.025)"/>
      </g>
      <g id="Group_3" data-name="Group 3" transform="translate(1.492)">
        <path id="Path_29" data-name="Path 29" class="cls-1" d="M1843.218,790.924a6.058,6.058,0,0,1-3.277,3.511,5.95,5.95,0,0,1-4.759.156,6.208,6.208,0,0,1-3.511-8.114,6.737,6.737,0,0,1,2.575-3.121,1.283,1.283,0,0,1,.78-.156,1.213,1.213,0,0,1,.624.468.9.9,0,0,1,.078.78.969.969,0,0,1-.468.624,3.859,3.859,0,0,0-1.716,2.107,4.13,4.13,0,0,0,.078,3.2,3.891,3.891,0,0,0,2.263,2.185,4.138,4.138,0,0,0,3.2-.078,3.814,3.814,0,0,0,2.185-2.341,4.1,4.1,0,0,0,0-3.043v-.078l-2.106-.858-1.248,3.2a.771.771,0,0,1-.546.546.708.708,0,0,1-.78,0,.942.942,0,0,1-.546-.546.911.911,0,0,1,0-.78l1.638-4.213a.944.944,0,0,1,.546-.546.708.708,0,0,1,.78,0l5.15,2.029a.942.942,0,0,1,.546.546.911.911,0,0,1,0,.78h0a1.049,1.049,0,0,1-.468.546.938.938,0,0,1-.624.156A5.686,5.686,0,0,1,1843.218,790.924Z" transform="translate(-1831.212 -730.691)"/>
        <path id="Path_30" data-name="Path 30" class="cls-1" d="M1851.8,775.091a1.211,1.211,0,0,1-.624.468.908.908,0,0,1-.78-.156l-8.739-5.54a1.21,1.21,0,0,1-.468-.624.908.908,0,0,1,.156-.78,1.213,1.213,0,0,1,.624-.468.907.907,0,0,1,.78.156l8.739,5.54a1.212,1.212,0,0,1,.468.624A1.543,1.543,0,0,1,1851.8,775.091Z" transform="translate(-1833.399 -727.342)"/>
        <path id="Path_31" data-name="Path 31" class="cls-1" d="M1853.111,754.249l-1.795,1.951a.846.846,0,0,1-.7.312.953.953,0,0,1-.7-.234.76.76,0,0,1-.312-.7,1.317,1.317,0,0,1,.234-.78l4.916-5.384a.76.76,0,0,1,.7-.312.954.954,0,0,1,.7.234.761.761,0,0,1,.312.7,1.319,1.319,0,0,1-.234.78l-1.794,1.951,6.944,6.32a.848.848,0,0,1,.312.7.761.761,0,0,1-.312.7.847.847,0,0,1-.7.312,1.317,1.317,0,0,1-.78-.234Z" transform="translate(-1835.253 -723.196)"/>
        <path id="Path_32" data-name="Path 32" class="cls-1" d="M1874.367,749.586a.908.908,0,0,1-.78-.156,1.211,1.211,0,0,1-.468-.624l-.625-2.809h0L1870.7,737.8v-1.092h0l.078-.078.078-.078h0l.078-.078h.468c.078,0,.156-.078.234-.078h.858a.076.076,0,0,1,.078.078l7.1,4.447h0l2.419,1.561a1.214,1.214,0,0,1,.468.624.908.908,0,0,1-.156.78c-.078.078-.156.234-.312.312a.938.938,0,0,1-1.17,0l-1.873-1.17L1874.913,746l.468,2.107a1,1,0,0,1-.39,1.092.241.241,0,0,1-.156.078S1874.523,749.586,1874.367,749.586Zm2.575-7.49-3.745-2.341.937,4.291Z" transform="translate(-1839.89 -720.405)"/>
        <path id="Path_33" data-name="Path 33" class="cls-1" d="M1911.095,731.264a6.317,6.317,0,0,1-4.759-.7,6.146,6.146,0,0,1-2.185-8.5,5.991,5.991,0,0,1,3.9-2.809,6.566,6.566,0,0,1,4.057.312.941.941,0,0,1,.546.546,1.328,1.328,0,0,1,0,.78.941.941,0,0,1-.546.546,1.329,1.329,0,0,1-.78,0,3.918,3.918,0,0,0-2.653-.234,4.246,4.246,0,0,0-2.575,1.873,3.717,3.717,0,0,0-.468,3.121,4.478,4.478,0,0,0,1.873,2.575,3.849,3.849,0,0,0,3.2.468,4.3,4.3,0,0,0,2.5-1.717l.078-.078-.546-2.185-3.355.858a1.284,1.284,0,0,1-.78-.078,1.215,1.215,0,0,1-.468-.624.908.908,0,0,1,.156-.78,1.213,1.213,0,0,1,.624-.468l4.369-1.092a.907.907,0,0,1,.78.156,1.211,1.211,0,0,1,.468.624l1.327,5.384a.907.907,0,0,1-.156.78,1.213,1.213,0,0,1-.624.468h0a1.1,1.1,0,0,1-.7-.078.8.8,0,0,1-.468-.39A11.088,11.088,0,0,1,1911.095,731.264Z" transform="translate(-1847.047 -716.596)"/>
        <path id="Path_34" data-name="Path 34" class="cls-1" d="M1934.819,728.384a6.318,6.318,0,0,1-4.447-1.794,5.905,5.905,0,0,1-1.872-4.369,6.318,6.318,0,0,1,1.794-4.447,6.076,6.076,0,0,1,4.447-1.873,6.318,6.318,0,0,1,4.447,1.794,5.905,5.905,0,0,1,1.873,4.369,6.32,6.32,0,0,1-1.794,4.447A5.834,5.834,0,0,1,1934.819,728.384Zm0-10.377a3.837,3.837,0,0,0-2.965,1.248,4.145,4.145,0,0,0,0,5.93,4.263,4.263,0,0,0,2.965,1.248,3.837,3.837,0,0,0,2.965-1.248,4.213,4.213,0,0,0-2.965-7.178Z" transform="translate(-1852.593 -715.9)"/>
        <path id="Path_35" data-name="Path 35" class="cls-1" d="M1966.183,719.951a1.214,1.214,0,0,1,.468.624.908.908,0,0,1-.156.78l-6.086,9.207h0l-.078.078h0l-.078.078h0l-.078.078h0a.273.273,0,0,1-.156.078h-.624c-.078,0-.078,0-.156-.078h-.078c-.078,0-.078,0-.078-.078h0l-.078-.078h0l-.078-.078h0l-.078-.078h0l-.078-.078h0c0-.078,0-.078-.078-.156h0v-.156h0L1957.6,719.17a1.318,1.318,0,0,1,.234-.78,1.05,1.05,0,0,1,.7-.39,1.318,1.318,0,0,1,.78.234,1.05,1.05,0,0,1,.39.7l.78,8.036,4.447-6.788a1.213,1.213,0,0,1,.624-.468,2.194,2.194,0,0,1,.39-.078S1965.948,719.794,1966.183,719.951Z" transform="translate(-1858.989 -716.361)"/>
        <path id="Path_36" data-name="Path 36" class="cls-1" d="M1975.83,736.9a.942.942,0,0,1-.546-.546,1.332,1.332,0,0,1,0-.78l4.213-9.441a.944.944,0,0,1,.546-.546,1.332,1.332,0,0,1,.781,0,.944.944,0,0,1,.546.546,1.328,1.328,0,0,1,0,.78l-4.213,9.441a.943.943,0,0,1-.546.546A.708.708,0,0,1,1975.83,736.9Z" transform="translate(-1862.862 -718.015)"/>
        <path id="Path_37" data-name="Path 37" class="cls-1" d="M1994,747.061h0l-.546-10.221-4.291,6.086a.82.82,0,0,1-.7.39.908.908,0,0,1-.78-.156.82.82,0,0,1-.39-.7.907.907,0,0,1,.156-.78l6.007-8.5a2.07,2.07,0,0,1,.468-.39.863.863,0,0,1,.624,0,1.258,1.258,0,0,1,.546.312.886.886,0,0,1,.234.624l.546,10.221,4.291-6.086a.8.8,0,0,1,.624-.39.908.908,0,0,1,.78.156.819.819,0,0,1,.39.7.908.908,0,0,1-.156.78l-6.008,8.5h-1.248c-.078,0-.078,0-.156-.078h0c-.078,0-.078-.078-.156-.078l-.078-.078h0l-.078-.078h0a.076.076,0,0,0-.078-.078h0a.076.076,0,0,0-.078-.078h0v-.39h0c.078.39.078.39.078.312Z" transform="translate(-1865.507 -719.597)"/>
        <path id="Path_38" data-name="Path 38" class="cls-1" d="M2006.334,758.582a1.318,1.318,0,0,1-.234-.78.989.989,0,0,1,.312-.7l7.8-6.866a1.318,1.318,0,0,1,.78-.234.819.819,0,0,1,.7.39l1.717,2.029a6.087,6.087,0,0,1,1.56,4.525,5.85,5.85,0,0,1-2.106,4.291,6.026,6.026,0,0,1-4.526,1.482,6.23,6.23,0,0,1-4.291-2.185l-1.717-1.951Zm2.263-.624,1.092,1.17a4.1,4.1,0,0,0,2.887,1.4,3.929,3.929,0,0,0,3.043-1.014,4.1,4.1,0,0,0,1.4-2.887,3.928,3.928,0,0,0-1.014-3.043l-1.092-1.248Z" transform="translate(-1869.647 -723.394)"/>
        <path id="Path_39" data-name="Path 39" class="cls-1" d="M2019.8,777.307a1.317,1.317,0,0,1,.234-.78,1.051,1.051,0,0,1,.7-.39l2.887-.234h0l8.348-.7h1.014l.078.078h0l.078.078.078.078h0v.078h0v.078h0v.39h0v1.17a.076.076,0,0,1-.078.078l-5.306,6.476h0l-1.794,2.185a1.051,1.051,0,0,1-.7.39,1.319,1.319,0,0,1-.78-.234,1.073,1.073,0,0,1-.234-.312.958.958,0,0,1,.156-1.17l1.4-1.716-2.341-4.525-2.185.156a.944.944,0,0,1-1.014-.546l-.078-.156S2019.8,777.385,2019.8,777.307Zm7.022,3.511,2.809-3.355-4.369.39Z" transform="translate(-1872.658 -728.932)"/>
      </g>
      <g id="Group_4" data-name="Group 4" transform="translate(16.482 68.576)">
        <path id="Path_40" data-name="Path 40" class="cls-1" d="M1998.337,814.565c-9.44-7.022-27.62-12.718-41.586-10.143a74.233,74.233,0,0,0-25.045,9.519.6.6,0,0,0-.39.156l-.156.156c-.936.624-1.951,1.17-2.887,1.872-9.441,6.242-20.364-.078-29.1-5.149-1.17-.7-2.341-1.4-3.433-2.029a11.7,11.7,0,0,0-5.93-1.716,8.162,8.162,0,0,0-3.433.624s-3.121,2.028-3.121,2.809a.471.471,0,0,0,.234.468l26.138,15.448c-1.014.468-3.745,1.248-11,.312a85.848,85.848,0,0,1-15.995-4.057c-1.014-.312-1.95-.7-2.965-1.092-3.979-1.482-8.036-3.043-12.484-2.5-5.462.624-9.051,3.355-9.207,4.213a.518.518,0,0,0,.156.546l2.185,1.56c-2.575.078-7.646.936-9.831,5.7a.354.354,0,0,0,0,.39c.078.156.156.234.312.234l9.909,3.667a8.561,8.561,0,0,0-3.277,5.227.444.444,0,0,0,.312.546c1.17.546,27.308,12.094,38.543,12.172-.546.858-1.17,2.029-.858,2.887a1.072,1.072,0,0,0,1.014.7c.234,0,.468.078.78.078a9.918,9.918,0,0,0,3.355-.7c.625-.156,1.249-.39,1.873-.546,3.667-.78,7.646-.39,11.469,0a56.1,56.1,0,0,0,7.178.39c8.817-.156,18.1-4.6,27.074-8.973a114.256,114.256,0,0,1,14.434-6.164c5.7-1.795,16.7,1.014,21.846,5.618a.481.481,0,0,0,.546.078c2.574-1.327,6.866-5.93,10.611-14.746a46.274,46.274,0,0,0,2.887-11.313C1998.493,819.793,1999.039,815.112,1998.337,814.565Zm-113.913-4.057a15.717,15.717,0,0,1,2.341-1.794,7.314,7.314,0,0,1,3.043-.546,10.752,10.752,0,0,1,5.462,1.638c1.092.624,2.263,1.248,3.433,1.951,8.973,5.228,20.208,11.782,30.2,5.15.156-.078.312-.234.468-.312a65.519,65.519,0,0,0-4.135,6.554h0c-3.511,2.5-13.264,2.809-14.512,2.887C1908.844,825.02,1887.7,812.459,1884.423,810.508Zm-25.28,12.952a15.593,15.593,0,0,1,8.193-3.2c4.135-.468,8.114,1.014,12.015,2.419.936.39,1.95.78,2.965,1.092a85.661,85.661,0,0,0,16.151,4.057c8.973,1.248,11.547-.234,12.171-.78,1.4,0,9.285-.312,13.576-2.263a13.354,13.354,0,0,1-1.015,1.794c-.858,1.638-1.794,3.277-2.731,4.915-.078,0-.156.078-.234.156a6.073,6.073,0,0,1-2.809,1.092c-.156,0-.39.078-.546.078a65.751,65.751,0,0,1-10.221,1.014,69.578,69.578,0,0,1-11.625-.468,41.689,41.689,0,0,1-9.285-2.419c-6.4-2.5-14.9-5.384-23.875-5.462Zm-7.568,7.646c2.887-5.305,10.143-4.681,10.221-4.6h0c8.895.078,17.321,2.887,23.719,5.384a38.754,38.754,0,0,0,9.519,2.419,61.409,61.409,0,0,0,8.66.546c1.014,0,2.029,0,3.043-.078a67.671,67.671,0,0,0,10.377-1.014c.156,0,.312-.078.546-.078a9.376,9.376,0,0,0,1.873-.468,31.648,31.648,0,0,1-1.795,2.653,9.828,9.828,0,0,1-2.341,2.419c-5.071,3.9-13.03,3.589-18.647,3.043a115.681,115.681,0,0,1-19.35-4.291,73.647,73.647,0,0,0-9.519-2.263c-1.638-.234-4.057-.624-6.008.078Zm143.016.546c-3.277,7.724-7.256,12.562-9.909,14.122a13.619,13.619,0,0,0-2.029-1.482c1.4-.78,4.135-2.887,5.774-7.88a.494.494,0,0,0-.937-.312c-1.795,5.461-5.072,7.256-5.852,7.568-.312-.156-.624-.39-1.014-.546a10.727,10.727,0,0,0,4.6-5.54.493.493,0,1,0-.936-.312,10.11,10.11,0,0,1-4.525,5.227c-.078,0-.078.078-.156.078-5.774-2.731-13.186-3.979-17.633-2.5a123.159,123.159,0,0,0-14.512,6.242c-8.895,4.291-18.1,8.66-26.684,8.816a54.1,54.1,0,0,1-7.1-.39,42.009,42.009,0,0,0-11.7,0,14.275,14.275,0,0,0-1.95.546,8.665,8.665,0,0,1-3.667.624c-.234,0-.234-.078-.234-.156-.156-.39.546-1.717,1.248-2.653a14.892,14.892,0,0,1,9.285-4.76c1.795-.234,3.745-.468,5.539-.78,2.653-.39,5.384-.7,8.037-1.014l.7-.078c4.915-.546,16.463-1.873,19.116-9.6a.494.494,0,0,0-.937-.312c-1.092,3.355-4.135,5.384-7.49,6.71A60.424,60.424,0,0,1,1936,833.213h0a32.9,32.9,0,0,1,3.745-5.54c8.271-9.909,17.243-14.278,29.259-14.278h.312a.468.468,0,0,0,0-.936c-12.484-.078-21.768,4.447-30.351,14.668a30.543,30.543,0,0,0-2.341,3.2,38.354,38.354,0,0,1,1.327-3.9c.312-.858.624-1.716.936-2.653a17.777,17.777,0,0,1,7.178-9.129.509.509,0,1,0-.546-.858,18.888,18.888,0,0,0-7.568,9.6q-.469,1.4-.937,2.575a31.016,31.016,0,0,0-1.872,6.788,74.376,74.376,0,0,0-4.6,10.767v.078a53.58,53.58,0,0,1-9.6,1.873l-.7.078c-2.653.312-5.384.7-8.036,1.014-1.794.234-3.745.546-5.54.78a15.872,15.872,0,0,0-9.753,4.915c-9.831.468-35.032-10.377-38.465-11.859a7.208,7.208,0,0,1,2.809-4.213h0c1.873-1.17,4.759-.78,6.632-.468a75.459,75.459,0,0,1,9.441,2.185,117.466,117.466,0,0,0,19.506,4.291c1.794.156,3.9.39,6.085.39,4.682,0,9.675-.78,13.264-3.589a13.421,13.421,0,0,0,2.5-2.653,76.6,76.6,0,0,0,5.54-9.441,65.688,65.688,0,0,1,7.646-12.094,73.178,73.178,0,0,1,25.123-9.6c13.654-2.5,31.365,3.043,40.728,9.909A43.4,43.4,0,0,1,1994.592,831.652Z" transform="translate(-1850.425 -803.792)"/>
      </g>
      <circle id="Ellipse_1" data-name="Ellipse 1" class="cls-1" cx="2.887" cy="2.887" r="2.887" transform="translate(0 82.002)"/>
    </g>
  </g>
</svg>
