<svg id="Capa_1" data-name="Capa 1" xmlns="http://www.w3.org/2000/svg" viewBox="0 0 240.16 281.9"><defs><style>.cls-1,.cls-2,.cls-3{fill:#fff;}.cls-2{font-size:24px;}.cls-2,.cls-3{font-family:ArialRoundedMTBold, Arial Rounded MT Bold;}.cls-3{font-size:18px;}</style></defs><title>logo2</title><path class="cls-1" d="M133.69,101.91c-.15,1-.3,1.87-.4,2.77A8.45,8.45,0,0,0,135,110.8a16.14,16.14,0,0,0,1.44,1.63l.25.26.37.4a7.09,7.09,0,0,1,.73,1l.33.51a12.94,12.94,0,0,0-1.21.46,20.09,20.09,0,0,1-3.57,1.15l-.18,0c-.74.19-1.5.38-2.24.64-1.67.56-4.41,1.79-3.89,3.62.4,1.37,2,1.94,3.38,2.4.37.13.71.25,1,.37a19.83,19.83,0,0,1,2.41,1.47c.55.37,1.19.81,1.81,1.16a7.87,7.87,0,0,0,2.93.8A13.19,13.19,0,0,1,140,127a12.71,12.71,0,0,1,1.47.47l.15.05a10.91,10.91,0,0,0,2.41.66,5.38,5.38,0,0,0,1,.06,5,5,0,0,0,.67,0,7.61,7.61,0,0,0,.88-.14l.23,0a8.55,8.55,0,0,1,2-.23,4.32,4.32,0,0,0,1.72,5.43,7.77,7.77,0,0,0,1.08.54,3.58,3.58,0,0,0,.4,2.3c.32.81.51,1.33.18,1.9l-.25.43a.5.5,0,0,0,.05.54.48.48,0,0,0,.31.17.55.55,0,0,0,.22,0l.46-.16c.49-.18,1-.32,1.57-.48a17.47,17.47,0,0,0,3.21-1.14,8.15,8.15,0,0,0,2.22-1.88,6.45,6.45,0,0,1,1.8-1.56,13.23,13.23,0,0,0,6.75-5.92l.57.19a21,21,0,0,0,4.14,1.08,11.22,11.22,0,0,0,1.66.1H175l.59,0a10.39,10.39,0,0,0,4-.71,8.66,8.66,0,0,0,1.67-1.17,13.09,13.09,0,0,1,1.07-.81,8.72,8.72,0,0,1,1.35-.62,5,5,0,0,0,2.9-2.11,7.22,7.22,0,0,0,.48-4.27,10.91,10.91,0,0,1,2.26-.57l.39-.07.8-.12.16,0c2.14-.3,3.13-.47,3.52-.84a1.84,1.84,0,0,0,.53-1.84c-.44-2.26-4-5.48-5.16-5.93a10,10,0,0,0-5.59-.64l.58-.84c.32-.45.61-.88.87-1.28.09-.16.17-.28.25-.4a3.7,3.7,0,0,1,.92-1.12,13.59,13.59,0,0,0,1.65-1.66,21.66,21.66,0,0,0,3.44-6.66l.09-.24c.38-1,.78-2.06,1.26-3.07l.11-.24a.48.48,0,0,0,0-.45.48.48,0,0,0-.38-.23l-.26,0a4.12,4.12,0,0,0-2.63,1,5.21,5.21,0,0,1-1.28.69c-.45.12-.86.18-1.26.25l-.15,0a10,10,0,0,0-2.47.65c-1.12.5-2.33.95-3.5,1.39l-.3.12c-1.13.42-2.35.88-3.55,1.39a9.92,9.92,0,0,1,.33-1.3,8.32,8.32,0,0,0,.35-1.39A8.52,8.52,0,0,0,177,91a15.72,15.72,0,0,0-2.29-3.86c-.3-.33-.63-.66-1-1a6.3,6.3,0,0,1-1.76-2.29l-.18-.52a.51.51,0,0,0-.46-.32.48.48,0,0,0-.45.34l-.17.53a3.41,3.41,0,0,0,.06,1.77,3.91,3.91,0,0,1,.13.85c-.11-.22-.22-.47-.34-.72-.56-1.24-1.51-3.31-3.64-2.4a1.75,1.75,0,0,0-.42.26c-1.45-.4-2.69.85-3.6,1.78l-.21.21c-.13.13-.26.27-.4.39a4.12,4.12,0,0,0-.84,1.1,4.65,4.65,0,0,1-.38.56c-.25.29-.28.29-.59.29a3.58,3.58,0,0,0-1.08.15.86.86,0,0,0-.24.11l-.12-.3a3.82,3.82,0,0,0-.57-1.06A2.61,2.61,0,0,0,157.2,86a3.19,3.19,0,0,1-.48-.25,2.05,2.05,0,0,1-1.11-2.11v-.16a.48.48,0,0,0-.39-.48l-.13,0c-2.05-.4-3.06,1.54-3.74,2.84a10.15,10.15,0,0,1-.52.91c-.16.24-.38.52-.65.85a13.15,13.15,0,0,0-1,1.38c-.35-.44-.73-.84-1.1-1.24A5,5,0,0,1,146.37,85l0-.39a.48.48,0,0,0-.31-.41.46.46,0,0,0-.5.09l-.29.28A20.92,20.92,0,0,1,143.51,86a14.45,14.45,0,0,0-2.6,2.28,11.78,11.78,0,0,0-1.6,2.9l-.24.53a1.75,1.75,0,0,0-.52.24,3.42,3.42,0,0,0-1.34,2.26,3.21,3.21,0,0,1-1.85-.66c-.08-.36-.18-.72-.29-1.09l-.24-.74a.48.48,0,0,0-.5-.33.48.48,0,0,0-.43.4l-.12.77a2.13,2.13,0,0,0,.33,1.58,23.34,23.34,0,0,1-.38,7.61l.36.06a.06.06,0,0,1,0,0Zm12.8,24.82c-.34.07-.66.14-1,.17a7.14,7.14,0,0,1-3.52-.61,16.34,16.34,0,0,0-1.71-.56,14.06,14.06,0,0,0-1.56-.29l-.14,0a6.47,6.47,0,0,1-2.4-.63c-.48-.27-.94-.58-1.43-.9l-.28-.19a19.81,19.81,0,0,0-2.6-1.58,11,11,0,0,0-1.09-.42c-.93-.32-2.33-.8-2.53-1.52-.13-.43,1-1.3,3-2,.76-.25,1.56-.45,2.31-.64s1.72-.43,2.6-.74c.44-.16.84-.33,1.21-.49,1.15-.49,1.72-.74,2.72-.12.31.2.6.4.88.6l.3.21c1.69,1.2,3.29,2.33,5.83,1.43.33-.12.65-.26.94-.39a3.77,3.77,0,0,1,2.14-.47,8.31,8.31,0,0,1,2,.59c.46.18.94.36,1.43.5a12.48,12.48,0,0,0,4.63.38c-.58.64-1.14,1.31-1.69,2l-.18.23A32.65,32.65,0,0,1,153,125a7.41,7.41,0,0,1-1.9,1.11,11.86,11.86,0,0,0-1.13.56A6.07,6.07,0,0,0,146.49,126.73Zm12.5,7.8a6.6,6.6,0,0,1-1.85,1.6,16.5,16.5,0,0,1-3,1.05l-.46.13h0a4.65,4.65,0,0,0-.48-1.81,2.63,2.63,0,0,1-.33-1.33,13.19,13.19,0,0,0,1.58.29c.47.07.93.1,1.34.13s.91,0,1.37,0a17.79,17.79,0,0,0,1.85-.12Zm2.43-1.94a.11.11,0,0,0-.08,0l-.07,0c-.29.1-.58.2-.88.28-2.31.6-6.92.58-9.16-.81a2.72,2.72,0,0,1-1.33-1.72c-.43-2.06.28-2.39,1.71-3a8.8,8.8,0,0,0,2.23-1.33,32.36,32.36,0,0,0,3.49-3.8l.21-.26a39.24,39.24,0,0,1,2.81-3.16,7.47,7.47,0,0,1,1.34-1h0c.17-.09.34-.18.5-.28a15.9,15.9,0,0,0,1.66,4.84l.16.34a13.94,13.94,0,0,0,2,3,3.57,3.57,0,0,0,1.05.79l.19-.32h0l-.18.33h0c.45.24.52.3.51.44A12.26,12.26,0,0,1,161.42,132.59Zm24-9.37a3.94,3.94,0,0,1-2.22,1.53,9.6,9.6,0,0,0-1.56.72,9.16,9.16,0,0,0-1.11.83l-.12.09a7.74,7.74,0,0,1-1.39,1,9.89,9.89,0,0,1-3.48.59h-.34a14.81,14.81,0,0,1-5.67-1.1l-.67-.22a1.89,1.89,0,0,0-1.17-1.29,2.28,2.28,0,0,1-.68-.48,12.67,12.67,0,0,1-1.78-2.73l-.16-.33c-.59-1.23-2.14-4.52-1.31-5.68a2.88,2.88,0,0,1,.36-.31c1.57,2.34,4.51,2.87,7.16,3.34l.34.06c.45.08.89.15,1.31.24a14.83,14.83,0,0,1,2.36.81,9.77,9.77,0,0,0,4.12,1h0a24.19,24.19,0,0,0,3.58-.35,7.28,7.28,0,0,0,1.21-.35l.12,0a5.76,5.76,0,0,1,1.41-.39A5.5,5.5,0,0,1,185.41,123.22Zm3.68-11.77c.91.34,4,3.22,4.31,5,.09.42-.05.55-.07.58a19.65,19.65,0,0,1-2.85.52c-.48.06-.87.12-1.09.17l-.4.07a6.42,6.42,0,0,0-3.11,1.07,6.87,6.87,0,0,0-2,.47,7.72,7.72,0,0,1-1.1.34,20.74,20.74,0,0,1-3.38.33h-.06a8.81,8.81,0,0,1-3.63-.92,14.32,14.32,0,0,0-2.52-.85c-.54-.12-1.1-.22-1.71-.32-2.23-.39-4.51-.8-5.87-2.26l2.06.07h.17c1.44.07,2.75.12,4.12.08a13.88,13.88,0,0,0,9.35-3.37C183.31,110.58,185.92,110.26,189.09,111.45Zm-7.65-12.72c1.25-.47,2.55-1,3.79-1.5a8.13,8.13,0,0,1,2.14-.55c.48-.08,1-.17,1.52-.31a5.3,5.3,0,0,0,1.67-.86l.1-.06.58-.39c-.29.71-.56,1.41-.81,2.08l0,.12a20.43,20.43,0,0,1-3.18,6.15,14.38,14.38,0,0,1-1.5,1.53,4.88,4.88,0,0,0-1.2,1.43c-.06.11-.13.22-.23.37s-.35.53-.55.82l-.27.4a17.69,17.69,0,0,0-1.5,2.36,7.26,7.26,0,0,0-1.53,1.11,12.63,12.63,0,0,1-8.49,3c-1.27,0-2.53,0-3.75-.06h-.28l-2-.07a11.38,11.38,0,0,0,1.59-2.37c0-.07.06-.14.1-.22,1.48-.71,2.41-2.43,3.24-4l.12-.23c.21-.37.4-.71.59-1,.3-.48.59-1,.87-1.46,1-1.64,1.84-3.19,3.53-4.05A52.23,52.23,0,0,1,181.44,98.73Zm-9.27-12.25.64.62c.28.28.58.57.84.88a13.8,13.8,0,0,1,2.1,3.57,7.06,7.06,0,0,1,.94,4.51,4.2,4.2,0,0,1-.16.7,8.43,8.43,0,0,0-.93-3.24c-.18-.41-.35-.94-.53-1.49-.56-1.72-1.28-4-3-4.72A2,2,0,0,0,172.17,86.48Zm-5.52.09a4.38,4.38,0,0,0,.26-1c.12-.64.19-.91.48-1,.76-.32,1.12,0,1.91,1.73a4.84,4.84,0,0,0,1.27,2l.06,0a.59.59,0,0,0,.17.1h.08l0,0c1.58.09,2.32,2.27,2.89,4l.05.17c.18.52.35,1,.53,1.43a7.54,7.54,0,0,1,.83,2.94,5.62,5.62,0,0,1-.05.93,3.61,3.61,0,0,0,.17,1.91c-2,1.06-3.06,2.84-4.05,4.56l-.09.15c-.23.42-.48.84-.74,1.25s-.43.72-.65,1.12l-.11.2a16.33,16.33,0,0,1-1.45,2.35,10.07,10.07,0,0,0-2.36-7.45,12.34,12.34,0,0,0-2.31-1.85,11.23,11.23,0,0,1-1.83-1.42A15.63,15.63,0,0,0,160,97.18a13.06,13.06,0,0,1,1.34-4.47,10.57,10.57,0,0,1,2.45-2.77c.45-.39.9-.8,1.36-1.26A6.77,6.77,0,0,0,166.65,86.57Zm-6.91,2.76a2.1,2.1,0,0,1,.69-.08,1.82,1.82,0,0,0,1.59-.77,5,5,0,0,0,.56-.83,3,3,0,0,1,.55-.71c.2-.18.39-.38.66-.65a4.55,4.55,0,0,1,1.91-1.45c0,.17-.07.34-.1.5a3.12,3.12,0,0,1-.17.7,5.47,5.47,0,0,1-1.28,1.71c-.33.35-.69.67-1,1l-.25.22a11.27,11.27,0,0,0-2.73,3.14,14.36,14.36,0,0,0-1.4,4.22l-.71-.48a2.34,2.34,0,0,1-.07-.32C157.67,93.55,158.94,89.57,159.74,89.33Zm-9.69,1c-.07-.39.75-1.42,1.22-2,.25-.32.49-.62.66-.88s.39-.66.59-1c.61-1.13,1.11-2,1.79-2.15A3.25,3.25,0,0,0,156,86.8a3.73,3.73,0,0,0,.78.41,1.21,1.21,0,0,1,.62.43,2.43,2.43,0,0,1,.37.74,5,5,0,0,0,.38.78,12.32,12.32,0,0,0-1.53,5.72,13.42,13.42,0,0,0-3.71-1.65,6.09,6.09,0,0,1-1.36-.7,8.11,8.11,0,0,0-1.22-.67,3.75,3.75,0,0,0-.25-1.48ZM149.67,93a7.37,7.37,0,0,1,1.2.65,6.8,6.8,0,0,0,1.64.82,11.83,11.83,0,0,1,3.66,1.69l.83.54a1.23,1.23,0,0,0,.8.54l.84.58a.48.48,0,0,0,.37.27,14,14,0,0,1,1.79,1.54,13.33,13.33,0,0,0,2.1,1.64,10.51,10.51,0,0,1,2,1.59c1.81,2,2.85,5.69,1.45,8.41a9.47,9.47,0,0,1-1.88,2.6,5.92,5.92,0,0,1-.71.54,4.46,4.46,0,0,0-1.21,1.06,6.1,6.1,0,0,1-1.5,1.17,16.73,16.73,0,0,1-1.65.7l-.18.06a9.21,9.21,0,0,1-5.2-.07,11.53,11.53,0,0,1-1.13-.38l-.17-.07a10.14,10.14,0,0,0-2.32-.67,4.25,4.25,0,0,0-1.75.15,12.6,12.6,0,0,0-1.51-1,5.07,5.07,0,0,1-2.25-1.91,13.11,13.11,0,0,1-.74-1.89c-.14-.44-.29-.85-.43-1.23a18.86,18.86,0,0,1-.72-2.46c-.06-.26-.13-.53-.2-.8l-.07-.28c-.66-2.48.07-4.15,1.36-6.6.22-.44.43-.91.63-1.36.67-1.53,1.29-3,2.79-3.36a.51.51,0,0,0,.29-.23l0-.08A5.44,5.44,0,0,1,149.67,93Zm-9.13-1.42a11.2,11.2,0,0,1,1.39-2.52A14.3,14.3,0,0,1,144.3,87l.14-.1q.45-.33.9-.69a8.82,8.82,0,0,0,1.79,2.36c1,1,1.91,2,1.85,3.3A5.87,5.87,0,0,0,147,94a5.12,5.12,0,0,1-1.78-.5,7.69,7.69,0,0,0-1.07-.38,6.79,6.79,0,0,0-.95-.15,3.72,3.72,0,0,1-1-.17,3.35,3.35,0,0,1-.66-.46,3.4,3.4,0,0,0-1-.57l-.1,0Zm-3.46,5.85a2.39,2.39,0,0,1,.55-.86,2.73,2.73,0,0,0,.81-1.7,2.58,2.58,0,0,1,.82-1.87,1,1,0,0,1,.94,0,2.18,2.18,0,0,1,.62.41,4.12,4.12,0,0,0,.89.57,4.46,4.46,0,0,0,1.39.28,7,7,0,0,1,.74.1c.25.07.57.2.9.33l.88.34a8.37,8.37,0,0,0-2.12,3.33c-.19.42-.39.87-.6,1.28-1.38,2.67-2.24,4.64-1.45,7.55.09.34.17.68.26,1a21,21,0,0,0,.76,2.63q.21.54.42,1.17c0,.08.05.17.08.25h0a5.73,5.73,0,0,1-1.39-1.71,7.31,7.31,0,0,1-.39-1.5l0-.11a9.72,9.72,0,0,0-.38-1.62c-.23-.66-.42-1.37-.62-2.13l-.06-.21a16.44,16.44,0,0,0-2-5.08q-.21-.3-.42-.57C137.17,98.65,136.9,98.25,137.08,97.47Zm-.24-2-.26.31a4,4,0,0,0-.69,1.06s0-.09-.07-.14l-.19-.38c0-.38,0-.77,0-1.16A6,6,0,0,0,136.84,95.48Zm-2.22,9.35c.1-.91.24-1.83.42-2.91s.36-2.23.47-3.35a1.72,1.72,0,0,0,.34.24,5,5,0,0,0,.82,1.37c.12.15.26.33.38.51a15,15,0,0,1,1.76,4.66l.08.29c.2.76.39,1.47.63,2.15a9.56,9.56,0,0,1,.34,1.44,8.19,8.19,0,0,0,.49,1.87,6.46,6.46,0,0,0,1.7,2.15,8.38,8.38,0,0,1,1.14,1.26,6.84,6.84,0,0,1,.4.66,3.57,3.57,0,0,0,1.43,1.56,8,8,0,0,0,1.25.58c-1.64.4-2.72-.36-4.17-1.39-.39-.28-.8-.57-1.24-.85a3.68,3.68,0,0,0-1.12-.49h0a5.11,5.11,0,0,1-.85-1.14,7.17,7.17,0,0,0-.87-1.22l-.54-.59-.14-.14A16.16,16.16,0,0,1,136,110,7.09,7.09,0,0,1,134.62,104.83Z" transform="translate(-36.05 -29.08)"/><path class="cls-1" d="M199.79,105.72c0,2.83,4.39,2.83,4.39,0S199.79,102.89,199.79,105.72Z" transform="translate(-36.05 -29.08)"/><path class="cls-1" d="M158.79,75.73a1.67,1.67,0,0,0,3.34,0A1.67,1.67,0,0,0,158.79,75.73Z" transform="translate(-36.05 -29.08)"/><path class="cls-1" d="M120.49,110.43a1.43,1.43,0,1,0,2.85,0A1.43,1.43,0,1,0,120.49,110.43Z" transform="translate(-36.05 -29.08)"/><path class="cls-1" d="M176.76,52.38Z" transform="translate(-36.05 -29.08)"/><path class="cls-1" d="M256.79,95.35Z" transform="translate(-36.05 -29.08)"/><path class="cls-1" d="M260.73,139.7c-12.77-9.46-37.26-17.18-56.12-13.7a100.28,100.28,0,0,0-33.8,12.82.65.65,0,0,0-.52.21l-.19.22c-1.31.8-2.62,1.62-3.92,2.48-12.74,8.46-27.47-.11-39.31-7-1.63-1-3.17-1.85-4.68-2.69a16.78,16.78,0,0,0-8-2.34,11,11,0,0,0-4.61.86c-.05,0-4.17,2.72-4.23,3.79a.71.71,0,0,0,.32.65L141,155.87c-1.32.67-5.09,1.74-14.81.39a114.85,114.85,0,0,1-21.58-5.42c-6.72-2.3-13.47-5.71-20.79-4.83s-12.2,4.57-12.47,5.64a.67.67,0,0,0,.26.69l2.9,2.09c-3.49.15-10.34,1.3-13.31,7.67a.67.67,0,0,0,.37.9l13.35,4.92a11.84,11.84,0,0,0-4.46,7,.67.67,0,0,0,.37.77c1.54.68,36.81,16.3,52,16.4-.71,1.12-1.56,2.78-1.12,3.86a1.59,1.59,0,0,0,1.4,1,12.59,12.59,0,0,0,5.52-.86c.81-.25,1.65-.52,2.48-.69,4.94-1,10.27-.51,15.43,0a88.56,88.56,0,0,0,9.73.55c11.91-.24,24.46-6.25,36.58-12.06,6.86-3.28,13.33-6.39,19.47-8.37,7.68-2.47,22.57,1.37,29.51,7.61a.67.67,0,0,0,.74.1c3.47-1.76,9.32-8,14.36-19.92a58.5,58.5,0,0,0,3.9-15.27C260.92,146.74,261.65,140.38,260.73,139.7ZM107,134.24a26.63,26.63,0,0,1,3.16-2.47,9.53,9.53,0,0,1,4.06-.75,15.61,15.61,0,0,1,7.34,2.18c1.5.84,3,1.73,4.66,2.67,12.15,7.07,27.27,15.87,40.7,7l.68-.44a81.66,81.66,0,0,0-5.6,8.88l-.05,0c-4.72,3.42-17.92,3.81-19.62,3.85ZM72.9,151.67a21.47,21.47,0,0,1,11-4.36c5.61-.68,11,1.35,16.2,3.31,1.32.49,2.67,1,4,1.46A115.67,115.67,0,0,0,126,157.56c12.1,1.68,15.56-.27,16.46-1.1,1.92,0,12.52-.38,18.36-3-.45.83-.9,1.65-1.34,2.48-1.18,2.21-2.39,4.45-3.68,6.67a.54.54,0,0,0-.27.16c-.87.88-2.44,1.18-3.84,1.45l-.71.15a81.47,81.47,0,0,1-13.81,1.36,90.81,90.81,0,0,1-15.63-.65A53.43,53.43,0,0,1,109,161.85c-8.66-3.39-20.14-7.28-32.26-7.39ZM62.68,162c3.91-7.16,13.7-6.27,13.8-6.25h0c12,.06,23.43,3.93,32,7.3a54.51,54.51,0,0,0,12.79,3.29,93.41,93.41,0,0,0,15.86.67,82.56,82.56,0,0,0,14-1.4l.69-.14a16.46,16.46,0,0,0,2.49-.62c-.76,1.23-1.54,2.43-2.37,3.6-6.21,8.74-18.81,8.39-28.3,7.4-8.87-.92-17.65-3.39-26.14-5.78a100.79,100.79,0,0,0-12.86-3c-2.25-.33-5.45-.79-8.16.08Zm193,.73c-4.43,10.44-9.81,17-13.36,19.05a25,25,0,0,0-2.69-2c1.84-1,5.62-3.91,7.81-10.64a.62.62,0,0,0-.41-.8.63.63,0,0,0-.8.4c-2.4,7.37-6.85,9.79-7.88,10.26-.43-.25-.89-.49-1.35-.73a14.34,14.34,0,0,0,6.2-7.48.65.65,0,0,0-.41-.8.64.64,0,0,0-.8.42c-1.49,4.67-6.11,7-6.15,7.06a.59.59,0,0,0-.18.13c-7.76-3.64-17.83-5.32-23.78-3.41-6.23,2-12.74,5.13-19.63,8.43-12,5.76-24.42,11.7-36,11.94a86.43,86.43,0,0,1-9.58-.55c-5.25-.49-10.68-1-15.82,0-.89.19-1.76.46-2.61.73a11.27,11.27,0,0,1-4.95.81c-.3,0-.34-.14-.35-.17-.24-.57.69-2.33,1.7-3.63a20.2,20.2,0,0,1,12.53-6.38c2.46-.31,5-.66,7.48-1,3.57-.49,7.25-1,10.81-1.42l.89-.1c6.65-.75,22.22-2.5,25.75-13a.65.65,0,0,0-1.24-.42c-1.52,4.52-5.59,7.29-10.14,9A91.81,91.81,0,0,1,176.51,165l0,0c6.87-12.48,19.11-22.68,33.19-25.65a54.82,54.82,0,0,1,11.71-1.12.67.67,0,0,0,.67-.65.66.66,0,0,0-.66-.66A51.67,51.67,0,0,0,202,140.23,49.77,49.77,0,0,0,185.77,151a57.65,57.65,0,0,0-8.42,10c.49-1.79,1.1-3.5,1.74-5.28.41-1.13.84-2.3,1.24-3.53a24.2,24.2,0,0,1,9.7-12.31.66.66,0,0,0-.73-1.1,26.62,26.62,0,0,0-7.24,7.07c-2,2.91-3,6.14-4.2,9.43a42.64,42.64,0,0,0-2.55,9.16,96.8,96.8,0,0,0-6.2,14.55.4.4,0,0,0,0,.15,64.94,64.94,0,0,1-12.94,2.5l-.9.1c-3.57.42-7.27.92-10.84,1.42l-7.47,1a21.64,21.64,0,0,0-13.17,6.62c-13.28.62-47.31-14-51.91-16.05A10.3,10.3,0,0,1,75.61,169h0c2.54-1.57,6.38-1,8.92-.64a101.87,101.87,0,0,1,12.69,3c8.55,2.41,17.38,4.89,26.36,5.83a81,81,0,0,0,8.17.47c6.27,0,13-1,17.94-4.85,2.54-2,4.28-4.72,5.95-7.44,1.77-2.88,3.37-5.85,5-8.82,3-5.6,6.1-11.37,10.34-16.27a99.13,99.13,0,0,1,33.89-13c18.44-3.4,42.36,4.11,55,13.36C260.11,142.26,259.66,153.34,255.66,162.75Z" transform="translate(-36.05 -29.08)"/><circle class="cls-1" cx="6.71" cy="118.1" r="3.94"/><text class="cls-2" transform="matrix(0.24, -0.97, 0.97, 0.24, 20.05, 103.61)">T</text><text class="cls-2" transform="translate(23.63 89.9) rotate(-70.6)"> </text><text class="cls-2" transform="matrix(0.43, -0.9, 0.9, 0.43, 25, 84.97)">A</text><text class="cls-2" transform="translate(32.24 70.33) rotate(-58.45)"> </text><text class="cls-2" transform="matrix(0.61, -0.8, 0.8, 0.61, 34.68, 65.8)">S</text><text class="cls-2" transform="matrix(0.68, -0.73, 0.73, 0.68, 44.02, 53.89)"> </text><text class="cls-2" transform="matrix(0.76, -0.65, 0.65, 0.76, 47.19, 49.93)">H</text><text class="cls-2" transform="translate(60.48 38.95) rotate(-34.04)"> </text><text class="cls-2" transform="translate(64.48 35.82) rotate(-27.77)">A</text><text class="cls-2" transform="translate(79.03 28.45) rotate(-21.42)"> </text><text class="cls-2" transform="matrix(0.95, -0.31, 0.31, 0.95, 84.14, 26.43)"> </text><text class="cls-2" transform="matrix(0.97, -0.26, 0.26, 0.97, 89.37, 24.7)"> </text><text class="cls-2" transform="translate(94.13 23.03) rotate(-8.32)">C</text><text class="cls-2" transform="translate(110.77 20.88) rotate(-1.85)"> </text><text class="cls-2" transform="translate(115.76 20.28) rotate(4.89)">O</text><text class="cls-2" transform="matrix(0.98, 0.2, -0.2, 0.98, 133.62, 22.13)"> </text><text class="cls-2" transform="translate(138.66 22.8) rotate(18.13)">R</text><text class="cls-2" transform="translate(154.06 28.12) rotate(24.49)"> </text><text class="cls-2" transform="matrix(0.86, 0.52, -0.52, 0.86, 158.8, 29.83)">N</text><text class="cls-2" transform="translate(173.43 38.99) rotate(37.56)"> </text><text class="cls-2" transform="translate(177.68 41.88) rotate(43.4)">E</text><text class="cls-2" transform="matrix(0.65, 0.76, -0.76, 0.65, 188.52, 52.42)"> </text><text class="cls-2" transform="translate(192.09 56.19) rotate(54.57)">L</text><text class="cls-2" transform="matrix(0.5, 0.87, -0.87, 0.5, 199.89, 67.43)"> </text><text class="cls-2" transform="translate(202.66 72.15) rotate(63.47)">I</text><text class="cls-2" transform="translate(205.78 78.4) rotate(67)"> </text><text class="cls-2" transform="translate(208.08 82.93) rotate(73.06)">A</text><text class="cls-3" transform="matrix(0.37, 0.93, -0.93, 0.37, 9.65, 157.21)">U</text><text class="cls-3" transform="matrix(0.45, 0.89, -0.89, 0.45, 15.13, 170.35)">I</text><text class="cls-3" transform="matrix(0.49, 0.87, -0.87, 0.49, 17.82, 175.65)"> </text><text class="cls-3" transform="translate(20.13 180.12) rotate(56.08)">U</text><text class="cls-3" transform="matrix(0.65, 0.76, -0.76, 0.65, 28.28, 192.02)">X</text><text class="cls-3" transform="translate(35.7 200.58) rotate(45.72)"> </text><text class="cls-3" transform="matrix(0.75, 0.66, -0.66, 0.75, 39.11, 204.31)">D</text><text class="cls-3" transform="translate(49.78 213.5) rotate(34.46)">E</text><text class="cls-3" transform="translate(60.3 220.66) rotate(28.18)">S</text><text class="cls-3" transform="translate(71.42 226.45) rotate(23.56)">I</text><text class="cls-3" transform="translate(77.08 229.1) rotate(18.32)">G</text><text class="cls-3" transform="translate(91.44 233.78) rotate(10.93)">N</text><text class="cls-3" transform="matrix(1, 0.07, -0.07, 1, 105.69, 236.44)">E</text><text class="cls-3" transform="translate(118.44 237.32) rotate(-2.71)">R</text><text class="cls-3" transform="matrix(0.99, -0.13, 0.13, 0.99, 131.93, 236.49)"> </text><text class="cls-3" transform="matrix(0.98, -0.22, 0.22, 0.98, 136.97, 236)">&amp;</text><text class="cls-3" transform="translate(150.82 232.71) rotate(-17.46)"> </text><text class="cls-3" transform="matrix(0.94, -0.35, 0.35, 0.94, 155.44, 231.26)">I</text><text class="cls-3" transform="translate(161.41 229.27) rotate(-25.84)">M</text><text class="cls-3" transform="translate(175.64 222.24) rotate(-33.39)">A</text><text class="cls-3" transform="matrix(0.76, -0.65, 0.65, 0.76, 186.79, 214.91)">G</text><text class="cls-3" transform="matrix(0.69, -0.72, 0.72, 0.69, 197.93, 205.05)">I</text><text class="cls-3" transform="matrix(0.62, -0.78, 0.78, 0.62, 202.38, 200.66)">N</text><text class="cls-3" transform="matrix(0.53, -0.85, 0.85, 0.53, 211.35, 189.29)">E</text><text class="cls-3" transform="translate(218.04 178.42) rotate(-64.99)">R</text></svg>