<svg xmlns="http://www.w3.org/2000/svg" id="Layer_1" data-name="Layer 1" viewBox="0 0 172.9 200.67"><defs><style>.cls-1,.cls-2,.cls-3{fill:#fff}.cls-2,.cls-3{font-size:16.93px;font-family:ArialRoundedMTBold,Arial Rounded MT Bold}.cls-3{font-size:12.7px}</style></defs><title>logo</title><path id="Path_1" d="M57.19,98.15" data-name="Path 1" transform="translate(0 0.65)"/><g id="Group_1" data-name="Group 1"><path id="Path_2" d="M111.65,57.5a8,8,0,0,0-4.13-.47c.15-.23.31-.39.47-.62a6.64,6.64,0,0,0,.62-.94.58.58,0,0,0,.16-.31,3.39,3.39,0,0,1,.7-.86,9.08,9.08,0,0,0,1.24-1.24,17.28,17.28,0,0,0,2.58-4.92l.08-.15a20.39,20.39,0,0,1,.93-2.27l.08-.15a.24.24,0,0,0,0-.32.4.4,0,0,0-.31-.15h-.16a3.07,3.07,0,0,0-2,.78,2.8,2.8,0,0,1-.93.54,3.78,3.78,0,0,1-.94.16H110a5.58,5.58,0,0,0-1.79.47c-.86.39-1.72.7-2.58,1l-.23.08c-.86.31-1.72.63-2.65,1l.23-.93a5.09,5.09,0,0,0,.23-1,6,6,0,0,0-.78-3.91,12.17,12.17,0,0,0-1.71-2.88,6.41,6.41,0,0,1-.7-.78,4.67,4.67,0,0,1-1.33-1.72l-.16-.39c-.07-.16-.15-.23-.31-.23s-.31.07-.31.23l-.16.39a2,2,0,0,0,.08,1.33,1.86,1.86,0,0,1,.08.62,3.65,3.65,0,0,1-.23-.54c-.39-.94-1.1-2.42-2.73-1.8-.16.08-.24.16-.32.16-1.09-.32-2,.62-2.65,1.32l-.16.16a1,1,0,0,1-.31.31,5.18,5.18,0,0,0-.62.78,1.48,1.48,0,0,1-.31.39.42.42,0,0,1-.47.24,3.38,3.38,0,0,0-.78.07.3.3,0,0,0-.16.08c0-.08-.08-.15-.08-.23a2.85,2.85,0,0,0-.39-.78,1.78,1.78,0,0,0-.85-.63c-.08-.07-.24-.07-.39-.15a1.51,1.51,0,0,1-.86-1.56v-.16a.54.54,0,0,0-.31-.39h-.08c-1.48-.31-2.26,1.17-2.73,2.11-.16.23-.24.47-.39.7a4,4,0,0,0-.47.62,8,8,0,0,0-.7,1c-.23-.32-.55-.63-.78-.94a3.22,3.22,0,0,1-1.25-2v-.31a.32.32,0,0,0-.23-.31.35.35,0,0,0-.39.07l-.24.24a12.26,12.26,0,0,1-1.25,1,10.64,10.64,0,0,0-2,1.72,7.53,7.53,0,0,0-1.17,2.18.83.83,0,0,0-.15.39c-.16.08-.24.08-.39.16a2.85,2.85,0,0,0-1,1.64,3.37,3.37,0,0,1-1.4-.47c-.08-.23-.15-.55-.23-.78l-.16-.55a.35.35,0,0,0-.39-.23.33.33,0,0,0-.31.31l-.08.55a1.48,1.48,0,0,0,.24,1.17A17.07,17.07,0,0,1,70.46,51l.24.08h0l-.31.08c-.08.7-.24,1.4-.32,2a6.32,6.32,0,0,0,1.25,4.52,8.08,8.08,0,0,0,1.09,1.17l.16.24.31.31c.16.16.31.47.55.78.08.16.15.24.23.39-.31.08-.62.24-.86.31s-.54.24-.78.32c-.62.23-1.24.39-1.79.54h-.16l-1.63.47c-1.25.39-3.28,1.33-2.89,2.65.31,1,1.48,1.4,2.5,1.8a1.48,1.48,0,0,1,.7.31,14.25,14.25,0,0,1,1.79,1.09,8.16,8.16,0,0,0,1.33.86,8.75,8.75,0,0,0,2.18.62,5.14,5.14,0,0,1,1.1.24,4.3,4.3,0,0,1,1.09.39l.08.08a6.13,6.13,0,0,0,1.79.46c.24,0,.47.08.78.08h.47c.23,0,.39-.08.62-.08h.16a5.25,5.25,0,0,1,1.48-.15,3,3,0,0,0-.15,2.1,2.8,2.8,0,0,0,1.4,1.88,3.56,3.56,0,0,0,.78.39A2.56,2.56,0,0,0,84,76.69c.23.63.39,1,.15,1.4L84,78.4a.35.35,0,0,0,0,.39c.08.08.15.08.23.16h.16l.31-.16c.39-.15.78-.23,1.17-.39a12.12,12.12,0,0,0,2.34-.85,7.85,7.85,0,0,0,1.64-1.4A5.71,5.71,0,0,1,91.14,75a9.62,9.62,0,0,0,5-4.37l.39.15a17,17,0,0,0,3,.78,5.8,5.8,0,0,0,1.25.08h.55a8.08,8.08,0,0,0,3-.54,7.29,7.29,0,0,0,1.25-.86,6,6,0,0,1,.78-.63c.31-.15.62-.31,1-.46a3.91,3.91,0,0,0,2.19-1.56,5.67,5.67,0,0,0,.39-3.2,7.16,7.16,0,0,1,1.72-.39.48.48,0,0,0,.31-.08,4.2,4.2,0,0,1,.62-.08h.08c1.56-.23,2.34-.31,2.57-.62a1.31,1.31,0,0,0,.39-1.33A9.53,9.53,0,0,0,111.65,57.5ZM96.28,69.67a1.31,1.31,0,0,0-.85-.93.76.76,0,0,1-.47-.39,7.58,7.58,0,0,1-1.33-2l-.15-.23c-.47-.94-1.57-3.36-.94-4.22l.23-.23c1.17,1.71,3.36,2.11,5.31,2.5l.23.08c.32.07.63.07.94.15A8.87,8.87,0,0,1,101,65a6.53,6.53,0,0,0,3,.7h.08a16.84,16.84,0,0,0,2.65-.24l.94-.23h.07a7.07,7.07,0,0,1,1-.31,4.36,4.36,0,0,1-.24,2.26,2.47,2.47,0,0,1-1.63,1.09,7,7,0,0,0-1.17.55,5.38,5.38,0,0,0-.86.62l-.08.08a4.15,4.15,0,0,1-1,.7,9,9,0,0,1-2.58.47H101a12.42,12.42,0,0,1-4.22-.78,1.4,1.4,0,0,0-.47-.24Zm-11.15,8h0a3.8,3.8,0,0,0-.39-1.32c-.16-.47-.32-.7-.24-1l1.17.24a5,5,0,0,0,1,.08h1c.47,0,.94-.08,1.4-.08h0a4.06,4.06,0,0,1-1.4,1.17,14.15,14.15,0,0,1-2.18.78Zm5.7-3.51h-.08q-.31.1-.63.24c-1.71.46-5.14.46-6.78-.63a2.18,2.18,0,0,1-1-1.25c-.31-1.56.24-1.79,1.25-2.26a5.55,5.55,0,0,0,1.64-1,28.44,28.44,0,0,0,2.57-2.81l.16-.16a29.12,29.12,0,0,1,2.11-2.34,12.07,12.07,0,0,1,1-.7h0c.16-.08.23-.15.39-.23a9.86,9.86,0,0,0,1.25,3.59l.15.23A6.55,6.55,0,0,0,94.34,69a2.77,2.77,0,0,0,.78.62l.15-.23h0l-.15.23h0c.31.16.39.23.39.31a10.35,10.35,0,0,1-4.69,4.21ZM74.75,60.78a2.67,2.67,0,0,1-.62-.86,6.54,6.54,0,0,0-.62-.93c-.16-.16-.24-.32-.39-.47L73,58.44a6.52,6.52,0,0,1-.94-1.09,4.87,4.87,0,0,1-1-3.82c.08-.7.15-1.33.31-2.19s.23-1.64.31-2.5c.08.08.16.16.24.16a4.57,4.57,0,0,0,.62,1c.08.08.16.23.31.39a11.12,11.12,0,0,1,1.33,3.43l.08.24c.15.54.31,1.09.46,1.56.08.31.16.7.24,1.09a4.86,4.86,0,0,0,.39,1.4,6.09,6.09,0,0,0,1.25,1.56,9.49,9.49,0,0,1,.85.94,1.47,1.47,0,0,1,.32.46,2.93,2.93,0,0,0,1.09,1.17,4.06,4.06,0,0,0,.94.39c-1.25.32-2-.23-3.12-1-.32-.23-.63-.39-.94-.62-.47-.08-.78-.24-1-.24Zm3.51-20.52a3.78,3.78,0,0,0,.7-.55,6.06,6.06,0,0,0,1.33,1.72,3.92,3.92,0,0,1,1.4,2.42,4.7,4.7,0,0,0-1.48,1.56A6.15,6.15,0,0,1,78.88,45c-.26-.09-.52-.19-.78-.31a1.82,1.82,0,0,0-.7-.08,1.88,1.88,0,0,1-.7-.16,1.6,1.6,0,0,1-.47-.31,3,3,0,0,0-.7-.39h-.07v-.08a15.35,15.35,0,0,1,1-1.87,12.59,12.59,0,0,1,1.79-1.56Zm7.26-1.95a2.47,2.47,0,0,0,1.25,1.87c.23.16.47.24.54.31s.32.08.47.32a4.74,4.74,0,0,0,.31.54,1.89,1.89,0,0,0,.32.55,9.88,9.88,0,0,0-1.17,4.21,13.2,13.2,0,0,0-2.73-1.25,4.33,4.33,0,0,1-1-.54,4.78,4.78,0,0,0-.93-.47,4.42,4.42,0,0,0-.16-1.09h0c-.08-.31.55-1.09.94-1.48.15-.24.39-.47.46-.63a6.21,6.21,0,0,0,.47-.78c.38-.86.78-1.48,1.24-1.56Zm9.75.16c.55-.24.86,0,1.4,1.24a4,4,0,0,0,.94,1.49h.08a.21.21,0,0,0,.15.07h.08c1.17.08,1.72,1.72,2.11,3l.08.16c.15.39.23.78.39,1.09a5.75,5.75,0,0,1,.62,2.18v.7a2.18,2.18,0,0,0,.16,1.4,7.62,7.62,0,0,0-3,3.36l-.08.08c-.15.31-.39.62-.54.93a8,8,0,0,0-.47.86l-.08.16a8.27,8.27,0,0,1-1.09,1.71,7.53,7.53,0,0,0-1.72-5.54,13.65,13.65,0,0,0-1.72-1.4,5.52,5.52,0,0,1-1.32-1.09c-.39-.39-.86-.78-1.33-1.17a8.11,8.11,0,0,1,1-3.28,7.54,7.54,0,0,1,1.79-2c.31-.31.7-.62,1-.93A7.76,7.76,0,0,0,95,39.87a2.43,2.43,0,0,0,.15-.7c-.16-.39-.08-.55.16-.71ZM71.71,46.35a4.3,4.3,0,0,0,.94.23c-.08.08-.16.16-.16.23a8.43,8.43,0,0,0-.55.78s0-.07-.07-.07h0c-.08-.08-.08-.16-.16-.32Zm10.38-1.56c.23.07.54.31.86.46a6,6,0,0,0,1.24.63,9.52,9.52,0,0,1,2.73,1.25l.63.39a.79.79,0,0,0,.62.39c.24.15.39.31.63.46a1,1,0,0,0,.31.24,6.42,6.42,0,0,1,1.33,1.17A11.87,11.87,0,0,0,92,51a5.39,5.39,0,0,1,1.48,1.17,6,6,0,0,1,1.09,6.24,7.49,7.49,0,0,1-1.4,2,3,3,0,0,1-.55.39,4,4,0,0,0-.85.78,6.14,6.14,0,0,1-1.1.86,13.4,13.4,0,0,0-1.24.54l-.16.08A6.38,6.38,0,0,1,85.45,63a3.68,3.68,0,0,1-.86-.31l-.16-.08a7.31,7.31,0,0,0-1.72-.47,3.91,3.91,0,0,0-1.32.08,12.93,12.93,0,0,0-1.09-.7,3.61,3.61,0,0,1-1.64-1.4,13.12,13.12,0,0,1-.55-1.4c-.08-.31-.23-.62-.31-.93a12.86,12.86,0,0,1-.55-1.8c-.07-.16-.07-.39-.15-.62L77,55.09c-.47-1.87.08-3,1-4.91.16-.31.32-.7.47-1,.47-1.09.94-2.18,2-2.5a.36.36,0,0,0,.23-.15v-.08a4.8,4.8,0,0,1,1.32-1.65Zm22.78,13.65a9.54,9.54,0,0,1-6.32,2.26c-.94,0-1.87,0-2.81-.08h-.23c-.47,0-.94-.07-1.48-.07a8.18,8.18,0,0,0,1.17-1.8c0-.08.07-.08.07-.15a6.51,6.51,0,0,0,2.42-3l.08-.15a7.68,7.68,0,0,1,.47-.78,7.94,7.94,0,0,0,.62-1.1,6.71,6.71,0,0,1,2.66-3,36.49,36.49,0,0,1,4-1.64c.94-.31,1.88-.7,2.81-1.09a6.05,6.05,0,0,1,1.56-.39c.31-.08.7-.16,1.09-.23a5.86,5.86,0,0,0,1.25-.63l.08-.08c.16-.07.31-.23.47-.31-.24.55-.39,1-.63,1.56v.08a15.25,15.25,0,0,1-2.34,4.53,7.49,7.49,0,0,1-1.09,1.09,2.79,2.79,0,0,0-.86,1.09c-.08.08-.08.16-.15.31a4.12,4.12,0,0,0-.39.63l-.24.31A17,17,0,0,0,106,57.5a13.14,13.14,0,0,0-1.18.94Zm-2.73-11.39a2,2,0,0,1-.16.54,6,6,0,0,0-.7-2.41c-.15-.32-.23-.7-.39-1.1-.39-1.24-.93-3-2.26-3.51a1.63,1.63,0,0,0,.08-.62l.47.47a4.54,4.54,0,0,1,.62.62,11.06,11.06,0,0,1,1.56,2.65,4.88,4.88,0,0,1,.77,3.36Zm-8.19-8a1.21,1.21,0,0,1-.16.55,4.73,4.73,0,0,1-.94,1.24c-.23.24-.54.47-.78.7l-.15.16a8.43,8.43,0,0,0-2,2.34,9.84,9.84,0,0,0-1,3.12,3,3,0,0,0-.55-.39c0-.08-.08-.15-.08-.23C88,45.1,89,42.21,89.58,42a1.11,1.11,0,0,1,.54-.08,1.31,1.31,0,0,0,1.17-.55,2.32,2.32,0,0,0,.39-.62c.08-.16.24-.31.39-.55l.47-.46a3.94,3.94,0,0,1,1.4-1.1v.47Zm-19.59,5.7a.73.73,0,0,1,.7,0,1.67,1.67,0,0,1,.47.31,1.63,1.63,0,0,0,.62.39,4.45,4.45,0,0,0,1,.24,1.29,1.29,0,0,1,.55.07,3.4,3.4,0,0,0,.7.24c.23.08.39.16.62.23a6,6,0,0,0-1.56,2.5l-.47.94c-1,1.95-1.64,3.43-1.09,5.62.08.23.15.46.23.78.16.54.31,1.32.55,2a9.09,9.09,0,0,1,.31.86.28.28,0,0,0,.08.15h0a3.72,3.72,0,0,1-1-1.25,4.56,4.56,0,0,1-.32-1.09v-.08a6.13,6.13,0,0,0-.31-1.17c-.15-.46-.31-1-.47-1.56l-.07-.15A11.82,11.82,0,0,0,73.42,50a1.9,1.9,0,0,0-.31-.39c-.39-.54-.62-.85-.47-1.4a3.08,3.08,0,0,1,.39-.62,2.7,2.7,0,0,0,.63-1.25,3.22,3.22,0,0,1,.69-1.58ZM75.06,62a4.61,4.61,0,0,1,.63.46l.23.16c1.25.86,2.42,1.72,4.29,1.09a2.45,2.45,0,0,0,.7-.31A3.56,3.56,0,0,1,82.47,63a4.63,4.63,0,0,1,1.49.47c.31.15.7.23,1.09.39a10.18,10.18,0,0,0,3.43.31c-.39.47-.86.94-1.25,1.48l-.15.16a22.16,22.16,0,0,1-2.58,2.81,6.05,6.05,0,0,1-1.4.86c-.31.15-.54.23-.86.39a4.68,4.68,0,0,0-2.57,0c-.24.07-.47.07-.7.15a5.53,5.53,0,0,1-2.57-.47,7,7,0,0,0-1.25-.39L74,68.9H73.9a4.71,4.71,0,0,1-1.8-.47,12.93,12.93,0,0,0-1.09-.7l-.23-.15a9.7,9.7,0,0,0-2-1.17c-.26-.12-.52-.23-.78-.32-.7-.23-1.72-.62-1.88-1.09-.07-.31.7-.93,2.27-1.48.54-.16,1.17-.31,1.71-.47s1.25-.31,1.95-.54c.32-.16.63-.24.94-.39.85-.48,1.24-.64,2-.17Zm33.86,1.95a5.43,5.43,0,0,0-1.48.31,3,3,0,0,1-.78.23,14.91,14.91,0,0,1-2.5.24h-.08a6.15,6.15,0,0,1-2.65-.7,10.28,10.28,0,0,0-1.87-.63l-1.25-.23c-1.64-.31-3.36-.63-4.37-1.64a10.19,10.19,0,0,1,1.56.08h.16c1.09.08,2,.08,3,.08a10.43,10.43,0,0,0,6.94-2.5c1.49-1.33,3.44-1.57,5.78-.7.7.23,3,2.41,3.2,3.66.07.31-.08.39-.08.47a12.64,12.64,0,0,1-2.11.39,4.32,4.32,0,0,0-.78.16l-.31.07a4.08,4.08,0,0,0-2.42.7Z" class="cls-1" data-name="Path 2" transform="translate(0 0.65)"/><path id="Path_3" d="M120.86,52.59a1.64,1.64,0,1,0,1.63,1.64h0a1.58,1.58,0,0,0-1.56-1.63Z" class="cls-1" data-name="Path 3" transform="translate(0 0.65)"/><path id="Path_4" d="M90.12,33.16a1.25,1.25,0,1,0-1.25-1.25,1.22,1.22,0,0,0,1.21,1.25Z" class="cls-1" data-name="Path 4" transform="translate(0 0.65)"/><path id="Path_5" d="M61.56,56.57a1.11,1.11,0,0,0-1.09,1.09,1.06,1.06,0,0,0,1,1.09h.05a1.11,1.11,0,0,0,1.09-1.09A1.16,1.16,0,0,0,61.56,56.57Z" class="cls-1" data-name="Path 5" transform="translate(0 0.65)"/></g><g id="Group_4" data-name="Group 4"><path id="Path_40" d="M164.39,79.35c-9.44-7-27.62-12.72-41.58-10.14a74.16,74.16,0,0,0-25,9.51.64.64,0,0,0-.39.16l-.15.16c-.94.62-2,1.17-2.89,1.87-9.44,6.24-20.36-.08-29.1-5.15-1.17-.7-2.34-1.4-3.43-2A11.73,11.73,0,0,0,55.87,72a8.11,8.11,0,0,0-3.44.62s-3.12,2-3.12,2.81a.48.48,0,0,0,.24.47L75.68,91.36c-1,.47-3.74,1.25-11,.32a86.59,86.59,0,0,1-16-4.06c-1-.31-1.95-.7-3-1.09-4-1.48-8-3-12.48-2.5-5.46.62-9,3.35-9.21,4.21a.52.52,0,0,0,.16.55l2.18,1.56c-2.57.07-7.64.93-9.83,5.7a.39.39,0,0,0,0,.39c.08.15.16.23.32.23l9.9,3.67a8.54,8.54,0,0,0-3.27,5.22.44.44,0,0,0,.31.55h0c1.17.55,27.31,12.09,38.54,12.17-.54.86-1.17,2-.86,2.89a1.1,1.1,0,0,0,1,.7c.23,0,.47.08.78.08a10.13,10.13,0,0,0,3.35-.7c.63-.16,1.25-.39,1.88-.55,3.66-.78,7.64-.39,11.47,0a57.33,57.33,0,0,0,7.17.39c8.82-.15,18.1-4.6,27.08-9A116.13,116.13,0,0,1,128.66,106c5.7-1.79,16.7,1,21.85,5.62a.47.47,0,0,0,.54.08c2.58-1.33,6.87-5.93,10.61-14.75a46,46,0,0,0,2.89-11.31C164.55,84.58,165.1,79.9,164.39,79.35ZM50.48,75.29a15.59,15.59,0,0,1,2.34-1.79,7.39,7.39,0,0,1,3-.55,10.8,10.8,0,0,1,5.47,1.64c1.09.62,2.26,1.25,3.43,2,9,5.23,20.21,11.78,30.2,5.15.16-.08.31-.23.47-.31a65.62,65.62,0,0,0-4.14,6.55h0c-3.51,2.5-13.26,2.81-14.51,2.89-1.88-1-23-13.58-26.3-15.53ZM25.2,88.24A15.62,15.62,0,0,1,33.39,85c4.14-.46,8.12,1,12,2.42.94.39,2,.78,3,1.09a84.9,84.9,0,0,0,16.15,4.06c9,1.25,11.55-.23,12.18-.78,1.4,0,9.28-.31,13.57-2.26a13.7,13.7,0,0,1-1,1.79c-.86,1.64-1.8,3.28-2.73,4.92-.08,0-.16.08-.24.15a6.08,6.08,0,0,1-2.81,1.1c-.15,0-.39.07-.54.07a65.06,65.06,0,0,1-10.22,1,69.53,69.53,0,0,1-11.63-.47,41.85,41.85,0,0,1-9.28-2.42c-6.4-2.5-14.9-5.38-23.88-5.46Zm-7.57,7.65c2.89-5.3,10.15-4.68,10.22-4.6h0c8.9.08,17.32,2.89,23.72,5.38a38.71,38.71,0,0,0,9.52,2.42,61.23,61.23,0,0,0,8.66.55c1,0,2,0,3-.08a68.2,68.2,0,0,0,10.38-1c.16,0,.31-.08.55-.08A9.32,9.32,0,0,0,85.59,98a30,30,0,0,1-1.79,2.65,9.79,9.79,0,0,1-2.34,2.42c-5.08,3.9-13,3.59-18.65,3.05a116.29,116.29,0,0,1-19.35-4.29,72.4,72.4,0,0,0-9.52-2.27c-1.64-.23-4.06-.62-6,.08Zm143,.55c-3.28,7.72-7.26,12.56-9.91,14.12a13.34,13.34,0,0,0-2-1.48c1.4-.78,4.14-2.89,5.77-7.88a.49.49,0,0,0-.93-.32c-1.8,5.47-5.07,7.26-5.85,7.57-.32-.15-.63-.39-1-.54a10.75,10.75,0,0,0,4.6-5.54.49.49,0,1,0-.93-.32h0a10.13,10.13,0,0,1-4.53,5.23c-.08,0-.08.08-.16.08-5.77-2.73-13.18-4-17.63-2.5a123.82,123.82,0,0,0-14.51,6.24c-8.9,4.29-18.1,8.66-26.68,8.82a56,56,0,0,1-7.1-.39,41.69,41.69,0,0,0-11.7,0,14,14,0,0,0-2,.54,8.73,8.73,0,0,1-3.67.63c-.24,0-.24-.08-.24-.16-.15-.39.55-1.72,1.25-2.65a14.85,14.85,0,0,1,9.29-4.76c1.79-.24,3.74-.47,5.54-.78,2.65-.39,5.38-.7,8-1l.7-.07c4.92-.55,16.47-1.88,19.12-9.6a.5.5,0,0,0-.94-.32c-1.09,3.36-4.13,5.39-7.49,6.71a60.54,60.54,0,0,1,4.38-10h0a32.43,32.43,0,0,1,3.74-5.54c8.27-9.91,17.24-14.28,29.26-14.28h.31a.47.47,0,0,0,0-.94c-12.48-.07-21.76,4.45-30.35,14.67a30.48,30.48,0,0,0-2.34,3.2,39,39,0,0,1,1.33-3.9c.31-.86.62-1.71.93-2.65a17.79,17.79,0,0,1,7.18-9.13.51.51,0,0,0,.19-.7.51.51,0,0,0-.7-.18l0,0a18.87,18.87,0,0,0-7.57,9.6c-.31.93-.63,1.79-.94,2.58a30.72,30.72,0,0,0-1.87,6.78,75.64,75.64,0,0,0-4.6,10.77v.08a54.12,54.12,0,0,1-9.6,1.87l-.7.08c-2.65.31-5.38.7-8,1-1.79.24-3.74.55-5.54.78A15.92,15.92,0,0,0,63,117c-9.83.47-35-10.38-38.46-11.86a7.18,7.18,0,0,1,2.8-4.21h0c1.88-1.17,4.76-.78,6.64-.47a74.62,74.62,0,0,1,9.44,2.18,117.25,117.25,0,0,0,19.5,4.3c1.8.15,3.9.39,6.09.39,4.68,0,9.67-.78,13.26-3.59a13.43,13.43,0,0,0,2.5-2.66,76.2,76.2,0,0,0,5.54-9.44,65.61,65.61,0,0,1,7.65-12.09A73.09,73.09,0,0,1,123.05,70c13.66-2.5,31.37,3,40.73,9.91a43.41,43.41,0,0,1-3.13,16.54Z" class="cls-1" data-name="Path 40" transform="translate(0 0.65)"/></g><circle id="Ellipse_1" cx="2.89" cy="85.54" r="2.89" class="cls-1" data-name="Ellipse 1"/><text class="cls-2" transform="matrix(0.23, -0.97, 0.97, 0.23, 16.62, 75.47)">T</text><text class="cls-2" transform="translate(19.9 62.26) rotate(-65.43)">A</text><text class="cls-2" transform="translate(26.53 48.62) rotate(-53.58)">S</text><text class="cls-2" transform="matrix(0.75, -0.66, 0.66, 0.75, 35.15, 37.31)">H</text><text class="cls-2" transform="matrix(0.88, -0.48, 0.48, 0.88, 47.21, 27.15)">A</text><text class="cls-2" transform="translate(67.98 17.8) rotate(-9.23)">C</text><text class="cls-2" transform="translate(83.22 15.61) rotate(4)">O</text><text class="cls-2" transform="translate(99.37 17.13) rotate(17.21)">R</text><text class="cls-2" transform="translate(113.67 21.87) rotate(30.15)">N</text><text class="cls-2" transform="translate(127.13 30.15) rotate(42.49)">E</text><text class="cls-2" transform="translate(137.45 40.09) rotate(53.66)">L</text><text class="cls-2" transform="translate(145.09 51.23) rotate(62.56)">I</text><text class="cls-2" transform="translate(149.03 58.78) rotate(72.15)">A</text><text class="cls-3" transform="translate(9.89 113.4) rotate(67.28)">U</text><text class="cls-3" transform="matrix(0.46, 0.89, -0.89, 0.46, 13.9, 122.6)">I</text><text class="cls-3" transform="translate(17.53 129.44) rotate(55.17)">U</text><text class="cls-3" transform="translate(23.41 137.74) rotate(48.82)">X</text><text class="cls-3" transform="translate(31.19 146.29) rotate(40.16)">D</text><text class="cls-3" transform="matrix(0.83, 0.55, -0.55, 0.83, 38.82, 152.65)">E</text><text class="cls-3" transform="translate(46.34 157.6) rotate(27.26)">S</text><text class="cls-3" transform="matrix(0.92, 0.38, -0.38, 0.92, 54.25, 161.56)">I</text><text class="cls-3" transform="matrix(0.95, 0.3, -0.3, 0.95, 58.26, 163.36)">G</text><text class="cls-3" transform="translate(68.44 166.5) rotate(10.03)">N</text><text class="cls-3" transform="matrix(1, 0.05, -0.05, 1, 78.52, 168.21)">E</text><text class="cls-3" transform="matrix(1, -0.06, 0.06, 1, 87.53, 168.69)">R</text><text class="cls-3" transform="translate(100.6 167.55) rotate(-13.39)">&amp;</text><text class="cls-3" transform="translate(113.56 164) rotate(-21.14)">I</text><text class="cls-3" transform="translate(117.73 162.54) rotate(-26.74)">M</text><text class="cls-3" transform="translate(127.71 157.41) rotate(-34.3)">A</text><text class="cls-3" transform="translate(135.49 152.12) rotate(-41.51)">G</text><text class="cls-3" transform="translate(143.24 145.04) rotate(-46.97)">I</text><text class="cls-3" transform="matrix(0.61, -0.79, 0.79, 0.61, 146.33, 141.89)">N</text><text class="cls-3" transform="translate(152.53 133.77) rotate(-59.22)">E</text><text class="cls-3" transform="translate(157.13 126.02) rotate(-65.9)">R</text></svg>