<svg xmlns="http://www.w3.org/2000/svg" viewBox="0 0 182.836 182.836">
  <defs>
    <style>
      .cls-1 {
        fill: #d9d9d9;
      }
    </style>
  </defs>
  <g id="Group_2564" data-name="Group 2564" transform="translate(-1426.564 -2095.564)">
    <g id="Group_2561" data-name="Group 2561" transform="translate(1138.564 2095.564)">
      <path id="Path_4061" data-name="Path 4061" class="cls-1" d="M460.844,9.688A4.844,4.844,0,1,0,456,4.844,4.838,4.838,0,0,0,460.844,9.688Z" transform="translate(5.148)"/>
      <path id="Path_4062" data-name="Path 4062" class="cls-1" d="M460.844,33.688A4.844,4.844,0,1,0,456,28.844,4.838,4.838,0,0,0,460.844,33.688Z" transform="translate(5.148 0.735)"/>
      <path id="Path_4063" data-name="Path 4063" class="cls-1" d="M460.844,57.688A4.844,4.844,0,1,0,456,52.844,4.838,4.838,0,0,0,460.844,57.688Z" transform="translate(5.148 1.471)"/>
      <path id="Path_4064" data-name="Path 4064" class="cls-1" d="M460.844,81.688A4.844,4.844,0,1,0,456,76.844,4.838,4.838,0,0,0,460.844,81.688Z" transform="translate(5.148 2.206)"/>
      <path id="Path_4065" data-name="Path 4065" class="cls-1" d="M460.844,105.688A4.844,4.844,0,1,0,456,100.844,4.838,4.838,0,0,0,460.844,105.688Z" transform="translate(5.148 2.942)"/>
      <path id="Path_4066" data-name="Path 4066" class="cls-1" d="M460.844,129.688A4.844,4.844,0,1,0,456,124.844,4.838,4.838,0,0,0,460.844,129.688Z" transform="translate(5.148 3.677)"/>
      <path id="Path_4067" data-name="Path 4067" class="cls-1" d="M460.844,153.688A4.844,4.844,0,1,0,456,148.844,4.838,4.838,0,0,0,460.844,153.688Z" transform="translate(5.148 4.413)"/>
      <path id="Path_4068" data-name="Path 4068" class="cls-1" d="M460.844,177.688A4.844,4.844,0,1,0,456,172.844,4.838,4.838,0,0,0,460.844,177.688Z" transform="translate(5.148 5.148)"/>
      <path id="Path_4071" data-name="Path 4071" class="cls-1" d="M436.844,9.688A4.844,4.844,0,1,0,432,4.844,4.838,4.838,0,0,0,436.844,9.688Z" transform="translate(4.413)"/>
      <path id="Path_4072" data-name="Path 4072" class="cls-1" d="M436.844,33.688A4.844,4.844,0,1,0,432,28.844,4.838,4.838,0,0,0,436.844,33.688Z" transform="translate(4.413 0.735)"/>
      <path id="Path_4073" data-name="Path 4073" class="cls-1" d="M436.844,57.688A4.844,4.844,0,1,0,432,52.844,4.838,4.838,0,0,0,436.844,57.688Z" transform="translate(4.413 1.471)"/>
      <path id="Path_4074" data-name="Path 4074" class="cls-1" d="M436.844,81.688A4.844,4.844,0,1,0,432,76.844,4.838,4.838,0,0,0,436.844,81.688Z" transform="translate(4.413 2.206)"/>
      <path id="Path_4075" data-name="Path 4075" class="cls-1" d="M436.844,105.688A4.844,4.844,0,1,0,432,100.844,4.838,4.838,0,0,0,436.844,105.688Z" transform="translate(4.413 2.942)"/>
      <path id="Path_4076" data-name="Path 4076" class="cls-1" d="M436.844,129.688A4.844,4.844,0,1,0,432,124.844,4.838,4.838,0,0,0,436.844,129.688Z" transform="translate(4.413 3.677)"/>
      <path id="Path_4077" data-name="Path 4077" class="cls-1" d="M436.844,153.688A4.844,4.844,0,1,0,432,148.844,4.838,4.838,0,0,0,436.844,153.688Z" transform="translate(4.413 4.413)"/>
      <path id="Path_4078" data-name="Path 4078" class="cls-1" d="M436.844,177.688A4.844,4.844,0,1,0,432,172.844,4.838,4.838,0,0,0,436.844,177.688Z" transform="translate(4.413 5.148)"/>
      <path id="Path_4081" data-name="Path 4081" class="cls-1" d="M412.844,9.688A4.844,4.844,0,1,0,408,4.844,4.838,4.838,0,0,0,412.844,9.688Z" transform="translate(3.677)"/>
      <path id="Path_4082" data-name="Path 4082" class="cls-1" d="M412.844,33.688A4.844,4.844,0,1,0,408,28.844,4.838,4.838,0,0,0,412.844,33.688Z" transform="translate(3.677 0.735)"/>
      <path id="Path_4083" data-name="Path 4083" class="cls-1" d="M412.844,57.688A4.844,4.844,0,1,0,408,52.844,4.838,4.838,0,0,0,412.844,57.688Z" transform="translate(3.677 1.471)"/>
      <path id="Path_4084" data-name="Path 4084" class="cls-1" d="M412.844,81.688A4.844,4.844,0,1,0,408,76.844,4.838,4.838,0,0,0,412.844,81.688Z" transform="translate(3.677 2.206)"/>
      <path id="Path_4085" data-name="Path 4085" class="cls-1" d="M412.844,105.688A4.844,4.844,0,1,0,408,100.844,4.838,4.838,0,0,0,412.844,105.688Z" transform="translate(3.677 2.942)"/>
      <path id="Path_4086" data-name="Path 4086" class="cls-1" d="M412.844,129.688A4.844,4.844,0,1,0,408,124.844,4.838,4.838,0,0,0,412.844,129.688Z" transform="translate(3.677 3.677)"/>
      <path id="Path_4087" data-name="Path 4087" class="cls-1" d="M412.844,153.688A4.844,4.844,0,1,0,408,148.844,4.838,4.838,0,0,0,412.844,153.688Z" transform="translate(3.677 4.413)"/>
      <path id="Path_4088" data-name="Path 4088" class="cls-1" d="M412.844,177.688A4.844,4.844,0,1,0,408,172.844,4.838,4.838,0,0,0,412.844,177.688Z" transform="translate(3.677 5.148)"/>
      <path id="Path_4091" data-name="Path 4091" class="cls-1" d="M388.844,9.688A4.844,4.844,0,1,0,384,4.844,4.838,4.838,0,0,0,388.844,9.688Z" transform="translate(2.942)"/>
      <path id="Path_4092" data-name="Path 4092" class="cls-1" d="M388.844,33.688A4.844,4.844,0,1,0,384,28.844,4.838,4.838,0,0,0,388.844,33.688Z" transform="translate(2.942 0.735)"/>
      <path id="Path_4093" data-name="Path 4093" class="cls-1" d="M388.844,57.688A4.844,4.844,0,1,0,384,52.844,4.838,4.838,0,0,0,388.844,57.688Z" transform="translate(2.942 1.471)"/>
      <path id="Path_4094" data-name="Path 4094" class="cls-1" d="M388.844,81.688A4.844,4.844,0,1,0,384,76.844,4.838,4.838,0,0,0,388.844,81.688Z" transform="translate(2.942 2.206)"/>
      <path id="Path_4095" data-name="Path 4095" class="cls-1" d="M388.844,105.688A4.844,4.844,0,1,0,384,100.844,4.838,4.838,0,0,0,388.844,105.688Z" transform="translate(2.942 2.942)"/>
      <path id="Path_4096" data-name="Path 4096" class="cls-1" d="M388.844,129.688A4.844,4.844,0,1,0,384,124.844,4.838,4.838,0,0,0,388.844,129.688Z" transform="translate(2.942 3.677)"/>
      <path id="Path_4097" data-name="Path 4097" class="cls-1" d="M388.844,153.688A4.844,4.844,0,1,0,384,148.844,4.838,4.838,0,0,0,388.844,153.688Z" transform="translate(2.942 4.413)"/>
      <path id="Path_4098" data-name="Path 4098" class="cls-1" d="M388.844,177.688A4.844,4.844,0,1,0,384,172.844,4.838,4.838,0,0,0,388.844,177.688Z" transform="translate(2.942 5.148)"/>
      <path id="Path_4101" data-name="Path 4101" class="cls-1" d="M364.844,9.688A4.844,4.844,0,1,0,360,4.844,4.838,4.838,0,0,0,364.844,9.688Z" transform="translate(2.206)"/>
      <path id="Path_4102" data-name="Path 4102" class="cls-1" d="M364.844,33.688A4.844,4.844,0,1,0,360,28.844,4.838,4.838,0,0,0,364.844,33.688Z" transform="translate(2.206 0.735)"/>
      <path id="Path_4103" data-name="Path 4103" class="cls-1" d="M364.844,57.688A4.844,4.844,0,1,0,360,52.844,4.838,4.838,0,0,0,364.844,57.688Z" transform="translate(2.206 1.471)"/>
      <path id="Path_4104" data-name="Path 4104" class="cls-1" d="M364.844,81.688A4.844,4.844,0,1,0,360,76.844,4.838,4.838,0,0,0,364.844,81.688Z" transform="translate(2.206 2.206)"/>
      <path id="Path_4105" data-name="Path 4105" class="cls-1" d="M364.844,105.688A4.844,4.844,0,1,0,360,100.844,4.838,4.838,0,0,0,364.844,105.688Z" transform="translate(2.206 2.942)"/>
      <path id="Path_4106" data-name="Path 4106" class="cls-1" d="M364.844,129.688A4.844,4.844,0,1,0,360,124.844,4.838,4.838,0,0,0,364.844,129.688Z" transform="translate(2.206 3.677)"/>
      <path id="Path_4107" data-name="Path 4107" class="cls-1" d="M364.844,153.688A4.844,4.844,0,1,0,360,148.844,4.838,4.838,0,0,0,364.844,153.688Z" transform="translate(2.206 4.413)"/>
      <path id="Path_4108" data-name="Path 4108" class="cls-1" d="M364.844,177.688A4.844,4.844,0,1,0,360,172.844,4.838,4.838,0,0,0,364.844,177.688Z" transform="translate(2.206 5.148)"/>
      <path id="Path_4111" data-name="Path 4111" class="cls-1" d="M340.844,9.688A4.844,4.844,0,1,0,336,4.844,4.838,4.838,0,0,0,340.844,9.688Z" transform="translate(1.471)"/>
      <path id="Path_4112" data-name="Path 4112" class="cls-1" d="M340.844,33.688A4.844,4.844,0,1,0,336,28.844,4.838,4.838,0,0,0,340.844,33.688Z" transform="translate(1.471 0.735)"/>
      <path id="Path_4113" data-name="Path 4113" class="cls-1" d="M340.844,57.688A4.844,4.844,0,1,0,336,52.844,4.838,4.838,0,0,0,340.844,57.688Z" transform="translate(1.471 1.471)"/>
      <path id="Path_4114" data-name="Path 4114" class="cls-1" d="M340.844,81.688A4.844,4.844,0,1,0,336,76.844,4.838,4.838,0,0,0,340.844,81.688Z" transform="translate(1.471 2.206)"/>
      <path id="Path_4115" data-name="Path 4115" class="cls-1" d="M340.844,105.688A4.844,4.844,0,1,0,336,100.844,4.838,4.838,0,0,0,340.844,105.688Z" transform="translate(1.471 2.942)"/>
      <path id="Path_4116" data-name="Path 4116" class="cls-1" d="M340.844,129.688A4.844,4.844,0,1,0,336,124.844,4.838,4.838,0,0,0,340.844,129.688Z" transform="translate(1.471 3.677)"/>
      <path id="Path_4117" data-name="Path 4117" class="cls-1" d="M340.844,153.688A4.844,4.844,0,1,0,336,148.844,4.838,4.838,0,0,0,340.844,153.688Z" transform="translate(1.471 4.413)"/>
      <path id="Path_4118" data-name="Path 4118" class="cls-1" d="M340.844,177.688A4.844,4.844,0,1,0,336,172.844,4.838,4.838,0,0,0,340.844,177.688Z" transform="translate(1.471 5.148)"/>
      <path id="Path_4121" data-name="Path 4121" class="cls-1" d="M316.844,9.688A4.844,4.844,0,1,0,312,4.844,4.838,4.838,0,0,0,316.844,9.688Z" transform="translate(0.735)"/>
      <path id="Path_4122" data-name="Path 4122" class="cls-1" d="M316.844,33.688A4.844,4.844,0,1,0,312,28.844,4.838,4.838,0,0,0,316.844,33.688Z" transform="translate(0.735 0.735)"/>
      <path id="Path_4123" data-name="Path 4123" class="cls-1" d="M316.844,57.688A4.844,4.844,0,1,0,312,52.844,4.838,4.838,0,0,0,316.844,57.688Z" transform="translate(0.735 1.471)"/>
      <path id="Path_4124" data-name="Path 4124" class="cls-1" d="M316.844,81.688A4.844,4.844,0,1,0,312,76.844,4.838,4.838,0,0,0,316.844,81.688Z" transform="translate(0.735 2.206)"/>
      <path id="Path_4125" data-name="Path 4125" class="cls-1" d="M316.844,105.688A4.844,4.844,0,1,0,312,100.844,4.838,4.838,0,0,0,316.844,105.688Z" transform="translate(0.735 2.942)"/>
      <path id="Path_4126" data-name="Path 4126" class="cls-1" d="M316.844,129.688A4.844,4.844,0,1,0,312,124.844,4.838,4.838,0,0,0,316.844,129.688Z" transform="translate(0.735 3.677)"/>
      <path id="Path_4127" data-name="Path 4127" class="cls-1" d="M316.844,153.688A4.844,4.844,0,1,0,312,148.844,4.838,4.838,0,0,0,316.844,153.688Z" transform="translate(0.735 4.413)"/>
      <path id="Path_4128" data-name="Path 4128" class="cls-1" d="M316.844,177.688A4.844,4.844,0,1,0,312,172.844,4.838,4.838,0,0,0,316.844,177.688Z" transform="translate(0.735 5.148)"/>
      <path id="Path_4131" data-name="Path 4131" class="cls-1" d="M292.844,9.688A4.844,4.844,0,1,0,288,4.844,4.838,4.838,0,0,0,292.844,9.688Z"/>
      <path id="Path_4132" data-name="Path 4132" class="cls-1" d="M292.844,33.688A4.844,4.844,0,1,0,288,28.844,4.838,4.838,0,0,0,292.844,33.688Z" transform="translate(0 0.735)"/>
      <path id="Path_4133" data-name="Path 4133" class="cls-1" d="M292.844,57.688A4.844,4.844,0,1,0,288,52.844,4.838,4.838,0,0,0,292.844,57.688Z" transform="translate(0 1.471)"/>
      <path id="Path_4134" data-name="Path 4134" class="cls-1" d="M292.844,81.688A4.844,4.844,0,1,0,288,76.844,4.838,4.838,0,0,0,292.844,81.688Z" transform="translate(0 2.206)"/>
      <path id="Path_4135" data-name="Path 4135" class="cls-1" d="M292.844,105.688A4.844,4.844,0,1,0,288,100.844,4.838,4.838,0,0,0,292.844,105.688Z" transform="translate(0 2.942)"/>
      <path id="Path_4136" data-name="Path 4136" class="cls-1" d="M292.844,129.688A4.844,4.844,0,1,0,288,124.844,4.838,4.838,0,0,0,292.844,129.688Z" transform="translate(0 3.677)"/>
      <path id="Path_4137" data-name="Path 4137" class="cls-1" d="M292.844,153.688A4.844,4.844,0,1,0,288,148.844,4.838,4.838,0,0,0,292.844,153.688Z" transform="translate(0 4.413)"/>
      <path id="Path_4138" data-name="Path 4138" class="cls-1" d="M292.844,177.688A4.844,4.844,0,1,0,288,172.844,4.838,4.838,0,0,0,292.844,177.688Z" transform="translate(0 5.148)"/>
    </g>
  </g>
</svg>
