<svg xmlns="http://www.w3.org/2000/svg" viewBox="0 0 182.836 182.836"><defs><style>.cls-1{fill:#d9d9d9}</style></defs><g id="Group_2564" data-name="Group 2564" transform="translate(-1426.564 -2095.564)"><g id="Group_2561" data-name="Group 2561" transform="translate(1138.564 2095.564)"><path id="Path_4061" d="M460.844,9.688A4.844,4.844,0,1,0,456,4.844,4.838,4.838,0,0,0,460.844,9.688Z" class="cls-1" data-name="Path 4061" transform="translate(5.148)"/><path id="Path_4062" d="M460.844,33.688A4.844,4.844,0,1,0,456,28.844,4.838,4.838,0,0,0,460.844,33.688Z" class="cls-1" data-name="Path 4062" transform="translate(5.148 0.735)"/><path id="Path_4063" d="M460.844,57.688A4.844,4.844,0,1,0,456,52.844,4.838,4.838,0,0,0,460.844,57.688Z" class="cls-1" data-name="Path 4063" transform="translate(5.148 1.471)"/><path id="Path_4064" d="M460.844,81.688A4.844,4.844,0,1,0,456,76.844,4.838,4.838,0,0,0,460.844,81.688Z" class="cls-1" data-name="Path 4064" transform="translate(5.148 2.206)"/><path id="Path_4065" d="M460.844,105.688A4.844,4.844,0,1,0,456,100.844,4.838,4.838,0,0,0,460.844,105.688Z" class="cls-1" data-name="Path 4065" transform="translate(5.148 2.942)"/><path id="Path_4066" d="M460.844,129.688A4.844,4.844,0,1,0,456,124.844,4.838,4.838,0,0,0,460.844,129.688Z" class="cls-1" data-name="Path 4066" transform="translate(5.148 3.677)"/><path id="Path_4067" d="M460.844,153.688A4.844,4.844,0,1,0,456,148.844,4.838,4.838,0,0,0,460.844,153.688Z" class="cls-1" data-name="Path 4067" transform="translate(5.148 4.413)"/><path id="Path_4068" d="M460.844,177.688A4.844,4.844,0,1,0,456,172.844,4.838,4.838,0,0,0,460.844,177.688Z" class="cls-1" data-name="Path 4068" transform="translate(5.148 5.148)"/><path id="Path_4071" d="M436.844,9.688A4.844,4.844,0,1,0,432,4.844,4.838,4.838,0,0,0,436.844,9.688Z" class="cls-1" data-name="Path 4071" transform="translate(4.413)"/><path id="Path_4072" d="M436.844,33.688A4.844,4.844,0,1,0,432,28.844,4.838,4.838,0,0,0,436.844,33.688Z" class="cls-1" data-name="Path 4072" transform="translate(4.413 0.735)"/><path id="Path_4073" d="M436.844,57.688A4.844,4.844,0,1,0,432,52.844,4.838,4.838,0,0,0,436.844,57.688Z" class="cls-1" data-name="Path 4073" transform="translate(4.413 1.471)"/><path id="Path_4074" d="M436.844,81.688A4.844,4.844,0,1,0,432,76.844,4.838,4.838,0,0,0,436.844,81.688Z" class="cls-1" data-name="Path 4074" transform="translate(4.413 2.206)"/><path id="Path_4075" d="M436.844,105.688A4.844,4.844,0,1,0,432,100.844,4.838,4.838,0,0,0,436.844,105.688Z" class="cls-1" data-name="Path 4075" transform="translate(4.413 2.942)"/><path id="Path_4076" d="M436.844,129.688A4.844,4.844,0,1,0,432,124.844,4.838,4.838,0,0,0,436.844,129.688Z" class="cls-1" data-name="Path 4076" transform="translate(4.413 3.677)"/><path id="Path_4077" d="M436.844,153.688A4.844,4.844,0,1,0,432,148.844,4.838,4.838,0,0,0,436.844,153.688Z" class="cls-1" data-name="Path 4077" transform="translate(4.413 4.413)"/><path id="Path_4078" d="M436.844,177.688A4.844,4.844,0,1,0,432,172.844,4.838,4.838,0,0,0,436.844,177.688Z" class="cls-1" data-name="Path 4078" transform="translate(4.413 5.148)"/><path id="Path_4081" d="M412.844,9.688A4.844,4.844,0,1,0,408,4.844,4.838,4.838,0,0,0,412.844,9.688Z" class="cls-1" data-name="Path 4081" transform="translate(3.677)"/><path id="Path_4082" d="M412.844,33.688A4.844,4.844,0,1,0,408,28.844,4.838,4.838,0,0,0,412.844,33.688Z" class="cls-1" data-name="Path 4082" transform="translate(3.677 0.735)"/><path id="Path_4083" d="M412.844,57.688A4.844,4.844,0,1,0,408,52.844,4.838,4.838,0,0,0,412.844,57.688Z" class="cls-1" data-name="Path 4083" transform="translate(3.677 1.471)"/><path id="Path_4084" d="M412.844,81.688A4.844,4.844,0,1,0,408,76.844,4.838,4.838,0,0,0,412.844,81.688Z" class="cls-1" data-name="Path 4084" transform="translate(3.677 2.206)"/><path id="Path_4085" d="M412.844,105.688A4.844,4.844,0,1,0,408,100.844,4.838,4.838,0,0,0,412.844,105.688Z" class="cls-1" data-name="Path 4085" transform="translate(3.677 2.942)"/><path id="Path_4086" d="M412.844,129.688A4.844,4.844,0,1,0,408,124.844,4.838,4.838,0,0,0,412.844,129.688Z" class="cls-1" data-name="Path 4086" transform="translate(3.677 3.677)"/><path id="Path_4087" d="M412.844,153.688A4.844,4.844,0,1,0,408,148.844,4.838,4.838,0,0,0,412.844,153.688Z" class="cls-1" data-name="Path 4087" transform="translate(3.677 4.413)"/><path id="Path_4088" d="M412.844,177.688A4.844,4.844,0,1,0,408,172.844,4.838,4.838,0,0,0,412.844,177.688Z" class="cls-1" data-name="Path 4088" transform="translate(3.677 5.148)"/><path id="Path_4091" d="M388.844,9.688A4.844,4.844,0,1,0,384,4.844,4.838,4.838,0,0,0,388.844,9.688Z" class="cls-1" data-name="Path 4091" transform="translate(2.942)"/><path id="Path_4092" d="M388.844,33.688A4.844,4.844,0,1,0,384,28.844,4.838,4.838,0,0,0,388.844,33.688Z" class="cls-1" data-name="Path 4092" transform="translate(2.942 0.735)"/><path id="Path_4093" d="M388.844,57.688A4.844,4.844,0,1,0,384,52.844,4.838,4.838,0,0,0,388.844,57.688Z" class="cls-1" data-name="Path 4093" transform="translate(2.942 1.471)"/><path id="Path_4094" d="M388.844,81.688A4.844,4.844,0,1,0,384,76.844,4.838,4.838,0,0,0,388.844,81.688Z" class="cls-1" data-name="Path 4094" transform="translate(2.942 2.206)"/><path id="Path_4095" d="M388.844,105.688A4.844,4.844,0,1,0,384,100.844,4.838,4.838,0,0,0,388.844,105.688Z" class="cls-1" data-name="Path 4095" transform="translate(2.942 2.942)"/><path id="Path_4096" d="M388.844,129.688A4.844,4.844,0,1,0,384,124.844,4.838,4.838,0,0,0,388.844,129.688Z" class="cls-1" data-name="Path 4096" transform="translate(2.942 3.677)"/><path id="Path_4097" d="M388.844,153.688A4.844,4.844,0,1,0,384,148.844,4.838,4.838,0,0,0,388.844,153.688Z" class="cls-1" data-name="Path 4097" transform="translate(2.942 4.413)"/><path id="Path_4098" d="M388.844,177.688A4.844,4.844,0,1,0,384,172.844,4.838,4.838,0,0,0,388.844,177.688Z" class="cls-1" data-name="Path 4098" transform="translate(2.942 5.148)"/><path id="Path_4101" d="M364.844,9.688A4.844,4.844,0,1,0,360,4.844,4.838,4.838,0,0,0,364.844,9.688Z" class="cls-1" data-name="Path 4101" transform="translate(2.206)"/><path id="Path_4102" d="M364.844,33.688A4.844,4.844,0,1,0,360,28.844,4.838,4.838,0,0,0,364.844,33.688Z" class="cls-1" data-name="Path 4102" transform="translate(2.206 0.735)"/><path id="Path_4103" d="M364.844,57.688A4.844,4.844,0,1,0,360,52.844,4.838,4.838,0,0,0,364.844,57.688Z" class="cls-1" data-name="Path 4103" transform="translate(2.206 1.471)"/><path id="Path_4104" d="M364.844,81.688A4.844,4.844,0,1,0,360,76.844,4.838,4.838,0,0,0,364.844,81.688Z" class="cls-1" data-name="Path 4104" transform="translate(2.206 2.206)"/><path id="Path_4105" d="M364.844,105.688A4.844,4.844,0,1,0,360,100.844,4.838,4.838,0,0,0,364.844,105.688Z" class="cls-1" data-name="Path 4105" transform="translate(2.206 2.942)"/><path id="Path_4106" d="M364.844,129.688A4.844,4.844,0,1,0,360,124.844,4.838,4.838,0,0,0,364.844,129.688Z" class="cls-1" data-name="Path 4106" transform="translate(2.206 3.677)"/><path id="Path_4107" d="M364.844,153.688A4.844,4.844,0,1,0,360,148.844,4.838,4.838,0,0,0,364.844,153.688Z" class="cls-1" data-name="Path 4107" transform="translate(2.206 4.413)"/><path id="Path_4108" d="M364.844,177.688A4.844,4.844,0,1,0,360,172.844,4.838,4.838,0,0,0,364.844,177.688Z" class="cls-1" data-name="Path 4108" transform="translate(2.206 5.148)"/><path id="Path_4111" d="M340.844,9.688A4.844,4.844,0,1,0,336,4.844,4.838,4.838,0,0,0,340.844,9.688Z" class="cls-1" data-name="Path 4111" transform="translate(1.471)"/><path id="Path_4112" d="M340.844,33.688A4.844,4.844,0,1,0,336,28.844,4.838,4.838,0,0,0,340.844,33.688Z" class="cls-1" data-name="Path 4112" transform="translate(1.471 0.735)"/><path id="Path_4113" d="M340.844,57.688A4.844,4.844,0,1,0,336,52.844,4.838,4.838,0,0,0,340.844,57.688Z" class="cls-1" data-name="Path 4113" transform="translate(1.471 1.471)"/><path id="Path_4114" d="M340.844,81.688A4.844,4.844,0,1,0,336,76.844,4.838,4.838,0,0,0,340.844,81.688Z" class="cls-1" data-name="Path 4114" transform="translate(1.471 2.206)"/><path id="Path_4115" d="M340.844,105.688A4.844,4.844,0,1,0,336,100.844,4.838,4.838,0,0,0,340.844,105.688Z" class="cls-1" data-name="Path 4115" transform="translate(1.471 2.942)"/><path id="Path_4116" d="M340.844,129.688A4.844,4.844,0,1,0,336,124.844,4.838,4.838,0,0,0,340.844,129.688Z" class="cls-1" data-name="Path 4116" transform="translate(1.471 3.677)"/><path id="Path_4117" d="M340.844,153.688A4.844,4.844,0,1,0,336,148.844,4.838,4.838,0,0,0,340.844,153.688Z" class="cls-1" data-name="Path 4117" transform="translate(1.471 4.413)"/><path id="Path_4118" d="M340.844,177.688A4.844,4.844,0,1,0,336,172.844,4.838,4.838,0,0,0,340.844,177.688Z" class="cls-1" data-name="Path 4118" transform="translate(1.471 5.148)"/><path id="Path_4121" d="M316.844,9.688A4.844,4.844,0,1,0,312,4.844,4.838,4.838,0,0,0,316.844,9.688Z" class="cls-1" data-name="Path 4121" transform="translate(0.735)"/><path id="Path_4122" d="M316.844,33.688A4.844,4.844,0,1,0,312,28.844,4.838,4.838,0,0,0,316.844,33.688Z" class="cls-1" data-name="Path 4122" transform="translate(0.735 0.735)"/><path id="Path_4123" d="M316.844,57.688A4.844,4.844,0,1,0,312,52.844,4.838,4.838,0,0,0,316.844,57.688Z" class="cls-1" data-name="Path 4123" transform="translate(0.735 1.471)"/><path id="Path_4124" d="M316.844,81.688A4.844,4.844,0,1,0,312,76.844,4.838,4.838,0,0,0,316.844,81.688Z" class="cls-1" data-name="Path 4124" transform="translate(0.735 2.206)"/><path id="Path_4125" d="M316.844,105.688A4.844,4.844,0,1,0,312,100.844,4.838,4.838,0,0,0,316.844,105.688Z" class="cls-1" data-name="Path 4125" transform="translate(0.735 2.942)"/><path id="Path_4126" d="M316.844,129.688A4.844,4.844,0,1,0,312,124.844,4.838,4.838,0,0,0,316.844,129.688Z" class="cls-1" data-name="Path 4126" transform="translate(0.735 3.677)"/><path id="Path_4127" d="M316.844,153.688A4.844,4.844,0,1,0,312,148.844,4.838,4.838,0,0,0,316.844,153.688Z" class="cls-1" data-name="Path 4127" transform="translate(0.735 4.413)"/><path id="Path_4128" d="M316.844,177.688A4.844,4.844,0,1,0,312,172.844,4.838,4.838,0,0,0,316.844,177.688Z" class="cls-1" data-name="Path 4128" transform="translate(0.735 5.148)"/><path id="Path_4131" d="M292.844,9.688A4.844,4.844,0,1,0,288,4.844,4.838,4.838,0,0,0,292.844,9.688Z" class="cls-1" data-name="Path 4131"/><path id="Path_4132" d="M292.844,33.688A4.844,4.844,0,1,0,288,28.844,4.838,4.838,0,0,0,292.844,33.688Z" class="cls-1" data-name="Path 4132" transform="translate(0 0.735)"/><path id="Path_4133" d="M292.844,57.688A4.844,4.844,0,1,0,288,52.844,4.838,4.838,0,0,0,292.844,57.688Z" class="cls-1" data-name="Path 4133" transform="translate(0 1.471)"/><path id="Path_4134" d="M292.844,81.688A4.844,4.844,0,1,0,288,76.844,4.838,4.838,0,0,0,292.844,81.688Z" class="cls-1" data-name="Path 4134" transform="translate(0 2.206)"/><path id="Path_4135" d="M292.844,105.688A4.844,4.844,0,1,0,288,100.844,4.838,4.838,0,0,0,292.844,105.688Z" class="cls-1" data-name="Path 4135" transform="translate(0 2.942)"/><path id="Path_4136" d="M292.844,129.688A4.844,4.844,0,1,0,288,124.844,4.838,4.838,0,0,0,292.844,129.688Z" class="cls-1" data-name="Path 4136" transform="translate(0 3.677)"/><path id="Path_4137" d="M292.844,153.688A4.844,4.844,0,1,0,288,148.844,4.838,4.838,0,0,0,292.844,153.688Z" class="cls-1" data-name="Path 4137" transform="translate(0 4.413)"/><path id="Path_4138" d="M292.844,177.688A4.844,4.844,0,1,0,288,172.844,4.838,4.838,0,0,0,292.844,177.688Z" class="cls-1" data-name="Path 4138" transform="translate(0 5.148)"/></g></g></svg>