<svg xmlns="http://www.w3.org/2000/svg" viewBox="0 0 259.168 256.007"><defs><style>.cls-1{fill:#adcb57}.cls-2{fill:#fff}.cls-3{fill:#90c26e}.cls-4{fill:#5cae73}.cls-5{fill:#009336}</style></defs><g id="grass_1_" transform="translate(0.013)"><g id="Group_2335" data-name="Group 2335" transform="translate(-0.013 135.172)"><path id="Path_4873" d="M.148,113.736a1.071,1.071,0,0,0-.143.714v.143c-.571,12.857,12.143,26.715,20.286,32.715,12.857,9.429,28.715,9.857,43.573,13.286a247.33,247.33,0,0,1,46.858,16.715,55.173,55.173,0,0,0,20.715,5.572c8.572.571,16.715,1,25,3.572,7.715,2.286,15.143,5.572,22.572,8.715,2.857,1.286,8.572,3.429,7.429-2.143-1.143-5.714-6.572-10.715-10.857-14.143-6.143-4.857-13.286-8.143-20-12.143-15.572-9.286-27.429-22.858-41.858-33.572-13-9.572-27.715-17.572-42.43-24.429a210.146,210.146,0,0,0-25.858-10c-7.143-2.143-15.572-5-23.143-3.857C14.006,96.593,2.149,104.593.148,113.736Z" class="cls-1" data-name="Path 4873" transform="translate(0.013 -94.617)"/><path id="Path_4874" d="M173.651,182.348c-.143,0-.143,0-.286-.143a125.981,125.981,0,0,0-38-16.143c-11.429-2.714-21.572-8.715-32.287-15.143-10.286-6.143-20.858-12.429-33.429-16.143-25-7.286-49.287-17.429-60.287-25.144-.143-.143-.286-.429-.143-.571s.429-.286.571-.143c10.857,7.572,35.43,18,60,25.144,12.572,3.714,23.286,10.143,33.572,16.286,10.715,6.429,20.715,12.429,32,15a132.03,132.03,0,0,1,38.287,16.143c.143.143.286.429.143.571C173.937,182.348,173.794,182.348,173.651,182.348Z" class="cls-2" data-name="Path 4874" transform="translate(3.944 -88.514)"/></g><g id="Group_2346" data-name="Group 2346" transform="translate(151.559)"><path id="Path_4875" d="M119.25,0c27.144,16,71.145,64.859,91.574,113.146,1,2.286,1.857,4.572,2.857,7V256.007H163.108c-12.715-19.715-36.144-59.716-48.43-103.86C92.963,74.145,119.25,0,119.25,0Z" class="cls-3" data-name="Path 4875" transform="translate(-106.085)"/><path id="Path_4876" d="M200.388,253.393C182.245,163.1,117.814,7.814,117.1,6.529l.714-.429c.571,1,65.145,156.719,83.288,247.293h-.714Z" class="cls-2" data-name="Path 4876" transform="translate(-101.364 2.615)"/><g id="Group_2336" data-name="Group 2336" transform="translate(7.451 44.858)"><path id="Path_4877" d="M112.014,32.543l.429-.714-.714-.429-.429.857Z" class="cls-2" data-name="Path 4877" transform="translate(-111.3 -31.4)"/><path id="Path_4878" d="M134.758,42.629l.429-.714,1.571.714-.429.714ZM131.615,41.2l.429-.714,1.571.714-.429.714Zm-3.143-1.429.429-.714,1.571.714-.429.714Zm-3-1.286.429-.714,1.571.714-.429.714Zm-3.143-1.429.429-.714,1.571.714-.429.714Zm-3.143-1.429.429-.714,1.571.714-.429.714Zm-3.143-1.286.429-.714,1.571.714-.429.714ZM112.9,32.914l.429-.714,1.571.714-.429.714Z" class="cls-2" data-name="Path 4878" transform="translate(-110.614 -31.057)"/><path id="Path_4879" d="M131.114,41.043l.429-.857-.714-.286-.429.714Z" class="cls-2" data-name="Path 4879" transform="translate(-103.114 -27.757)"/></g><g id="Group_2337" data-name="Group 2337" transform="translate(5.736 80.145)"><path id="Path_4880" d="M110.957,57.243l.286-.857-.857-.286-.286.857Z" class="cls-2" data-name="Path 4880" transform="translate(-110.1 -56.1)"/><path id="Path_4881" d="M149.087,68.886l.286-.857,1.571.429-.286.857Zm-3.143-.857.286-.857,1.571.429-.286.857Zm-3.143-1,.286-.857,1.572.429-.286.857Zm-3.143-1,.286-.857,1.571.429-.286.857Zm-3-.857.286-.857,1.571.429-.286.857Zm-3.143-1,.286-.857,1.571.429-.286.857Zm-3.143-1,.286-.857,1.571.429-.286.857Zm-3.143-.857.286-.857,1.571.429-.286.857Zm-3-1,.286-.857,1.571.429-.286.857Zm-3.143-1,.286-.857,1.571.429-.286.857Zm-3.143-.857.286-.857,1.571.429-.286.857Zm-3.143-1,.286-.857,1.571.429-.286.857Zm-3-1,.286-.857,1.571.429-.286.857Z" class="cls-2" data-name="Path 4881" transform="translate(-109.371 -55.886)"/><path id="Path_4882" d="M140.857,66.443l.286-.857-.857-.286-.286.857Z" class="cls-2" data-name="Path 4882" transform="translate(-97.285 -52.157)"/></g><g id="Group_2338" data-name="Group 2338" transform="translate(8.736 122.003)"><path id="Path_4883" d="M112.914,86.4l.286-.857-.714-.143-.286.714Z" class="cls-2" data-name="Path 4883" transform="translate(-112.2 -85.4)"/><path id="Path_4884" d="M163.659,100.086l.286-.857,1.571.429-.286.857Zm-3-.857.286-.857,1.571.429-.286.857Zm-3.143-.857.286-.857,1.571.429-.286.857Zm-3.143-.857.286-.857,1.571.429-.286.857Zm-3.143-.857.286-.857,1.571.429-.286.857Zm-3.143-.857.286-.857,1.571.429-.286.857Zm-3-.714.286-.857,1.571.429-.286.857Zm-3.143-.857.286-.857,1.571.429-.286.857Zm-3.143-.857.286-.857,1.571.429-.286.857Zm-3.143-.857.286-.857,1.571.429-.286.857Zm-3.143-.857.286-.857,1.571.429-.286.857Zm-3.143-.857.286-.857,1.571.429-.286.857Zm-3-.857.286-.857,1.571.429-.286.857Zm-3.143-.857.286-.857,1.571.429-.286.857Zm-3.143-.714.286-.857,1.571.429-.286.857Zm-3.143-.857.286-.857,1.571.429-.286.857Zm-3.143-.857.286-.857,1.571.429-.286.857Z" class="cls-2" data-name="Path 4884" transform="translate(-111.514 -85.229)"/><path id="Path_4885" d="M151.757,96.8l.286-.857-.857-.143-.286.857Z" class="cls-2" data-name="Path 4885" transform="translate(-95.613 -80.942)"/></g><g id="Group_2339" data-name="Group 2339" transform="translate(20.737 168.576)"><path id="Path_4886" d="M121.457,119l.286-.857-.857-.143-.286.714Z" class="cls-2" data-name="Path 4886" transform="translate(-120.6 -118)"/><path id="Path_4887" d="M174.587,130.586l.286-.857,1.571.429-.286.857Zm-3.286-.714.286-.857,1.572.429-.286.857Zm-3.286-.714.286-.857,1.572.429-.286.857Zm-3.286-.714.286-.857,1.571.429-.286.857Zm-3.143-.714.286-.857,1.571.429-.286.857Zm-3.286-.714.286-.857,1.571.429-.286.857Zm-3.286-.714.286-.857,1.571.429-.286.857Zm-3.286-.714.286-.857,1.571.429-.286.857Zm-3.286-.714.286-.857,1.571.429-.286.857Zm-3.286-.714.286-.857,1.571.429-.286.857Zm-3.286-.714.286-.857,1.571.429-.286.857Zm-3.143-.714.286-.857,1.572.429-.286.857Zm-3.286-.714.286-.857,1.571.429-.286.857Zm-3.286-.714.286-.857,1.571.429-.286.857Zm-3.286-.714.286-.857,1.571.429-.286.857Zm-3.286-.714.286-.857,1.571.429-.286.857Zm-3.286-.714.286-.857,1.571.429-.286.857Z" class="cls-2" data-name="Path 4887" transform="translate(-119.871 -117.871)"/><path id="Path_4888" d="M162.057,127.8l.143-.714-.857-.286-.143.857Z" class="cls-2" data-name="Path 4888" transform="translate(-103.198 -114.228)"/></g><g id="Group_2340" data-name="Group 2340" transform="translate(43.023 220.435)"><path id="Path_4889" d="M136.914,155.3l.286-.857-.857-.143-.143.857Z" class="cls-2" data-name="Path 4889" transform="translate(-136.2 -154.3)"/><path id="Path_4890" d="M181.615,163.457l.143-.857,1.714.286-.143.857Zm-3.286-.571.143-.857,1.714.286-.143.857Zm-3.429-.571.143-.857,1.714.286-.143.857Zm-3.286-.714.143-.857,1.714.286-.143.857Zm-3.429-.571.143-.857,1.714.286-.143.857Zm-3.286-.571.143-.857,1.714.286-.143.857Zm-3.429-.714.143-.857,1.714.286-.143.857Zm-3.429-.571.143-.857,1.714.286-.143.857Zm-3.286-.571.143-.857,1.714.286-.143.857Zm-3.429-.714.143-.857,1.714.286-.143.857Zm-3.286-.571.143-.857,1.714.286-.143.857Zm-3.429-.571.143-.857,1.714.286-.143.857Zm-3.286-.714.143-.857,1.714.286-.143.857Zm-3.429-.571.143-.857,1.714.286-.143.857Z" class="cls-2" data-name="Path 4890" transform="translate(-135.471 -154.171)"/><path id="Path_4891" d="M171.614,161.557l.286-.714-.857-.143-.143.714Z" class="cls-2" data-name="Path 4891" transform="translate(-121.327 -151.557)"/></g><g id="Group_2341" data-name="Group 2341" transform="translate(96.024 240.721)"><path id="Path_4892" d="M173.871,169.643l.571-.714-.714-.429-.429.714Z" class="cls-2" data-name="Path 4892" transform="translate(-173.3 -168.5)"/></g><g id="Group_2342" data-name="Group 2342" transform="translate(83.167 193.434)"><path id="Path_4893" d="M164.871,136.543l.571-.714-.571-.429-.571.571Z" class="cls-2" data-name="Path 4893" transform="translate(-164.3 -135.4)"/></g><g id="Group_2343" data-name="Group 2343" transform="translate(67.595 113.717)"><path id="Path_4894" d="M174.171,80.743l.571-.571-.571-.571-.571.714Z" class="cls-2" data-name="Path 4894" transform="translate(-144.742 -79.6)"/><path id="Path_4895" d="M154.7,109l1.286-1.286.571.571-1.286,1.286Zm2.429-2.714L158.414,105l.571.571-1.286,1.286Zm2.429-2.571,1.286-1.286.571.571-1.286,1.286ZM161.986,101l1.286-1.286.571.571-1.286,1.286Zm2.429-2.714L165.7,97l.571.571-1.286,1.286Zm2.572-2.571,1.286-1.286.571.571-1.286,1.286ZM169.415,93l1.286-1.286.571.571-1.286,1.286Zm2.429-2.714L173.129,89l.571.571-1.286,1.286Zm2.429-2.571,1.286-1.286.571.571-1.286,1.286ZM176.7,85l1.286-1.286.571.571-1.286,1.286Zm2.429-2.714L180.415,81l.571.571L179.7,82.857Z" class="cls-2" data-name="Path 4895" transform="translate(-152.843 -79)"/><path id="Path_4896" d="M153.971,102.786l.714-.714-.714-.571-.571.714Z" class="cls-2" data-name="Path 4896" transform="translate(-153.4 -70.213)"/></g><g id="Group_2344" data-name="Group 2344" transform="translate(52.023 70.859)"><path id="Path_4897" d="M158.471,50.886l.571-.714-.714-.571-.429.714Z" class="cls-2" data-name="Path 4897" transform="translate(-135.899 -49.6)"/><path id="Path_4898" d="M143.5,77.672l1-1.429.714.429-1,1.429Zm2.143-2.857,1-1.429.714.429-1,1.429Zm2-2.714,1-1.429.714.429-1,1.429Zm2-2.857,1-1.429.714.429-1,1.429Zm2.143-2.714,1-1.429.714.429-1,1.429Zm2-2.857,1-1.429.714.429-1,1.429Zm2-2.857,1-1.429.714.429-1,1.429Zm2.143-2.714,1-1.429.714.429-1,1.429Zm2-2.857,1-1.429.714.429-1,1.429Zm2-2.714,1-1.429.714.429-1,1.429Z" class="cls-2" data-name="Path 4898" transform="translate(-142.071 -48.957)"/><path id="Path_4899" d="M143.071,71.886l.571-.714-.714-.571-.429.714Z" class="cls-2" data-name="Path 4899" transform="translate(-142.5 -40.599)"/></g><g id="Group_2345" data-name="Group 2345" transform="translate(38.309 39.715)"><path id="Path_4900" d="M142.314,28.943l.429-.857-.857-.286-.286.714Z" class="cls-2" data-name="Path 4900" transform="translate(-129.171 -27.8)"/><path id="Path_4901" d="M133.8,50.5l.857-1.571.714.286-.857,1.571Zm1.571-3.286.857-1.571.714.286-.857,1.571Zm1.572-3.286.857-1.571.714.286-.857,1.571Zm1.571-3.143.857-1.571.714.286-.857,1.571Zm1.571-3.286.857-1.571.714.286-.857,1.571Zm1.572-3.143.857-1.571.714.286-.857,1.571Zm1.714-3.286.857-1.571.714.286-.857,1.571Z" class="cls-2" data-name="Path 4901" transform="translate(-132.514 -27.071)"/><path id="Path_4902" d="M133.757,46.443l.286-.857-.714-.286-.429.714Z" class="cls-2" data-name="Path 4902" transform="translate(-132.9 -20.299)"/></g></g><g id="Group_2347" data-name="Group 2347" transform="translate(15.447 72.77)"><path id="Path_4903" d="M136.514,127.6c-3-9-6.857-16.858-14.286-22.858-4.286-3.429-8-6.714-11-11.429-2.571-4.286-4.714-8.857-7.857-12.715-6.572-7.715-16-12.857-25.144-16.858A202.205,202.205,0,0,0,47.083,52.6c-8.429-2.143-18-2.857-25.858,1.857a18.383,18.383,0,0,0-7.857,9.286,19.432,19.432,0,0,0,1,20.858c4.429,6.286,11.715,9.857,17.858,14.286A29.085,29.085,0,0,1,41.512,109.6c2.143,4.286,3.572,9,6.286,13.143,10.286,15.429,32.287,11.286,45.858,21.858,4.429,3.429,6.143,8,8.286,12.857a26.028,26.028,0,0,0,7.429,9.715c7.429,6.143,16.715,9.857,24.286,16a46.514,46.514,0,0,1,10.143,11c3.286,5.286,4,10.715,4.714,16.715,1,7.572,4.857,14.429,12,17.858,7.286,3.429,6.286-6.572,6-11.286-.429-9.429-3.429-18.572-7-27.286-4.286-10.286-9.715-20.286-13.429-30.858C142.514,149.03,140.086,138.172,136.514,127.6Z" class="cls-4" data-name="Path 4903" transform="translate(-10.808 -50.937)"/><path id="Path_4904" d="M157.247,219.276c-.143,0-.429-.143-.429-.286-2.857-13-23.572-71.431-41.858-90.431-10-10.286-18-16.286-26.429-22.572a224.155,224.155,0,0,1-22-18C51.387,73.557,21.671,61.7,21.386,61.557s-.286-.286-.286-.571c.143-.286.286-.286.571-.286.286.143,30.144,12,45.573,26.572A220.613,220.613,0,0,0,89.1,105.13c8.429,6.286,16.429,12.286,26.572,22.572,18.286,19,39.287,77.716,42,90.86.143.429,0,.571-.429.714Z" class="cls-2" data-name="Path 4904" transform="translate(-6.397 -46.753)"/></g><g id="Group_2348" data-name="Group 2348" transform="translate(114.863 63.331)"><path id="Path_4905" d="M211.547,237.007H114.83c-14.143-14.286-22-29.715-6.143-35.858,28.429-11,4.572-34.43-13.715-45.144s-21.143-34.144,1.714-37.144c22.715-3,11.143-18.572-1.286-39.715-9-15.286,8.857-42.858,27.858-32.572,30,16.286,22.286,74.574,38.43,60.43,10.286-9,31.144-8.715,27,12.715s-9.715,58.859,3.857,54.573,24.144-1,23.429,23C215.4,211.435,215.547,225.149,211.547,237.007Z" class="cls-5" data-name="Path 4905" transform="translate(-80.398 -44.33)"/><path id="Path_4906" d="M162.13,229.133c-8.857-41.858-26.858-95.431-53.859-160-1.143-2.572-2-4.714-2.572-6.143l.714-.286c.571,1.429,1.429,3.572,2.572,6.143,6.429,15.286,19.715,47,32.287,83.859,9.715,28.572,17,54.144,21.715,76.431Z" class="cls-2" data-name="Path 4906" transform="translate(-69.553 -36.457)"/><rect id="Rectangle_395" width=".714" height="18.429" class="cls-2" data-name="Rectangle 395" transform="translate(30.724 46.91) rotate(-66.922)"/><rect id="Rectangle_396" width=".714" height="43.144" class="cls-2" data-name="Rectangle 396" transform="matrix(0.322, -0.947, 0.947, 0.322, 26.634, 92.202)"/><rect id="Rectangle_397" width="50.287" height=".714" class="cls-2" data-name="Rectangle 397" transform="matrix(0.311, -0.951, 0.951, 0.311, 74.815, 127.901)"/><path id="Path_4907" d="M138.9,181.343l-12-6.429.286-.714,13.429,7.143Z" class="cls-2" data-name="Path 4907" transform="translate(-60.467 11.333)"/><rect id="Rectangle_398" width="31.144" height=".714" class="cls-2" data-name="Rectangle 398" transform="matrix(0.762, -0.648, 0.648, 0.762, 87.908, 171.841)"/></g></g></svg>